SplineFontDB: 3.2
FontName: Nunito-BoldItalic
FullName: Nunito Bold Italic
FamilyName: Nunito
Weight: Bold
Copyright: Copyright 2014 The Nunito Project Authors (https://github.com/googlefonts/nunito)
Version: 3.602-ef
ItalicAngle: -9
UnderlinePosition: -94
UnderlineWidth: 28
Ascent: 800
Descent: 200
InvalidEm: 0
sfntRevision: 0x00039a1d
LayerCount: 2
Layer: 0 1 "Back" 1
Layer: 1 1 "Fore" 0
XUID: [1021 965 1680887925 3944874]
StyleMap: 0x0021
FSType: 0
OS2Version: 4
OS2_WeightWidthSlopeOnly: 0
OS2_UseTypoMetrics: 1
CreationTime: 1592915285
ModificationTime: 1719075227
PfmFamily: 81
TTFWeight: 700
TTFWidth: 5
LineGap: 0
VLineGap: 0
Panose: 0 0 0 0 0 0 0 0 0 0
OS2TypoAscent: 1011
OS2TypoAOffset: 0
OS2TypoDescent: -353
OS2TypoDOffset: 0
OS2TypoLinegap: 0
OS2WinAscent: 1077
OS2WinAOffset: 0
OS2WinDescent: 300
OS2WinDOffset: 0
HheadAscent: 1011
HheadAOffset: 0
HheadDescent: -353
HheadDOffset: 0
OS2SubXSize: 650
OS2SubYSize: 600
OS2SubXOff: 0
OS2SubYOff: 75
OS2SupXSize: 650
OS2SupYSize: 600
OS2SupXOff: 0
OS2SupYOff: 350
OS2StrikeYSize: 28
OS2StrikeYPos: 290
OS2CapHeight: 705
OS2XHeight: 484
OS2Vendor: 'NONE'
OS2CodePages: 20000197.00000000
OS2UnicodeRanges: a00002ff.5000204b.00000000.00000000
Lookup: 1 0 0 "'aalt' Access All Alternates lookup 0" { "'aalt' Access All Alternates lookup 0 subtable"  } ['aalt' ('DFLT' <'dflt' > 'cyrl' <'BSH ' 'CHU ' 'dflt' > 'latn' <'AZE ' 'CAT ' 'CRT ' 'KAZ ' 'MOL ' 'NLD ' 'ROM ' 'TAT ' 'TRK ' 'dflt' > ) ]
Lookup: 3 0 0 "'aalt' Access All Alternates lookup 1" { "'aalt' Access All Alternates lookup 1 subtable"  } ['aalt' ('DFLT' <'dflt' > 'cyrl' <'BSH ' 'CHU ' 'dflt' > 'latn' <'AZE ' 'CAT ' 'CRT ' 'KAZ ' 'MOL ' 'NLD ' 'ROM ' 'TAT ' 'TRK ' 'dflt' > ) ]

StartChar: .notdef
Encoding: 65536 -1 0
Width: 500
GlyphClass: 1
Flags: W
LayerCount: 2
Fore
SplineSet
50 -180 m 1,0,-1
 50 705 l 1,1,-1
 450 705 l 1,2,-1
 450 -180 l 1,3,-1
 50 -180 l 1,0,-1
100 -130 m 1,4,-1
 400 -130 l 1,5,-1
 400 655 l 1,6,-1
 100 655 l 1,7,-1
 100 -130 l 1,4,-1
EndSplineSet
EndChar

StartChar: A
Encoding: 65 65 1
Width: 744
GlyphClass: 2
Flags: W
AnchorPoint: "Anchor-3" 664 0 basechar 0
AnchorPoint: "Anchor-2" 353 0 basechar 0
AnchorPoint: "Anchor-0" 445 705 basechar 0
LayerCount: 2
Fore
SplineSet
52 -8 m 0,0,1
 29 -8 29 -8 14 2.5 c 128,-1,2
 -1 13 -1 13 -4.5 30.5 c 128,-1,3
 -8 48 -8 48 5 69 c 2,4,-1
 372 669 l 2,5,6
 386 692 386 692 403 702.5 c 128,-1,7
 420 713 420 713 445 713 c 0,8,9
 471 713 471 713 488 700 c 128,-1,10
 505 687 505 687 512 661 c 2,11,-1
 684 72 l 2,12,13
 692 45 692 45 687 27.5 c 128,-1,14
 682 10 682 10 668 1 c 128,-1,15
 654 -8 654 -8 634 -8 c 0,16,17
 606 -8 606 -8 591.5 6 c 128,-1,18
 577 20 577 20 569 49 c 2,19,-1
 532 190 l 1,20,-1
 572 163 l 1,21,-1
 158 163 l 1,22,-1
 208 187 l 1,23,-1
 116 30 l 2,24,25
 105 11 105 11 89.5 1.5 c 128,-1,26
 74 -8 74 -8 52 -8 c 0,0,1
430 566 m 1,27,-1
 240 242 l 1,28,-1
 218 265 l 1,29,-1
 545 265 l 1,30,-1
 518 240 l 1,31,-1
 432 566 l 1,32,-1
 430 566 l 1,27,-1
EndSplineSet
Substitution2: "Single Substitution lookup 29 subtable" ordfeminine
Substitution2: "'aalt' Access All Alternates lookup 0 subtable" ordfeminine
EndChar

StartChar: Aogonek
Encoding: 260 260 24
Width: 744
GlyphClass: 1
Flags: W
LayerCount: 2
Fore
SplineSet
625 -195 m 0,0,1
 571 -195 571 -195 544.5 -168.5 c 128,-1,2
 518 -142 518 -142 518 -103 c 0,3,4
 518 -65 518 -65 536 -34 c 128,-1,5
 554 -3 554 -3 591 21 c 1,6,-1
 587 11 l 1,7,8
 581 17 581 17 576.5 26.5 c 128,-1,9
 572 36 572 36 569 49 c 2,10,-1
 532 190 l 1,11,-1
 572 163 l 1,12,-1
 158 163 l 1,13,-1
 208 187 l 1,14,-1
 116 30 l 2,15,16
 105 11 105 11 89.5 1.5 c 128,-1,17
 74 -8 74 -8 52 -8 c 0,18,19
 29 -8 29 -8 14 2.5 c 128,-1,20
 -1 13 -1 13 -4.5 30.5 c 128,-1,21
 -8 48 -8 48 5 69 c 2,22,-1
 372 669 l 2,23,24
 386 692 386 692 403 702.5 c 128,-1,25
 420 713 420 713 445 713 c 0,26,27
 471 713 471 713 488 700 c 128,-1,28
 505 687 505 687 512 661 c 2,29,-1
 684 72 l 2,30,31
 693 41 693 41 685 22.5 c 128,-1,32
 677 4 677 4 659 -4 c 0,33,34
 640 -12 640 -12 626 -23.5 c 128,-1,35
 612 -35 612 -35 604.5 -49 c 128,-1,36
 597 -63 597 -63 597 -81 c 0,37,38
 597 -102 597 -102 611 -115 c 128,-1,39
 625 -128 625 -128 648 -128 c 0,40,41
 656 -128 656 -128 664 -127 c 128,-1,42
 672 -126 672 -126 682 -123 c 0,43,44
 698 -118 698 -118 706.5 -125 c 128,-1,45
 715 -132 715 -132 716.5 -144.5 c 128,-1,46
 718 -157 718 -157 712.5 -168 c 128,-1,47
 707 -179 707 -179 695 -184 c 0,48,49
 680 -189 680 -189 661.5 -192 c 128,-1,50
 643 -195 643 -195 625 -195 c 0,0,1
430 566 m 1,51,-1
 240 242 l 1,52,-1
 218 265 l 1,53,-1
 545 265 l 1,54,-1
 518 240 l 1,55,-1
 432 566 l 1,56,-1
 430 566 l 1,51,-1
EndSplineSet
EndChar

StartChar: AE
Encoding: 198 198 28
Width: 993
GlyphClass: 2
Flags: W
AnchorPoint: "Anchor-2" 449 0 basechar 0
AnchorPoint: "Anchor-0" 548 705 basechar 0
LayerCount: 2
Fore
SplineSet
21 -8 m 0,0,1
 -6 -8 -6 -8 -19 4.5 c 128,-1,2
 -32 17 -32 17 -32 35.5 c 128,-1,3
 -32 54 -32 54 -19 71 c 2,4,-1
 449 672 l 2,5,6
 463 690 463 690 479.5 697.5 c 128,-1,7
 496 705 496 705 518 705 c 2,8,-1
 962 705 l 2,9,10
 988 705 988 705 1002 694.5 c 128,-1,11
 1016 684 1016 684 1016 664 c 0,12,13
 1016 635 1016 635 999.5 619 c 128,-1,14
 983 603 983 603 955 603 c 2,15,-1
 559 603 l 1,16,-1
 597 637 l 1,17,-1
 613 374 l 1,18,-1
 572 409 l 1,19,-1
 893 409 l 2,20,21
 919 409 919 409 933 398.5 c 128,-1,22
 947 388 947 388 947 368 c 0,23,24
 947 339 947 339 930.5 323 c 128,-1,25
 914 307 914 307 887 307 c 2,26,-1
 579 307 l 1,27,-1
 614 342 l 1,28,-1
 630 65 l 1,29,-1
 589 102 l 1,30,-1
 867 102 l 2,31,32
 893 102 893 102 907 91.5 c 128,-1,33
 921 81 921 81 921 61 c 0,34,35
 921 33 921 33 905 16.5 c 128,-1,36
 889 0 889 0 860 0 c 2,37,-1
 578 0 l 2,38,39
 522 0 522 0 519 55 c 2,40,-1
 511 201 l 1,41,-1
 547 163 l 1,42,-1
 161 163 l 1,43,-1
 214 197 l 1,44,-1
 85 26 l 2,45,46
 72 8 72 8 56.5 0 c 128,-1,47
 41 -8 41 -8 21 -8 c 0,0,1
488 562 m 1,48,-1
 241 234 l 1,49,-1
 237 265 l 1,50,-1
 538 265 l 1,51,-1
 509 230 l 1,52,-1
 490 562 l 1,53,-1
 488 562 l 1,48,-1
EndSplineSet
EndChar

StartChar: B
Encoding: 66 66 30
Width: 688
GlyphClass: 2
Flags: W
AnchorPoint: "Anchor-2" 308 0 basechar 0
AnchorPoint: "Anchor-0" 419 705 basechar 0
LayerCount: 2
Fore
SplineSet
112 0 m 2,0,1
 78 0 78 0 61.5 19.5 c 128,-1,2
 45 39 45 39 50 73 c 2,3,-1
 140 643 l 2,4,5
 145 674 145 674 163.5 689.5 c 128,-1,6
 182 705 182 705 213 705 c 2,7,-1
 440 705 l 2,8,9
 518 705 518 705 567 683.5 c 128,-1,10
 616 662 616 662 639 624.5 c 128,-1,11
 662 587 662 587 662 538 c 0,12,13
 662 462 662 462 614 413 c 128,-1,14
 566 364 566 364 488 352 c 1,15,-1
 488 368 l 1,16,17
 554 356 554 356 591 314 c 128,-1,18
 628 272 628 272 628 210 c 0,19,20
 628 107 628 107 560 53.5 c 128,-1,21
 492 0 492 0 372 0 c 2,22,-1
 112 0 l 2,0,1
176 97 m 1,23,-1
 366 97 l 2,24,25
 435 97 435 97 469.5 128 c 128,-1,26
 504 159 504 159 504 217 c 0,27,28
 504 263 504 263 473.5 286 c 128,-1,29
 443 309 443 309 385 309 c 2,30,-1
 210 309 l 1,31,-1
 176 97 l 1,23,-1
226 406 m 1,32,-1
 397 406 l 2,33,34
 464 406 464 406 501 436 c 128,-1,35
 538 466 538 466 538 523 c 0,36,37
 538 564 538 564 509.5 586 c 128,-1,38
 481 608 481 608 420 608 c 2,39,-1
 258 608 l 1,40,-1
 226 406 l 1,32,-1
EndSplineSet
EndChar

StartChar: uni0181
Encoding: 385 385 31
Width: 838
GlyphClass: 1
Flags: W
LayerCount: 2
Fore
SplineSet
263 0 m 2,0,1
 228 0 228 0 211.5 19.5 c 128,-1,2
 195 39 195 39 200 73 c 2,3,-1
 286 614 l 1,4,-1
 259 614 l 2,5,6
 210 614 210 614 184.5 591.5 c 128,-1,7
 159 569 159 569 149 517 c 2,8,-1
 145 496 l 2,9,10
 143 486 143 486 136.5 478 c 128,-1,11
 130 470 130 470 119 465.5 c 128,-1,12
 108 461 108 461 92 461 c 0,13,14
 73 461 73 461 61.5 468 c 128,-1,15
 50 475 50 475 46 487.5 c 128,-1,16
 42 500 42 500 44 516 c 2,17,-1
 47 537 l 2,18,19
 59 622 59 622 112 663.5 c 128,-1,20
 165 705 165 705 270 705 c 2,21,-1
 590 705 l 2,22,23
 668 705 668 705 717 683.5 c 128,-1,24
 766 662 766 662 789 624.5 c 128,-1,25
 812 587 812 587 812 538 c 0,26,27
 812 462 812 462 764 413 c 128,-1,28
 716 364 716 364 638 352 c 1,29,-1
 638 368 l 1,30,31
 704 356 704 356 741 314 c 128,-1,32
 778 272 778 272 778 210 c 0,33,34
 778 107 778 107 710 53.5 c 128,-1,35
 642 0 642 0 522 0 c 2,36,-1
 263 0 l 2,0,1
326 97 m 1,37,-1
 516 97 l 2,38,39
 585 97 585 97 619.5 128 c 128,-1,40
 654 159 654 159 654 217 c 0,41,42
 654 263 654 263 623.5 286 c 128,-1,43
 593 309 593 309 535 309 c 2,44,-1
 360 309 l 1,45,-1
 326 97 l 1,37,-1
376 406 m 1,46,-1
 547 406 l 2,47,48
 614 406 614 406 651 436 c 128,-1,49
 688 466 688 466 688 523 c 0,50,51
 688 564 688 564 659.5 586 c 128,-1,52
 631 608 631 608 570 608 c 2,53,-1
 408 608 l 1,54,-1
 376 406 l 1,46,-1
EndSplineSet
EndChar

StartChar: C
Encoding: 67 67 32
Width: 680
GlyphClass: 2
Flags: W
AnchorPoint: "Anchor-2" 371 0 basechar 0
AnchorPoint: "Anchor-0" 442 705 basechar 0
LayerCount: 2
Fore
SplineSet
393 -10 m 0,0,1
 299 -10 299 -10 226.5 25.5 c 128,-1,2
 154 61 154 61 112.5 132 c 128,-1,3
 71 203 71 203 71 310 c 0,4,5
 71 396 71 396 96.5 469.5 c 128,-1,6
 122 543 122 543 170.5 598 c 128,-1,7
 219 653 219 653 290 684 c 128,-1,8
 361 715 361 715 451 715 c 0,9,10
 509 715 509 715 562 700 c 128,-1,11
 615 685 615 685 655 656 c 0,12,13
 673 643 673 643 677.5 625.5 c 128,-1,14
 682 608 682 608 677 591 c 128,-1,15
 672 574 672 574 660.5 561.5 c 128,-1,16
 649 549 649 549 633 546.5 c 128,-1,17
 617 544 617 544 600 555 c 0,18,19
 561 581 561 581 524 591 c 128,-1,20
 487 601 487 601 447 601 c 0,21,22
 370 601 370 601 316.5 563.5 c 128,-1,23
 263 526 263 526 235 461 c 128,-1,24
 207 396 207 396 207 314 c 0,25,26
 207 240 207 240 229.5 193.5 c 128,-1,27
 252 147 252 147 296.5 125.5 c 128,-1,28
 341 104 341 104 405 104 c 0,29,30
 442 104 442 104 476 113 c 128,-1,31
 510 122 510 122 546 143 c 0,32,33
 566 155 566 155 582.5 152.5 c 128,-1,34
 599 150 599 150 610 138 c 128,-1,35
 621 126 621 126 624.5 109.5 c 128,-1,36
 628 93 628 93 621.5 76.5 c 128,-1,37
 615 60 615 60 597 48 c 0,38,39
 553 19 553 19 498 4.5 c 128,-1,40
 443 -10 443 -10 393 -10 c 0,0,1
EndSplineSet
EndChar

StartChar: D
Encoding: 68 68 39
Width: 762
GlyphClass: 2
Flags: W
AnchorPoint: "Anchor-5" 211 358 basechar 0
AnchorPoint: "Anchor-2" 345 0 basechar 0
AnchorPoint: "Anchor-0" 443 705 basechar 0
LayerCount: 2
Fore
SplineSet
112 0 m 2,0,1
 78 0 78 0 61 19.5 c 128,-1,2
 44 39 44 39 50 73 c 2,3,-1
 140 643 l 2,4,5
 145 674 145 674 163.5 689.5 c 128,-1,6
 182 705 182 705 213 705 c 2,7,-1
 376 705 l 2,8,9
 544 705 544 705 635.5 626 c 128,-1,10
 727 547 727 547 727 404 c 0,11,12
 727 319 727 319 702 245.5 c 128,-1,13
 677 172 677 172 626.5 117 c 128,-1,14
 576 62 576 62 500.5 31 c 128,-1,15
 425 0 425 0 323 0 c 2,16,-1
 112 0 l 2,0,1
183 106 m 1,17,-1
 325 106 l 2,18,19
 395 106 395 106 446 128.5 c 128,-1,20
 497 151 497 151 529.5 191 c 128,-1,21
 562 231 562 231 577.5 285 c 128,-1,22
 593 339 593 339 593 402 c 0,23,24
 593 498 593 498 538.5 548.5 c 128,-1,25
 484 599 484 599 376 599 c 2,26,-1
 261 599 l 1,27,-1
 183 106 l 1,17,-1
EndSplineSet
EndChar

StartChar: uni018A
Encoding: 394 394 45
Width: 913
GlyphClass: 1
Flags: W
LayerCount: 2
Fore
SplineSet
263 0 m 2,0,1
 228 0 228 0 211.5 19.5 c 128,-1,2
 195 39 195 39 200 73 c 2,3,-1
 286 614 l 1,4,-1
 259 614 l 2,5,6
 212 614 212 614 184.5 591.5 c 128,-1,7
 157 569 157 569 149 517 c 2,8,-1
 145 496 l 2,9,10
 144 486 144 486 137 478 c 128,-1,11
 130 470 130 470 119 465.5 c 128,-1,12
 108 461 108 461 92 461 c 0,13,14
 73 461 73 461 61.5 468 c 128,-1,15
 50 475 50 475 45.5 487.5 c 128,-1,16
 41 500 41 500 44 516 c 2,17,-1
 47 537 l 2,18,19
 61 622 61 622 113.5 663.5 c 128,-1,20
 166 705 166 705 270 705 c 2,21,-1
 526 705 l 2,22,23
 694 705 694 705 785.5 626 c 128,-1,24
 877 547 877 547 877 404 c 0,25,26
 877 319 877 319 852 245.5 c 128,-1,27
 827 172 827 172 776.5 117 c 128,-1,28
 726 62 726 62 650.5 31 c 128,-1,29
 575 0 575 0 473 0 c 2,30,-1
 263 0 l 2,0,1
333 106 m 1,31,-1
 475 106 l 2,32,33
 545 106 545 106 596 128.5 c 128,-1,34
 647 151 647 151 679.5 191 c 128,-1,35
 712 231 712 231 727.5 285 c 128,-1,36
 743 339 743 339 743 402 c 0,37,38
 743 498 743 498 688.5 548.5 c 128,-1,39
 634 599 634 599 526 599 c 2,40,-1
 411 599 l 1,41,-1
 333 106 l 1,31,-1
EndSplineSet
EndChar

StartChar: E
Encoding: 69 69 48
Width: 597
GlyphClass: 2
Flags: W
AnchorPoint: "Anchor-3" 456 0 basechar 0
AnchorPoint: "Anchor-2" 295 0 basechar 0
AnchorPoint: "Anchor-0" 401 705 basechar 0
LayerCount: 2
Fore
SplineSet
113 0 m 2,0,1
 77 0 77 0 61 19 c 128,-1,2
 45 38 45 38 50 73 c 2,3,-1
 140 643 l 2,4,5
 145 674 145 674 163.5 689.5 c 128,-1,6
 182 705 182 705 213 705 c 2,7,-1
 566 705 l 2,8,9
 592 705 592 705 606 694.5 c 128,-1,10
 620 684 620 684 620 664 c 0,11,12
 620 635 620 635 603.5 619 c 128,-1,13
 587 603 587 603 560 603 c 2,14,-1
 257 603 l 1,15,-1
 226 409 l 1,16,-1
 498 409 l 2,17,18
 524 409 524 409 537.5 398.5 c 128,-1,19
 551 388 551 388 551 368 c 0,20,21
 551 339 551 339 534.5 323 c 128,-1,22
 518 307 518 307 491 307 c 2,23,-1
 210 307 l 1,24,-1
 177 102 l 1,25,-1
 470 102 l 2,26,27
 496 102 496 102 510 91.5 c 128,-1,28
 524 81 524 81 524 61 c 0,29,30
 524 32 524 32 507.5 16 c 128,-1,31
 491 0 491 0 464 0 c 2,32,-1
 113 0 l 2,0,1
EndSplineSet
EndChar

StartChar: uni018F
Encoding: 399 399 72
Width: 785
GlyphClass: 2
Flags: W
AnchorPoint: "Anchor-2" 354 0 basechar 0
AnchorPoint: "Anchor-0" 466 705 basechar 0
LayerCount: 2
Fore
SplineSet
376 -10 m 0,0,1
 292 -10 292 -10 229.5 19.5 c 128,-1,2
 167 49 167 49 128 101.5 c 128,-1,3
 89 154 89 154 75 223.5 c 128,-1,4
 61 293 61 293 74 372 c 0,5,6
 77 390 77 390 88.5 398 c 128,-1,7
 100 406 100 406 123 406 c 2,8,-1
 656 406 l 1,9,-1
 641 302 l 1,10,-1
 161 302 l 1,11,-1
 202 353 l 1,12,13
 191 276 191 276 206.5 218 c 128,-1,14
 222 160 222 160 265.5 128 c 128,-1,15
 309 96 309 96 382 96 c 0,16,17
 462 96 462 96 513.5 137.5 c 128,-1,18
 565 179 565 179 590 249.5 c 128,-1,19
 615 320 615 320 615 405 c 0,20,21
 615 467 615 467 589.5 512 c 128,-1,22
 564 557 564 557 516.5 581 c 128,-1,23
 469 605 469 605 401 605 c 0,24,25
 346 605 346 605 297.5 594 c 128,-1,26
 249 583 249 583 204 559 c 0,27,28
 183 548 183 548 166 551.5 c 128,-1,29
 149 555 149 555 138 567 c 128,-1,30
 127 579 127 579 124.5 596 c 128,-1,31
 122 613 122 613 129.5 629 c 128,-1,32
 137 645 137 645 156 655 c 0,33,34
 216 687 216 687 281.5 701 c 128,-1,35
 347 715 347 715 420 715 c 0,36,37
 518 715 518 715 592 676 c 128,-1,38
 666 637 666 637 707.5 566 c 128,-1,39
 749 495 749 495 749 400 c 0,40,41
 749 317 749 317 726 243 c 128,-1,42
 703 169 703 169 656.5 112 c 128,-1,43
 610 55 610 55 540 22.5 c 128,-1,44
 470 -10 470 -10 376 -10 c 0,0,1
EndSplineSet
EndChar

StartChar: F
Encoding: 70 70 73
Width: 562
GlyphClass: 2
Flags: W
AnchorPoint: "Anchor-2" 261 0 basechar 0
AnchorPoint: "Anchor-0" 375 705 basechar 0
LayerCount: 2
Fore
SplineSet
107 -8 m 0,0,1
 74 -8 74 -8 59 11.5 c 128,-1,2
 44 31 44 31 49 65 c 2,3,-1
 140 643 l 2,4,5
 145 674 145 674 163.5 689.5 c 128,-1,6
 182 705 182 705 213 705 c 2,7,-1
 555 705 l 2,8,9
 581 705 581 705 595 694.5 c 128,-1,10
 609 684 609 684 609 664 c 0,11,12
 609 636 609 636 593.5 619.5 c 128,-1,13
 578 603 578 603 549 603 c 2,14,-1
 263 603 l 1,15,-1
 231 404 l 1,16,-1
 486 404 l 2,17,18
 512 404 512 404 526 393.5 c 128,-1,19
 540 383 540 383 540 363 c 0,20,21
 540 335 540 335 524.5 318.5 c 128,-1,22
 509 302 509 302 480 302 c 2,23,-1
 215 302 l 1,24,-1
 176 55 l 2,25,26
 166 -8 166 -8 107 -8 c 0,0,1
EndSplineSet
EndChar

StartChar: G
Encoding: 71 71 74
Width: 736
GlyphClass: 2
Flags: W
AnchorPoint: "Anchor-2" 390 0 basechar 0
AnchorPoint: "Anchor-0" 447 705 basechar 0
LayerCount: 2
Fore
SplineSet
398 -10 m 0,0,1
 300 -10 300 -10 226 26 c 128,-1,2
 152 62 152 62 111 132 c 128,-1,3
 70 202 70 202 70 303 c 0,4,5
 70 393 70 393 96 468 c 128,-1,6
 122 543 122 543 172.5 598.5 c 128,-1,7
 223 654 223 654 295 684.5 c 128,-1,8
 367 715 367 715 460 715 c 0,9,10
 520 715 520 715 573 701 c 128,-1,11
 626 687 626 687 666 661 c 0,12,13
 686 648 686 648 692 630 c 128,-1,14
 698 612 698 612 693.5 594.5 c 128,-1,15
 689 577 689 577 677 564.5 c 128,-1,16
 665 552 665 552 648 549 c 128,-1,17
 631 546 631 546 611 559 c 0,18,19
 577 582 577 582 537 592.5 c 128,-1,20
 497 603 497 603 453 603 c 0,21,22
 374 603 374 603 318.5 564.5 c 128,-1,23
 263 526 263 526 233.5 459.5 c 128,-1,24
 204 393 204 393 204 308 c 0,25,26
 204 202 204 202 259 151 c 128,-1,27
 314 100 314 100 416 100 c 0,28,29
 456 100 456 100 493 107.5 c 128,-1,30
 530 115 530 115 565 127 c 1,31,-1
 532 73 l 1,32,-1
 567 286 l 1,33,-1
 458 286 l 2,34,35
 433 286 433 286 418.5 297 c 128,-1,36
 404 308 404 308 404 327 c 0,37,38
 404 353 404 353 420 367 c 128,-1,39
 436 381 436 381 464 381 c 2,40,-1
 627 381 l 2,41,42
 656 381 656 381 670 365 c 128,-1,43
 684 349 684 349 679 320 c 2,44,-1
 641 80 l 2,45,46
 637 57 637 57 626 42.5 c 128,-1,47
 615 28 615 28 593 20 c 0,48,49
 552 6 552 6 500 -2 c 128,-1,50
 448 -10 448 -10 398 -10 c 0,0,1
EndSplineSet
EndChar

StartChar: H
Encoding: 72 72 81
Width: 773
GlyphClass: 2
Flags: W
AnchorPoint: "Anchor-5" 437 561 basechar 0
AnchorPoint: "Anchor-2" 354 0 basechar 0
AnchorPoint: "Anchor-0" 458 705 basechar 0
LayerCount: 2
Fore
SplineSet
103 -8 m 256,0,1
 71 -8 71 -8 57 12 c 128,-1,2
 43 32 43 32 49 68 c 2,3,-1
 141 649 l 2,4,5
 146 681 146 681 164 697 c 128,-1,6
 182 713 182 713 214 713 c 256,7,8
 246 713 246 713 259.5 693 c 128,-1,9
 273 673 273 673 267 637 c 2,10,-1
 231 411 l 1,11,-1
 594 411 l 1,12,-1
 632 649 l 2,13,14
 637 681 637 681 654.5 697 c 128,-1,15
 672 713 672 713 704 713 c 256,16,17
 736 713 736 713 750 693.5 c 128,-1,18
 764 674 764 674 758 637 c 2,19,-1
 666 57 l 2,20,21
 661 25 661 25 643.5 8.5 c 128,-1,22
 626 -8 626 -8 594 -8 c 0,23,24
 561 -8 561 -8 547.5 12 c 128,-1,25
 534 32 534 32 540 68 c 2,26,-1
 577 304 l 1,27,-1
 214 304 l 1,28,-1
 175 57 l 2,29,30
 170 25 170 25 152.5 8.5 c 128,-1,31
 135 -8 135 -8 103 -8 c 256,0,1
EndSplineSet
EndChar

StartChar: Hbar
Encoding: 294 294 82
Width: 817
GlyphClass: 1
Flags: W
LayerCount: 2
Fore
SplineSet
126 -8 m 0,0,1
 95 -8 95 -8 80 12 c 128,-1,2
 65 32 65 32 71 68 c 2,3,-1
 145 536 l 1,4,-1
 165 511 l 1,5,-1
 105 511 l 2,6,7
 54 511 54 511 54 549 c 0,8,9
 54 575 54 575 69.5 590 c 128,-1,10
 85 605 85 605 111 605 c 2,11,-1
 181 605 l 1,12,-1
 151 574 l 1,13,-1
 163 649 l 2,14,15
 168 681 168 681 186 697 c 128,-1,16
 204 713 204 713 236 713 c 0,17,18
 266 713 266 713 281 694 c 128,-1,19
 296 675 296 675 290 640 c 2,20,-1
 277 565 l 1,21,-1
 256 605 l 1,22,-1
 672 605 l 1,23,-1
 640 570 l 1,24,-1
 653 650 l 2,25,26
 658 682 658 682 676.5 697.5 c 128,-1,27
 695 713 695 713 727 713 c 0,28,29
 757 713 757 713 771 694 c 128,-1,30
 785 675 785 675 780 640 c 2,31,-1
 768 564 l 1,32,-1
 749 605 l 1,33,-1
 809 605 l 2,34,35
 860 605 860 605 860 567 c 0,36,37
 860 541 860 541 844.5 526 c 128,-1,38
 829 511 829 511 803 511 c 2,39,-1
 734 511 l 1,40,-1
 763 539 l 1,41,-1
 687 57 l 2,42,43
 682 25 682 25 665 8.5 c 128,-1,44
 648 -8 648 -8 616 -8 c 0,45,46
 585 -8 585 -8 570 12 c 128,-1,47
 555 32 555 32 561 68 c 2,48,-1
 597 294 l 1,49,-1
 235 294 l 1,50,-1
 197 57 l 2,51,52
 192 25 192 25 175 8.5 c 128,-1,53
 158 -8 158 -8 126 -8 c 0,0,1
252 401 m 1,54,-1
 614 401 l 1,55,-1
 632 511 l 1,56,-1
 269 511 l 1,57,-1
 252 401 l 1,54,-1
EndSplineSet
EndChar

StartChar: I
Encoding: 73 73 86
Width: 282
GlyphClass: 2
Flags: W
AnchorPoint: "Anchor-3" 138 0 basechar 0
AnchorPoint: "Anchor-2" 102 0 basechar 0
AnchorPoint: "Anchor-0" 214 705 basechar 0
LayerCount: 2
Fore
SplineSet
104 -8 m 0,0,1
 71 -8 71 -8 57 12 c 128,-1,2
 43 32 43 32 49 68 c 2,3,-1
 141 649 l 2,4,5
 146 681 146 681 164 697 c 128,-1,6
 182 713 182 713 214 713 c 256,7,8
 246 713 246 713 259.5 693.5 c 128,-1,9
 273 674 273 674 267 637 c 2,10,-1
 175 57 l 2,11,12
 170 25 170 25 153 8.5 c 128,-1,13
 136 -8 136 -8 104 -8 c 0,0,1
EndSplineSet
EndChar

StartChar: Iogonek
Encoding: 302 302 100
Width: 282
GlyphClass: 1
Flags: W
LayerCount: 2
Fore
SplineSet
99 -195 m 0,0,1
 45 -195 45 -195 18.5 -168.5 c 128,-1,2
 -8 -142 -8 -142 -8 -103 c 0,3,4
 -8 -65 -8 -65 9.5 -35 c 128,-1,5
 27 -5 27 -5 60 18 c 1,6,-1
 65 3 l 1,7,8
 54 12 54 12 49.5 29 c 128,-1,9
 45 46 45 46 49 68 c 2,10,-1
 141 649 l 2,11,12
 146 681 146 681 164 697 c 128,-1,13
 182 713 182 713 214 713 c 256,14,15
 246 713 246 713 259.5 693.5 c 128,-1,16
 273 674 273 674 267 637 c 2,17,-1
 175 57 l 2,18,19
 171 34 171 34 161.5 19 c 128,-1,20
 152 4 152 4 135 -3 c 0,21,22
 105 -15 105 -15 88 -35 c 128,-1,23
 71 -55 71 -55 71 -81 c 0,24,25
 71 -102 71 -102 85 -115 c 128,-1,26
 99 -128 99 -128 122 -128 c 0,27,28
 130 -128 130 -128 138 -127 c 128,-1,29
 146 -126 146 -126 156 -123 c 0,30,31
 172 -118 172 -118 180.5 -125 c 128,-1,32
 189 -132 189 -132 190.5 -144.5 c 128,-1,33
 192 -157 192 -157 186.5 -168 c 128,-1,34
 181 -179 181 -179 169 -184 c 0,35,36
 154 -189 154 -189 135.5 -192 c 128,-1,37
 117 -195 117 -195 99 -195 c 0,0,1
EndSplineSet
EndChar

StartChar: J
Encoding: 74 74 102
Width: 354
GlyphClass: 2
Flags: W
AnchorPoint: "Anchor-2" 175 0 basechar 0
AnchorPoint: "Anchor-0" 286 705 basechar 0
LayerCount: 2
Fore
SplineSet
14 -7 m 2,0,1
 -14 -8 -14 -8 -30 5.5 c 128,-1,2
 -46 19 -46 19 -45 44 c 0,3,4
 -44 70 -44 70 -32 83.5 c 128,-1,5
 -20 97 -20 97 5 98 c 2,6,-1
 36 100 l 2,7,8
 83 103 83 103 109 129 c 128,-1,9
 135 155 135 155 143 207 c 2,10,-1
 214 654 l 2,11,12
 219 684 219 684 236 698.5 c 128,-1,13
 253 713 253 713 283 713 c 0,14,15
 315 713 315 713 330 694.5 c 128,-1,16
 345 676 345 676 340 643 c 2,17,-1
 269 196 l 2,18,19
 259 134 259 134 234 91 c 128,-1,20
 209 48 209 48 163 24 c 128,-1,21
 117 0 117 0 44 -5 c 2,22,-1
 14 -7 l 2,0,1
EndSplineSet
EndChar

StartChar: K
Encoding: 75 75 104
Width: 664
GlyphClass: 2
Flags: W
AnchorPoint: "Anchor-2" 300 0 basechar 0
AnchorPoint: "Anchor-0" 404 705 basechar 0
LayerCount: 2
Fore
SplineSet
103 -8 m 0,0,1
 72 -8 72 -8 57 11.5 c 128,-1,2
 42 31 42 31 48 67 c 2,3,-1
 141 650 l 2,4,5
 146 682 146 682 164 697.5 c 128,-1,6
 182 713 182 713 213 713 c 256,7,8
 244 713 244 713 258 693.5 c 128,-1,9
 272 674 272 674 267 639 c 2,10,-1
 228 393 l 1,11,-1
 230 393 l 1,12,-1
 560 683 l 2,13,14
 577 698 577 698 590.5 705.5 c 128,-1,15
 604 713 604 713 623 713 c 0,16,17
 648 713 648 713 662.5 698 c 128,-1,18
 677 683 677 683 676.5 662 c 128,-1,19
 676 641 676 641 656 624 c 2,20,-1
 326 334 l 1,21,-1
 322 393 l 1,22,-1
 588 78 l 2,23,24
 604 60 604 60 602 40 c 128,-1,25
 600 20 600 20 585 6 c 128,-1,26
 570 -8 570 -8 545 -8 c 0,27,28
 522 -8 522 -8 508.5 2 c 128,-1,29
 495 12 495 12 475 34 c 2,30,-1
 220 329 l 1,31,-1
 218 329 l 1,32,-1
 175 54 l 2,33,34
 170 23 170 23 152.5 7.5 c 128,-1,35
 135 -8 135 -8 103 -8 c 0,0,1
EndSplineSet
EndChar

StartChar: L
Encoding: 76 76 106
Width: 562
GlyphClass: 2
Flags: W
AnchorPoint: "Anchor-5" 208 387 basechar 0
AnchorPoint: "Anchor-2" 273 0 basechar 0
AnchorPoint: "Anchor-1" 385 705 basechar 0
AnchorPoint: "Anchor-0" 213 705 basechar 0
LayerCount: 2
Fore
SplineSet
109 0 m 2,0,1
 75 0 75 0 59.5 18.5 c 128,-1,2
 44 37 44 37 49 71 c 2,3,-1
 142 654 l 2,4,5
 147 684 147 684 164 698.5 c 128,-1,6
 181 713 181 713 211 713 c 0,7,8
 243 713 243 713 258 694.5 c 128,-1,9
 273 676 273 676 268 643 c 2,10,-1
 184 109 l 1,11,-1
 463 109 l 2,12,13
 491 109 491 109 506 97.5 c 128,-1,14
 521 86 521 86 521 65 c 0,15,16
 521 34 521 34 503.5 17 c 128,-1,17
 486 0 486 0 456 0 c 2,18,-1
 109 0 l 2,0,1
EndSplineSet
EndChar

StartChar: M
Encoding: 77 77 116
Width: 869
GlyphClass: 2
Flags: W
AnchorPoint: "Anchor-2" 403 0 basechar 0
AnchorPoint: "Anchor-0" 508 705 basechar 0
LayerCount: 2
Fore
SplineSet
102 -5 m 0,0,1
 71 -5 71 -5 58.5 12 c 128,-1,2
 46 29 46 29 50 59 c 2,3,-1
 145 658 l 2,4,5
 150 686 150 686 165.5 699.5 c 128,-1,6
 181 713 181 713 208 713 c 0,7,8
 232 713 232 713 245.5 702.5 c 128,-1,9
 259 692 259 692 269 666 c 2,10,-1
 439 214 l 1,11,-1
 410 214 l 1,12,-1
 732 676 l 2,13,14
 746 696 746 696 762 704.5 c 128,-1,15
 778 713 778 713 802 713 c 0,16,17
 831 713 831 713 844.5 696 c 128,-1,18
 858 679 858 679 853 649 c 2,19,-1
 758 50 l 2,20,21
 754 23 754 23 738.5 9 c 128,-1,22
 723 -5 723 -5 695 -5 c 256,23,24
 667 -5 667 -5 653 12 c 128,-1,25
 639 29 639 29 643 59 c 2,26,-1
 716 519 l 1,27,-1
 739 519 l 1,28,-1
 466 128 l 2,29,30
 455 112 455 112 443.5 105.5 c 128,-1,31
 432 99 432 99 415 99 c 0,32,33
 396 99 396 99 384.5 108 c 128,-1,34
 373 117 373 117 365 136 c 2,35,-1
 216 515 l 1,36,-1
 238 515 l 1,37,-1
 164 50 l 2,38,39
 160 23 160 23 144.5 9 c 128,-1,40
 129 -5 129 -5 102 -5 c 0,0,1
EndSplineSet
EndChar

StartChar: N
Encoding: 78 78 118
Width: 747
GlyphClass: 2
Flags: W
AnchorPoint: "Anchor-2" 346 0 basechar 0
AnchorPoint: "Anchor-0" 445 705 basechar 0
LayerCount: 2
Fore
SplineSet
100 -8 m 0,0,1
 72 -8 72 -8 57.5 10.5 c 128,-1,2
 43 29 43 29 48 63 c 2,3,-1
 143 659 l 2,4,5
 148 687 148 687 163.5 700 c 128,-1,6
 179 713 179 713 202 713 c 0,7,8
 227 713 227 713 239.5 703.5 c 128,-1,9
 252 694 252 694 265 673 c 2,10,-1
 564 166 l 1,11,-1
 539 166 l 1,12,-1
 616 654 l 2,13,14
 621 684 621 684 638 698.5 c 128,-1,15
 655 713 655 713 685 713 c 0,16,17
 713 713 713 713 725.5 694.5 c 128,-1,18
 738 676 738 676 733 643 c 2,19,-1
 639 48 l 2,20,21
 635 20 635 20 621 6 c 128,-1,22
 607 -8 607 -8 584 -8 c 0,23,24
 559 -8 559 -8 544 2 c 128,-1,25
 529 12 529 12 516 34 c 2,26,-1
 217 539 l 1,27,-1
 242 539 l 1,28,-1
 165 51 l 2,29,30
 161 21 161 21 145.5 6.5 c 128,-1,31
 130 -8 130 -8 100 -8 c 0,0,1
EndSplineSet
EndChar

StartChar: Eng
Encoding: 330 330 128
Width: 747
GlyphClass: 2
Flags: W
AnchorPoint: "Anchor-2" 335 0 basechar 0
AnchorPoint: "Anchor-0" 446 705 basechar 0
LayerCount: 2
Fore
SplineSet
413 -191 m 0,0,1
 393 -191 393 -191 381.5 -182 c 128,-1,2
 370 -173 370 -173 365.5 -159.5 c 128,-1,3
 361 -146 361 -146 364.5 -132 c 128,-1,4
 368 -118 368 -118 379 -108.5 c 128,-1,5
 390 -99 390 -99 408 -98 c 0,6,7
 449 -96 449 -96 476.5 -74.5 c 128,-1,8
 504 -53 504 -53 511 -7 c 2,9,-1
 520 49 l 1,10,-1
 536 0 l 1,11,-1
 217 539 l 1,12,-1
 242 539 l 1,13,-1
 165 51 l 2,14,15
 161 21 161 21 145.5 6.5 c 128,-1,16
 130 -8 130 -8 100 -8 c 0,17,18
 72 -8 72 -8 57.5 10.5 c 128,-1,19
 43 29 43 29 48 63 c 2,20,-1
 143 658 l 2,21,22
 148 686 148 686 163.5 699.5 c 128,-1,23
 179 713 179 713 202 713 c 0,24,25
 227 713 227 713 239.5 703.5 c 128,-1,26
 252 694 252 694 265 673 c 2,27,-1
 563 166 l 1,28,-1
 539 166 l 1,29,-1
 616 654 l 2,30,31
 621 684 621 684 637.5 698.5 c 128,-1,32
 654 713 654 713 684 713 c 0,33,34
 712 713 712 713 725 694.5 c 128,-1,35
 738 676 738 676 733 643 c 2,36,-1
 632 7 l 2,37,38
 616 -93 616 -93 564 -142 c 128,-1,39
 512 -191 512 -191 413 -191 c 0,0,1
EndSplineSet
EndChar

StartChar: O
Encoding: 79 79 129
Width: 785
GlyphClass: 2
Flags: W
AnchorPoint: "Anchor-5" 410 353 basechar 0
AnchorPoint: "Anchor-3" 428 0 basechar 0
AnchorPoint: "Anchor-2" 363 0 basechar 0
AnchorPoint: "Anchor-1" 509 705 basechar 0
AnchorPoint: "Anchor-0" 453 705 basechar 0
LayerCount: 2
Fore
SplineSet
381 -10 m 0,0,1
 287 -10 287 -10 217 26 c 128,-1,2
 147 62 147 62 108.5 131.5 c 128,-1,3
 70 201 70 201 70 299 c 0,4,5
 70 389 70 389 95.5 465 c 128,-1,6
 121 541 121 541 169 597 c 128,-1,7
 217 653 217 653 285 684 c 128,-1,8
 353 715 353 715 439 715 c 0,9,10
 534 715 534 715 603.5 679 c 128,-1,11
 673 643 673 643 711.5 574 c 128,-1,12
 750 505 750 505 750 407 c 0,13,14
 750 316 750 316 724.5 240 c 128,-1,15
 699 164 699 164 651 108 c 128,-1,16
 603 52 603 52 535 21 c 128,-1,17
 467 -10 467 -10 381 -10 c 0,0,1
383 100 m 0,18,19
 458 100 458 100 510 139.5 c 128,-1,20
 562 179 562 179 589 248 c 128,-1,21
 616 317 616 317 616 405 c 0,22,23
 616 506 616 506 568 555.5 c 128,-1,24
 520 605 520 605 436 605 c 0,25,26
 362 605 362 605 310 566 c 128,-1,27
 258 527 258 527 231 458.5 c 128,-1,28
 204 390 204 390 204 301 c 0,29,30
 204 199 204 199 252 149.5 c 128,-1,31
 300 100 300 100 383 100 c 0,18,19
EndSplineSet
Substitution2: "Single Substitution lookup 29 subtable" ordmasculine
Substitution2: "'aalt' Access All Alternates lookup 0 subtable" ordmasculine
EndChar

StartChar: OE
Encoding: 338 338 163
Width: 1056
GlyphClass: 2
Flags: W
AnchorPoint: "Anchor-2" 559 0 basechar 0
AnchorPoint: "Anchor-0" 671 705 basechar 0
LayerCount: 2
Fore
SplineSet
421 0 m 2,0,1
 253 0 253 0 162.5 79.5 c 128,-1,2
 72 159 72 159 71 301 c 0,3,4
 71 390 71 390 95.5 463.5 c 128,-1,5
 120 537 120 537 171 591.5 c 128,-1,6
 222 646 222 646 299 675.5 c 128,-1,7
 376 705 376 705 479 705 c 2,8,-1
 1024 705 l 2,9,10
 1050 705 1050 705 1064 694.5 c 128,-1,11
 1078 684 1078 684 1078 664 c 0,12,13
 1078 635 1078 635 1061.5 619 c 128,-1,14
 1045 603 1045 603 1018 603 c 2,15,-1
 716 603 l 1,16,-1
 685 409 l 1,17,-1
 957 409 l 2,18,19
 983 409 983 409 996.5 398.5 c 128,-1,20
 1010 388 1010 388 1010 368 c 0,21,22
 1010 339 1010 339 993.5 323 c 128,-1,23
 977 307 977 307 950 307 c 2,24,-1
 670 307 l 1,25,-1
 637 102 l 1,26,-1
 929 102 l 2,27,28
 955 102 955 102 969 91.5 c 128,-1,29
 983 81 983 81 983 61 c 0,30,31
 983 32 983 32 966.5 16 c 128,-1,32
 950 0 950 0 923 0 c 2,33,-1
 421 0 l 2,0,1
422 106 m 2,34,-1
 515 106 l 1,35,-1
 593 599 l 1,36,-1
 477 599 l 2,37,38
 405 599 405 599 353.5 577 c 128,-1,39
 302 555 302 555 269 515 c 128,-1,40
 236 475 236 475 220.5 421 c 128,-1,41
 205 367 205 367 205 303 c 0,42,43
 205 208 205 208 259.5 157 c 128,-1,44
 314 106 314 106 422 106 c 2,34,-1
EndSplineSet
EndChar

StartChar: P
Encoding: 80 80 164
Width: 652
GlyphClass: 2
Flags: W
AnchorPoint: "Anchor-2" 293 0 basechar 0
AnchorPoint: "Anchor-0" 404 705 basechar 0
LayerCount: 2
Fore
SplineSet
103 -8 m 0,0,1
 72 -8 72 -8 58 12 c 128,-1,2
 44 32 44 32 49 67 c 2,3,-1
 140 642 l 2,4,5
 145 674 145 674 164 689.5 c 128,-1,6
 183 705 183 705 214 705 c 2,7,-1
 424 705 l 2,8,9
 541 705 541 705 602 654.5 c 128,-1,10
 663 604 663 604 663 509 c 0,11,12
 663 394 663 394 592 329 c 128,-1,13
 521 264 521 264 386 264 c 2,14,-1
 208 264 l 1,15,-1
 175 56 l 2,16,17
 170 24 170 24 152.5 8 c 128,-1,18
 135 -8 135 -8 103 -8 c 0,0,1
224 365 m 1,19,-1
 392 365 l 2,20,21
 464 365 464 365 501.5 399.5 c 128,-1,22
 539 434 539 434 539 499 c 0,23,24
 539 553 539 553 506.5 578.5 c 128,-1,25
 474 604 474 604 409 604 c 2,26,-1
 262 604 l 1,27,-1
 224 365 l 1,19,-1
EndSplineSet
EndChar

StartChar: Thorn
Encoding: 222 222 165
Width: 654
GlyphClass: 2
Flags: W
AnchorPoint: "Anchor-2" 295 0 basechar 0
AnchorPoint: "Anchor-0" 406 705 basechar 0
LayerCount: 2
Fore
SplineSet
102 -8 m 0,0,1
 71 -8 71 -8 57 12 c 128,-1,2
 43 32 43 32 49 68 c 2,3,-1
 140 644 l 2,4,5
 145 676 145 676 164 692 c 128,-1,6
 183 708 183 708 215 708 c 0,7,8
 245 708 245 708 260 692.5 c 128,-1,9
 275 677 275 677 270 651 c 2,10,-1
 259 587 l 1,11,-1
 406 587 l 2,12,13
 523 587 523 587 584.5 536.5 c 128,-1,14
 646 486 646 486 646 392 c 0,15,16
 646 277 646 277 574.5 211.5 c 128,-1,17
 503 146 503 146 368 146 c 2,18,-1
 189 146 l 1,19,-1
 175 56 l 2,20,21
 170 24 170 24 152 8 c 128,-1,22
 134 -8 134 -8 102 -8 c 0,0,1
205 247 m 1,23,-1
 375 247 l 2,24,25
 447 247 447 247 484.5 281.5 c 128,-1,26
 522 316 522 316 522 381 c 0,27,28
 522 436 522 436 489.5 461 c 128,-1,29
 457 486 457 486 392 486 c 2,30,-1
 243 486 l 1,31,-1
 205 247 l 1,23,-1
EndSplineSet
EndChar

StartChar: Q
Encoding: 81 81 166
Width: 785
GlyphClass: 2
Flags: W
AnchorPoint: "Anchor-5" 410 353 basechar 0
AnchorPoint: "Anchor-3" 428 0 basechar 0
AnchorPoint: "Anchor-2" 363 0 basechar 0
AnchorPoint: "Anchor-1" 509 705 basechar 0
AnchorPoint: "Anchor-0" 453 705 basechar 0
LayerCount: 2
Fore
SplineSet
623 -118 m 2,0,1
 635 -142 635 -142 630.5 -161 c 128,-1,2
 626 -180 626 -180 611.5 -191 c 128,-1,3
 597 -202 597 -202 578.5 -204 c 128,-1,4
 560 -206 560 -206 542.5 -196.5 c 128,-1,5
 525 -187 525 -187 514 -164 c 2,6,-1
 468 -63 l 2,7,8
 455 -35 455 -35 432 -22.5 c 128,-1,9
 409 -10 409 -10 367 -10 c 1,10,-1
 471 29 l 1,11,12
 514 28 514 28 542 12 c 128,-1,13
 570 -4 570 -4 589 -45 c 2,14,-1
 623 -118 l 2,0,1
381 -10 m 0,15,16
 287 -10 287 -10 217 26 c 128,-1,17
 147 62 147 62 108.5 131.5 c 128,-1,18
 70 201 70 201 70 299 c 0,19,20
 70 389 70 389 95.5 465 c 128,-1,21
 121 541 121 541 169 597 c 128,-1,22
 217 653 217 653 285 684 c 128,-1,23
 353 715 353 715 439 715 c 0,24,25
 534 715 534 715 603.5 679 c 128,-1,26
 673 643 673 643 711.5 574 c 128,-1,27
 750 505 750 505 750 407 c 0,28,29
 750 316 750 316 724.5 240 c 128,-1,30
 699 164 699 164 651 108 c 128,-1,31
 603 52 603 52 535 21 c 128,-1,32
 467 -10 467 -10 381 -10 c 0,15,16
383 100 m 0,33,34
 458 100 458 100 510 139.5 c 128,-1,35
 562 179 562 179 589 248 c 128,-1,36
 616 317 616 317 616 405 c 0,37,38
 616 506 616 506 568 555.5 c 128,-1,39
 520 605 520 605 436 605 c 0,40,41
 362 605 362 605 310 566 c 128,-1,42
 258 527 258 527 231 458.5 c 128,-1,43
 204 390 204 390 204 301 c 0,44,45
 204 199 204 199 252 149.5 c 128,-1,46
 300 100 300 100 383 100 c 0,33,34
EndSplineSet
EndChar

StartChar: R
Encoding: 82 82 167
Width: 686
GlyphClass: 2
Flags: W
AnchorPoint: "Anchor-2" 316 0 basechar 0
AnchorPoint: "Anchor-0" 408 705 basechar 0
LayerCount: 2
Fore
SplineSet
102 -8 m 0,0,1
 72 -8 72 -8 57.5 12 c 128,-1,2
 43 32 43 32 49 68 c 2,3,-1
 140 641 l 2,4,5
 145 673 145 673 164 689 c 128,-1,6
 183 705 183 705 215 705 c 2,7,-1
 425 705 l 2,8,9
 542 705 542 705 602.5 653 c 128,-1,10
 663 601 663 601 663 510 c 0,11,12
 663 433 663 433 628.5 383 c 128,-1,13
 594 333 594 333 533.5 308.5 c 128,-1,14
 473 284 473 284 396 285 c 1,15,-1
 396 300 l 1,16,-1
 422 300 l 2,17,18
 469 300 469 300 499 273.5 c 128,-1,19
 529 247 529 247 547 200 c 2,20,-1
 595 75 l 2,21,22
 605 49 605 49 602.5 30.5 c 128,-1,23
 600 12 600 12 585 2 c 128,-1,24
 570 -8 570 -8 543 -8 c 0,25,26
 517 -8 517 -8 501.5 5.5 c 128,-1,27
 486 19 486 19 475 48 c 2,28,-1
 411 216 l 2,29,30
 398 252 398 252 376 267 c 128,-1,31
 354 282 354 282 314 282 c 2,32,-1
 211 282 l 1,33,-1
 176 56 l 2,34,35
 171 24 171 24 152.5 8 c 128,-1,36
 134 -8 134 -8 102 -8 c 0,0,1
226 377 m 1,37,-1
 396 377 l 2,38,39
 464 377 464 377 501.5 408.5 c 128,-1,40
 539 440 539 440 539 500 c 0,41,42
 539 552 539 552 507 578 c 128,-1,43
 475 604 475 604 406 604 c 2,44,-1
 262 604 l 1,45,-1
 226 377 l 1,37,-1
EndSplineSet
EndChar

StartChar: S
Encoding: 83 83 175
Width: 631
GlyphClass: 2
Flags: W
AnchorPoint: "Anchor-2" 301 0 basechar 0
AnchorPoint: "Anchor-0" 379 705 basechar 0
LayerCount: 2
Fore
SplineSet
300 -10 m 0,0,1
 258 -10 258 -10 216 -4 c 128,-1,2
 174 2 174 2 134.5 15.5 c 128,-1,3
 95 29 95 29 60 49 c 0,4,5
 41 60 41 60 34.5 76.5 c 128,-1,6
 28 93 28 93 31 110 c 128,-1,7
 34 127 34 127 45 139.5 c 128,-1,8
 56 152 56 152 73 155 c 128,-1,9
 90 158 90 158 111 146 c 0,10,11
 158 120 158 120 209.5 109 c 128,-1,12
 261 98 261 98 312 98 c 0,13,14
 382 98 382 98 422.5 125 c 128,-1,15
 463 152 463 152 463 196 c 0,16,17
 463 229 463 229 439 251.5 c 128,-1,18
 415 274 415 274 357 287 c 2,19,-1
 248 313 l 2,20,21
 175 330 175 330 132 374.5 c 128,-1,22
 89 419 89 419 89 493 c 0,23,24
 89 545 89 545 111 586 c 128,-1,25
 133 627 133 627 172 656 c 128,-1,26
 211 685 211 685 261.5 700 c 128,-1,27
 312 715 312 715 369 715 c 0,28,29
 422 715 422 715 482 700.5 c 128,-1,30
 542 686 542 686 591 653 c 0,31,32
 608 642 608 642 614 625.5 c 128,-1,33
 620 609 620 609 617 592.5 c 128,-1,34
 614 576 614 576 603 565 c 128,-1,35
 592 554 592 554 574 552.5 c 128,-1,36
 556 551 556 551 532 565 c 0,37,38
 497 586 497 586 453 596.5 c 128,-1,39
 409 607 409 607 367 607 c 0,40,41
 323 607 323 607 288.5 594 c 128,-1,42
 254 581 254 581 235 558 c 128,-1,43
 216 535 216 535 216 504 c 0,44,45
 216 466 216 466 238 446 c 128,-1,46
 260 426 260 426 303 415 c 2,47,-1
 412 389 l 2,48,49
 501 368 501 368 545.5 322 c 128,-1,50
 590 276 590 276 590 211 c 0,51,52
 590 156 590 156 567 114.5 c 128,-1,53
 544 73 544 73 503.5 45.5 c 128,-1,54
 463 18 463 18 411 4 c 128,-1,55
 359 -10 359 -10 300 -10 c 0,0,1
EndSplineSet
EndChar

StartChar: uni1E9E
Encoding: 7838 7838 186
Width: 730
GlyphClass: 1
Flags: W
LayerCount: 2
Fore
SplineSet
422 -10 m 0,0,1
 379 -10 379 -10 338 0.5 c 128,-1,2
 297 11 297 11 262 32 c 0,3,4
 246 42 246 42 240.5 57 c 128,-1,5
 235 72 235 72 238.5 87 c 128,-1,6
 242 102 242 102 252 113 c 128,-1,7
 262 124 262 124 277 127.5 c 128,-1,8
 292 131 292 131 309 121 c 0,9,10
 337 105 337 105 364 99.5 c 128,-1,11
 391 94 391 94 419 94 c 0,12,13
 480 94 480 94 513 125 c 128,-1,14
 546 156 546 156 546 209 c 0,15,16
 546 252 546 252 515.5 277.5 c 128,-1,17
 485 303 485 303 421 303 c 2,18,-1
 356 303 l 2,19,20
 338 303 338 303 326 313.5 c 128,-1,21
 314 324 314 324 314 342 c 0,22,23
 314 371 314 371 327 387 c 128,-1,24
 340 403 340 403 366 403 c 2,25,-1
 427 403 l 2,26,27
 489 403 489 403 523.5 431 c 128,-1,28
 558 459 558 459 558 516 c 0,29,30
 558 557 558 557 523.5 583.5 c 128,-1,31
 489 610 489 610 423 610 c 0,32,33
 338 610 338 610 294 570.5 c 128,-1,34
 250 531 250 531 237 449 c 2,35,-1
 174 53 l 2,36,37
 170 23 170 23 152.5 7.5 c 128,-1,38
 135 -8 135 -8 104 -8 c 256,39,40
 73 -8 73 -8 58 10.5 c 128,-1,41
 43 29 43 29 48 63 c 2,42,-1
 111 461 l 2,43,44
 126 553 126 553 167 608.5 c 128,-1,45
 208 664 208 664 275 689.5 c 128,-1,46
 342 715 342 715 434 715 c 0,47,48
 515 715 515 715 570 690.5 c 128,-1,49
 625 666 625 666 653.5 624.5 c 128,-1,50
 682 583 682 583 682 533 c 0,51,52
 682 464 682 464 638.5 414.5 c 128,-1,53
 595 365 595 365 526 351 c 1,54,-1
 526 367 l 1,55,56
 572 359 572 359 603.5 335 c 128,-1,57
 635 311 635 311 652 275.5 c 128,-1,58
 669 240 669 240 669 199 c 0,59,60
 669 140 669 140 641 92.5 c 128,-1,61
 613 45 613 45 558 17.5 c 128,-1,62
 503 -10 503 -10 422 -10 c 0,0,1
EndSplineSet
EndChar

StartChar: T
Encoding: 84 84 187
Width: 621
GlyphClass: 2
Flags: W
AnchorPoint: "Anchor-5" 329 358 basechar 0
AnchorPoint: "Anchor-2" 273 0 basechar 0
AnchorPoint: "Anchor-0" 382 705 basechar 0
LayerCount: 2
Fore
SplineSet
273 -8 m 0,0,1
 242 -8 242 -8 228 12 c 128,-1,2
 214 32 214 32 219 67 c 2,3,-1
 303 598 l 1,4,-1
 118 598 l 2,5,6
 91 598 91 598 76 610 c 128,-1,7
 61 622 61 622 61 642 c 0,8,9
 61 672 61 672 78.5 688.5 c 128,-1,10
 96 705 96 705 125 705 c 2,11,-1
 633 705 l 2,12,13
 660 705 660 705 675 694 c 128,-1,14
 690 683 690 683 690 662 c 0,15,16
 690 632 690 632 673 615 c 128,-1,17
 656 598 656 598 626 598 c 2,18,-1
 431 598 l 1,19,-1
 345 56 l 2,20,21
 340 25 340 25 322.5 8.5 c 128,-1,22
 305 -8 305 -8 273 -8 c 0,0,1
EndSplineSet
EndChar

StartChar: U
Encoding: 85 85 194
Width: 738
GlyphClass: 2
Flags: W
AnchorPoint: "Anchor-3" 401 0 basechar 0
AnchorPoint: "Anchor-2" 331 0 basechar 0
AnchorPoint: "Anchor-1" 640 705 basechar 0
AnchorPoint: "Anchor-0" 441 705 basechar 0
LayerCount: 2
Fore
SplineSet
341 -10 m 0,0,1
 274 -10 274 -10 220.5 9.5 c 128,-1,2
 167 29 167 29 131.5 68.5 c 128,-1,3
 96 108 96 108 82.5 167.5 c 128,-1,4
 69 227 69 227 82 307 c 2,5,-1
 137 653 l 2,6,7
 142 684 142 684 159.5 698.5 c 128,-1,8
 177 713 177 713 207 713 c 0,9,10
 239 713 239 713 253.5 695 c 128,-1,11
 268 677 268 677 263 642 c 2,12,-1
 209 298 l 2,13,14
 194 201 194 201 229.5 150.5 c 128,-1,15
 265 100 265 100 350 100 c 0,16,17
 432 100 432 100 479.5 142.5 c 128,-1,18
 527 185 527 185 542 277 c 2,19,-1
 602 653 l 2,20,21
 607 684 607 684 624.5 698.5 c 128,-1,22
 642 713 642 713 672 713 c 0,23,24
 703 713 703 713 717.5 695 c 128,-1,25
 732 677 732 677 727 642 c 2,26,-1
 670 279 l 2,27,28
 655 185 655 185 615.5 120.5 c 128,-1,29
 576 56 576 56 508.5 23 c 128,-1,30
 441 -10 441 -10 341 -10 c 0,0,1
EndSplineSet
EndChar

StartChar: V
Encoding: 86 86 217
Width: 713
GlyphClass: 2
Flags: W
AnchorPoint: "Anchor-2" 318 0 basechar 0
AnchorPoint: "Anchor-0" 428 705 basechar 0
LayerCount: 2
Fore
SplineSet
320 -8 m 0,0,1
 292 -8 292 -8 275 6.5 c 128,-1,2
 258 21 258 21 250 49 c 2,3,-1
 85 626 l 2,4,5
 79 650 79 650 84.5 667.5 c 128,-1,6
 90 685 90 685 105 695 c 128,-1,7
 120 705 120 705 141 705 c 0,8,9
 165 705 165 705 181 693 c 128,-1,10
 197 681 197 681 205 649 c 2,11,-1
 350 114 l 1,12,-1
 307 114 l 1,13,-1
 629 660 l 2,14,15
 643 684 643 684 659 694.5 c 128,-1,16
 675 705 675 705 700 705 c 0,17,18
 726 705 726 705 740.5 693 c 128,-1,19
 755 681 755 681 757 662 c 128,-1,20
 759 643 759 643 746 622 c 2,21,-1
 394 38 l 2,22,23
 380 14 380 14 363 3 c 128,-1,24
 346 -8 346 -8 320 -8 c 0,0,1
EndSplineSet
EndChar

StartChar: W
Encoding: 87 87 218
Width: 1113
GlyphClass: 2
Flags: W
AnchorPoint: "Anchor-2" 518 0 basechar 0
AnchorPoint: "Anchor-0" 627 705 basechar 0
LayerCount: 2
Fore
SplineSet
284 -8 m 0,0,1
 258 -8 258 -8 243 7 c 128,-1,2
 228 22 228 22 222 52 c 2,3,-1
 108 636 l 2,4,5
 101 671 101 671 117.5 692 c 128,-1,6
 134 713 134 713 167 713 c 0,7,8
 192 713 192 713 207.5 698.5 c 128,-1,9
 223 684 223 684 228 654 c 2,10,-1
 323 127 l 1,11,-1
 283 127 l 1,12,-1
 557 665 l 2,13,14
 570 690 570 690 586.5 701.5 c 128,-1,15
 603 713 603 713 627 713 c 0,16,17
 650 713 650 713 663.5 698.5 c 128,-1,18
 677 684 677 684 683 652 c 2,19,-1
 779 127 l 1,20,-1
 743 127 l 1,21,-1
 1014 666 l 2,22,23
 1026 690 1026 690 1041 701.5 c 128,-1,24
 1056 713 1056 713 1081 713 c 0,25,26
 1118 713 1118 713 1131 689 c 128,-1,27
 1144 665 1144 665 1126 630 c 2,28,-1
 824 40 l 2,29,30
 811 15 811 15 793.5 3.5 c 128,-1,31
 776 -8 776 -8 749 -8 c 0,32,33
 723 -8 723 -8 708 7 c 128,-1,34
 693 22 693 22 687 52 c 2,35,-1
 593 541 l 1,36,-1
 616 541 l 1,37,-1
 359 40 l 2,38,39
 346 15 346 15 329 3.5 c 128,-1,40
 312 -8 312 -8 284 -8 c 0,0,1
EndSplineSet
EndChar

StartChar: X
Encoding: 88 88 223
Width: 672
GlyphClass: 2
Flags: W
AnchorPoint: "Anchor-2" 297 0 basechar 0
AnchorPoint: "Anchor-0" 408 705 basechar 0
LayerCount: 2
Fore
SplineSet
67 -8 m 0,0,1
 42 -8 42 -8 27.5 6.5 c 128,-1,2
 13 21 13 21 13 42.5 c 128,-1,3
 13 64 13 64 31 85 c 2,4,-1
 298 386 l 1,5,-1
 298 332 l 1,6,-1
 126 623 l 2,7,8
 113 646 113 646 115.5 666.5 c 128,-1,9
 118 687 118 687 134 700 c 128,-1,10
 150 713 150 713 175 713 c 0,11,12
 198 713 198 713 211 702.5 c 128,-1,13
 224 692 224 692 240 665 c 2,14,-1
 377 424 l 1,15,-1
 347 424 l 1,16,-1
 559 673 l 2,17,18
 578 695 578 695 593.5 704 c 128,-1,19
 609 713 609 713 631 713 c 0,20,21
 656 713 656 713 671 699 c 128,-1,22
 686 685 686 685 687 664 c 128,-1,23
 688 643 688 643 670 622 c 2,24,-1
 410 329 l 1,25,-1
 410 388 l 1,26,-1
 591 83 l 2,27,28
 605 61 605 61 601.5 40 c 128,-1,29
 598 19 598 19 582 5.5 c 128,-1,30
 566 -8 566 -8 541 -8 c 0,31,32
 518 -8 518 -8 504.5 2.5 c 128,-1,33
 491 13 491 13 475 40 c 2,34,-1
 328 294 l 1,35,-1
 363 294 l 1,36,-1
 139 32 l 2,37,38
 120 10 120 10 104.5 1 c 128,-1,39
 89 -8 89 -8 67 -8 c 0,0,1
EndSplineSet
EndChar

StartChar: Y
Encoding: 89 89 224
Width: 618
GlyphClass: 2
Flags: W
AnchorPoint: "Anchor-2" 270 0 basechar 0
AnchorPoint: "Anchor-0" 371 705 basechar 0
LayerCount: 2
Fore
SplineSet
269 -8 m 0,0,1
 238 -8 238 -8 225 12 c 128,-1,2
 212 32 212 32 217 67 c 2,3,-1
 264 363 l 1,4,-1
 278 286 l 1,5,-1
 93 622 l 2,6,7
 80 646 80 646 82.5 666.5 c 128,-1,8
 85 687 85 687 100.5 700 c 128,-1,9
 116 713 116 713 142 713 c 0,10,11
 165 713 165 713 179.5 702.5 c 128,-1,12
 194 692 194 692 209 665 c 2,13,-1
 343 417 l 1,14,-1
 315 417 l 1,15,-1
 536 673 l 2,16,17
 556 696 556 696 571 704.5 c 128,-1,18
 586 713 586 713 608 713 c 0,19,20
 633 713 633 713 647.5 699 c 128,-1,21
 662 685 662 685 662 664 c 128,-1,22
 662 643 662 643 644 622 c 2,23,-1
 352 286 l 1,24,-1
 392 363 l 1,25,-1
 343 56 l 2,26,27
 333 -8 333 -8 269 -8 c 0,0,1
EndSplineSet
EndChar

StartChar: uni01B3
Encoding: 435 435 231
Width: 619
GlyphClass: 1
Flags: W
LayerCount: 2
Fore
SplineSet
271 -8 m 0,0,1
 238 -8 238 -8 224.5 11 c 128,-1,2
 211 30 211 30 216 64 c 2,3,-1
 264 363 l 1,4,-1
 278 286 l 1,5,-1
 93 622 l 2,6,7
 80 646 80 646 83 666.5 c 128,-1,8
 86 687 86 687 102 700 c 128,-1,9
 118 713 118 713 143 713 c 0,10,11
 158 713 158 713 169 708.5 c 128,-1,12
 180 704 180 704 189.5 694 c 128,-1,13
 199 684 199 684 209 665 c 2,14,-1
 343 417 l 1,15,-1
 315 417 l 1,16,-1
 496 625 l 2,17,18
 526 659 526 659 553 678.5 c 128,-1,19
 580 698 580 698 609.5 706.5 c 128,-1,20
 639 715 639 715 674 715 c 0,21,22
 712 715 712 715 732 705 c 128,-1,23
 752 695 752 695 752 667 c 0,24,25
 752 655 752 655 748 643.5 c 128,-1,26
 744 632 744 632 736.5 625 c 128,-1,27
 729 618 729 618 718 619 c 0,28,29
 711 620 711 620 703.5 620.5 c 128,-1,30
 696 621 696 621 689 621 c 0,31,32
 668 621 668 621 645.5 609 c 128,-1,33
 623 597 623 597 600 571 c 2,34,-1
 352 286 l 1,35,-1
 392 363 l 1,36,-1
 343 56 l 2,37,38
 332 -8 332 -8 271 -8 c 0,0,1
EndSplineSet
EndChar

StartChar: Z
Encoding: 90 90 235
Width: 605
GlyphClass: 2
Flags: W
AnchorPoint: "Anchor-2" 286 0 basechar 0
AnchorPoint: "Anchor-0" 375 705 basechar 0
LayerCount: 2
Fore
SplineSet
69 0 m 2,0,1
 48 0 48 0 34.5 10.5 c 128,-1,2
 21 21 21 21 17 38.5 c 128,-1,3
 13 56 13 56 20 78 c 128,-1,4
 27 100 27 100 48 123 c 2,5,-1
 503 639 l 1,6,-1
 505 598 l 1,7,-1
 159 598 l 2,8,9
 132 598 132 598 117.5 609.5 c 128,-1,10
 103 621 103 621 103 642 c 0,11,12
 103 673 103 673 120.5 689 c 128,-1,13
 138 705 138 705 167 705 c 2,14,-1
 576 705 l 2,15,16
 601 705 601 705 616 694.5 c 128,-1,17
 631 684 631 684 635 666.5 c 128,-1,18
 639 649 639 649 631.5 627.5 c 128,-1,19
 624 606 624 606 604 584 c 2,20,-1
 148 67 l 1,21,-1
 145 107 l 1,22,-1
 506 107 l 2,23,24
 533 107 533 107 548 96 c 128,-1,25
 563 85 563 85 563 64 c 0,26,27
 563 33 563 33 545.5 16.5 c 128,-1,28
 528 0 528 0 499 0 c 2,29,-1
 69 0 l 2,0,1
EndSplineSet
EndChar

StartChar: a
Encoding: 97 97 242
Width: 547
GlyphClass: 2
Flags: W
AnchorPoint: "Anchor-3" 411 0 basechar 0
AnchorPoint: "Anchor-2" 244 -1 basechar 0
AnchorPoint: "Anchor-0" 310 484 basechar 0
LayerCount: 2
Fore
SplineSet
193 -10 m 0,0,1
 148 -10 148 -10 111 10.5 c 128,-1,2
 74 31 74 31 51.5 65 c 128,-1,3
 29 99 29 99 29 141 c 0,4,5
 29 193 29 193 58 225.5 c 128,-1,6
 87 258 87 258 148 274 c 128,-1,7
 209 290 209 290 304 290 c 2,8,-1
 384 290 l 1,9,-1
 373 218 l 1,10,-1
 310 218 l 2,11,12
 251 218 251 218 216 212 c 128,-1,13
 181 206 181 206 166 191 c 128,-1,14
 151 176 151 176 151 149 c 0,15,16
 151 114 151 114 174.5 95 c 128,-1,17
 198 76 198 76 232 76 c 0,18,19
 264 76 264 76 290 89.5 c 128,-1,20
 316 103 316 103 334 128.5 c 128,-1,21
 352 154 352 154 357 189 c 2,22,-1
 376 308 l 2,23,24
 384 355 384 355 361.5 380 c 128,-1,25
 339 405 339 405 283 405 c 0,26,27
 250 405 250 405 219 398.5 c 128,-1,28
 188 392 188 392 155 377 c 0,29,30
 136 369 136 369 121 372 c 128,-1,31
 106 375 106 375 96.5 385.5 c 128,-1,32
 87 396 87 396 86 410.5 c 128,-1,33
 85 425 85 425 94.5 439 c 128,-1,34
 104 453 104 453 126 463 c 0,35,36
 168 482 168 482 213.5 490.5 c 128,-1,37
 259 499 259 499 299 499 c 0,38,39
 378 499 378 499 423 470 c 128,-1,40
 468 441 468 441 484 391 c 128,-1,41
 500 341 500 341 490 277 c 2,42,-1
 455 54 l 2,43,44
 451 23 451 23 433.5 7.5 c 128,-1,45
 416 -8 416 -8 387 -8 c 0,46,47
 360 -8 360 -8 346.5 9.5 c 128,-1,48
 333 27 333 27 338 61 c 2,49,-1
 348 124 l 1,50,-1
 355 104 l 1,51,52
 341 65 341 65 315.5 39.5 c 128,-1,53
 290 14 290 14 258.5 2 c 128,-1,54
 227 -10 227 -10 193 -10 c 0,0,1
EndSplineSet
Substitution2: "'ss01' Style Set 1 lookup 35 subtable" a.ss01
Substitution2: "'salt' Stylistic Alternatives lookup 34 subtable" a.ss01
Substitution2: "Single Substitution lookup 29 subtable" ordfeminine
AlternateSubs2: "'aalt' Access All Alternates lookup 1 subtable" a.ss01 ordfeminine
EndChar

StartChar: aogonek
Encoding: 261 261 265
Width: 547
GlyphClass: 1
Flags: W
LayerCount: 2
Fore
SplineSet
372 -195 m 0,0,1
 318 -195 318 -195 291.5 -168.5 c 128,-1,2
 265 -142 265 -142 265 -103 c 0,3,4
 265 -62 265 -62 285.5 -29.5 c 128,-1,5
 306 3 306 3 346 26 c 1,6,-1
 342 17 l 1,7,8
 338 26 338 26 337.5 37 c 128,-1,9
 337 48 337 48 338 61 c 2,10,-1
 348 124 l 1,11,-1
 355 104 l 1,12,13
 341 65 341 65 315.5 39.5 c 128,-1,14
 290 14 290 14 258.5 2 c 128,-1,15
 227 -10 227 -10 193 -10 c 0,16,17
 148 -10 148 -10 111 10.5 c 128,-1,18
 74 31 74 31 51.5 65 c 128,-1,19
 29 99 29 99 29 141 c 0,20,21
 29 193 29 193 58 225.5 c 128,-1,22
 87 258 87 258 148 274 c 128,-1,23
 209 290 209 290 304 290 c 2,24,-1
 384 290 l 1,25,-1
 373 218 l 1,26,-1
 310 218 l 2,27,28
 251 218 251 218 216 212 c 128,-1,29
 181 206 181 206 166 191 c 128,-1,30
 151 176 151 176 151 149 c 0,31,32
 151 114 151 114 174.5 95 c 128,-1,33
 198 76 198 76 232 76 c 0,34,35
 264 76 264 76 290 89.5 c 128,-1,36
 316 103 316 103 334 128.5 c 128,-1,37
 352 154 352 154 357 189 c 2,38,-1
 376 308 l 2,39,40
 384 355 384 355 361.5 380 c 128,-1,41
 339 405 339 405 283 405 c 0,42,43
 250 405 250 405 219 398.5 c 128,-1,44
 188 392 188 392 155 377 c 0,45,46
 136 369 136 369 121 372 c 128,-1,47
 106 375 106 375 96.5 385.5 c 128,-1,48
 87 396 87 396 86 410.5 c 128,-1,49
 85 425 85 425 94.5 439 c 128,-1,50
 104 453 104 453 126 463 c 0,51,52
 168 482 168 482 213.5 490.5 c 128,-1,53
 259 499 259 499 299 499 c 0,54,55
 378 499 378 499 423 470 c 128,-1,56
 468 441 468 441 484 391 c 128,-1,57
 500 341 500 341 490 277 c 2,58,-1
 455 54 l 2,59,60
 451 29 451 29 439 14.5 c 128,-1,61
 427 0 427 0 407 -6 c 0,62,63
 376 -16 376 -16 360 -35.5 c 128,-1,64
 344 -55 344 -55 344 -81 c 0,65,66
 344 -102 344 -102 358 -115 c 128,-1,67
 372 -128 372 -128 395 -128 c 0,68,69
 403 -128 403 -128 411 -127 c 128,-1,70
 419 -126 419 -126 429 -123 c 0,71,72
 445 -118 445 -118 453.5 -125 c 128,-1,73
 462 -132 462 -132 463.5 -144.5 c 128,-1,74
 465 -157 465 -157 459.5 -168 c 128,-1,75
 454 -179 454 -179 442 -184 c 0,76,77
 427 -189 427 -189 408.5 -192 c 128,-1,78
 390 -195 390 -195 372 -195 c 0,0,1
EndSplineSet
Substitution2: "'ss01' Style Set 1 lookup 35 subtable" aogonek.ss01
Substitution2: "'salt' Stylistic Alternatives lookup 34 subtable" aogonek.ss01
Substitution2: "'aalt' Access All Alternates lookup 0 subtable" aogonek.ss01
EndChar

StartChar: ae
Encoding: 230 230 269
Width: 865
GlyphClass: 2
Flags: W
AnchorPoint: "Anchor-2" 376 0 basechar 0
AnchorPoint: "Anchor-0" 438 484 basechar 0
LayerCount: 2
Fore
SplineSet
215 -10 m 0,0,1
 167 -10 167 -10 124.5 7 c 128,-1,2
 82 24 82 24 55.5 58 c 128,-1,3
 29 92 29 92 29 141 c 0,4,5
 29 193 29 193 58 225.5 c 128,-1,6
 87 258 87 258 148 274 c 128,-1,7
 209 290 209 290 304 290 c 2,8,-1
 384 290 l 1,9,-1
 374 218 l 1,10,-1
 311 218 l 2,11,12
 252 218 252 218 217 211.5 c 128,-1,13
 182 205 182 205 166.5 189.5 c 128,-1,14
 151 174 151 174 151 148 c 0,15,16
 151 115 151 115 174.5 96.5 c 128,-1,17
 198 78 198 78 232 78 c 0,18,19
 264 78 264 78 290 90.5 c 128,-1,20
 316 103 316 103 333.5 127 c 128,-1,21
 351 151 351 151 356 185 c 2,22,-1
 375 303 l 2,23,24
 383 353 383 353 361 379 c 128,-1,25
 339 405 339 405 283 405 c 0,26,27
 250 405 250 405 219 398.5 c 128,-1,28
 188 392 188 392 155 377 c 0,29,30
 136 369 136 369 121 372 c 128,-1,31
 106 375 106 375 96.5 385.5 c 128,-1,32
 87 396 87 396 86 410.5 c 128,-1,33
 85 425 85 425 94.5 439 c 128,-1,34
 104 453 104 453 126 463 c 0,35,36
 168 482 168 482 213.5 490.5 c 128,-1,37
 259 499 259 499 299 499 c 0,38,39
 367 499 367 499 408.5 473 c 128,-1,40
 450 447 450 447 466 397 c 1,41,-1
 434 397 l 1,42,43
 467 445 467 445 516.5 472 c 128,-1,44
 566 499 566 499 630 499 c 0,45,46
 695 499 695 499 737 476.5 c 128,-1,47
 779 454 779 454 802 417.5 c 128,-1,48
 825 381 825 381 832 338.5 c 128,-1,49
 839 296 839 296 833 256 c 2,50,-1
 831 242 l 2,51,52
 830 229 830 229 821.5 223.5 c 128,-1,53
 813 218 813 218 800 218 c 2,54,-1
 459 218 l 1,55,-1
 469 290 l 1,56,-1
 749 290 l 1,57,-1
 732 273 l 1,58,59
 738 312 738 312 729.5 344 c 128,-1,60
 721 376 721 376 696.5 395 c 128,-1,61
 672 414 672 414 628 414 c 0,62,63
 586 414 586 414 557 394 c 128,-1,64
 528 374 528 374 511 342.5 c 128,-1,65
 494 311 494 311 488 275 c 2,66,-1
 483 244 l 2,67,68
 471 170 471 170 506 127.5 c 128,-1,69
 541 85 541 85 612 85 c 0,70,71
 642 85 642 85 674 91.5 c 128,-1,72
 706 98 706 98 732 113 c 0,73,74
 751 124 751 124 765.5 122.5 c 128,-1,75
 780 121 780 121 788.5 111.5 c 128,-1,76
 797 102 797 102 799 88.5 c 128,-1,77
 801 75 801 75 794.5 60.5 c 128,-1,78
 788 46 788 46 772 35 c 0,79,80
 737 12 737 12 689 1 c 128,-1,81
 641 -10 641 -10 601 -10 c 0,82,83
 518 -10 518 -10 463.5 26.5 c 128,-1,84
 409 63 409 63 390 128 c 1,85,-1
 415 128 l 1,86,87
 393 57 393 57 337.5 23.5 c 128,-1,88
 282 -10 282 -10 215 -10 c 0,0,1
EndSplineSet
EndChar

StartChar: b
Encoding: 98 98 271
Width: 600
GlyphClass: 2
Flags: W
AnchorPoint: "Anchor-2" 268 0 basechar 0
AnchorPoint: "Anchor-0" 386 705 basechar 0
LayerCount: 2
Fore
SplineSet
318 -10 m 0,0,1
 262 -10 262 -10 218.5 17 c 128,-1,2
 175 44 175 44 158 97 c 1,3,-1
 167 122 l 1,4,-1
 157 55 l 2,5,6
 153 24 153 24 136.5 8 c 128,-1,7
 120 -8 120 -8 89 -8 c 0,8,9
 60 -8 60 -8 45.5 11.5 c 128,-1,10
 31 31 31 31 36 65 c 2,11,-1
 129 650 l 2,12,13
 134 681 134 681 152 697 c 128,-1,14
 170 713 170 713 201 713 c 0,15,16
 230 713 230 713 244 694 c 128,-1,17
 258 675 258 675 253 640 c 2,18,-1
 214 397 l 1,19,-1
 204 397 l 1,20,21
 231 445 231 445 276 472 c 128,-1,22
 321 499 321 499 379 499 c 0,23,24
 435 499 435 499 476.5 473.5 c 128,-1,25
 518 448 518 448 541 400.5 c 128,-1,26
 564 353 564 353 564 288 c 0,27,28
 564 205 564 205 534.5 137.5 c 128,-1,29
 505 70 505 70 450 30 c 128,-1,30
 395 -10 395 -10 318 -10 c 0,0,1
295 85 m 0,31,32
 341 85 341 85 372.5 111 c 128,-1,33
 404 137 404 137 421 182 c 128,-1,34
 438 227 438 227 438 282 c 0,35,36
 438 341 438 341 409.5 372.5 c 128,-1,37
 381 404 381 404 331 404 c 0,38,39
 286 404 286 404 254 378 c 128,-1,40
 222 352 222 352 205 307.5 c 128,-1,41
 188 263 188 263 188 207 c 0,42,43
 188 148 188 148 216.5 116.5 c 128,-1,44
 245 85 245 85 295 85 c 0,31,32
EndSplineSet
EndChar

StartChar: uni0253
Encoding: 595 595 272
Width: 600
GlyphClass: 1
Flags: W
LayerCount: 2
Fore
SplineSet
318 -10 m 0,0,1
 262 -10 262 -10 218.5 17 c 128,-1,2
 175 44 175 44 158 97 c 1,3,-1
 167 122 l 1,4,-1
 156 54 l 2,5,6
 151 23 151 23 135.5 7.5 c 128,-1,7
 120 -8 120 -8 89 -8 c 0,8,9
 60 -8 60 -8 45.5 11.5 c 128,-1,10
 31 31 31 31 36 65 c 2,11,-1
 109 525 l 2,12,13
 125 623 125 623 177.5 669 c 128,-1,14
 230 715 230 715 327 715 c 0,15,16
 366 715 366 715 381 703 c 128,-1,17
 396 691 396 691 396 668 c 0,18,19
 396 647 396 647 386.5 631 c 128,-1,20
 377 615 377 615 362 615 c 0,21,22
 358 615 358 615 350 616 c 128,-1,23
 342 617 342 617 333 617 c 0,24,25
 293 617 293 617 267.5 593.5 c 128,-1,26
 242 570 242 570 234 523 c 2,27,-1
 214 397 l 1,28,-1
 204 397 l 1,29,30
 231 445 231 445 276 472 c 128,-1,31
 321 499 321 499 379 499 c 0,32,33
 435 499 435 499 476.5 473.5 c 128,-1,34
 518 448 518 448 541 400.5 c 128,-1,35
 564 353 564 353 564 288 c 0,36,37
 564 205 564 205 534.5 137.5 c 128,-1,38
 505 70 505 70 450 30 c 128,-1,39
 395 -10 395 -10 318 -10 c 0,0,1
295 85 m 0,40,41
 341 85 341 85 372.5 111 c 128,-1,42
 404 137 404 137 421 182 c 128,-1,43
 438 227 438 227 438 282 c 0,44,45
 438 341 438 341 409.5 372.5 c 128,-1,46
 381 404 381 404 331 404 c 0,47,48
 286 404 286 404 254 378 c 128,-1,49
 222 352 222 352 205 307.5 c 128,-1,50
 188 263 188 263 188 207 c 0,51,52
 188 148 188 148 216.5 116.5 c 128,-1,53
 245 85 245 85 295 85 c 0,40,41
EndSplineSet
EndChar

StartChar: c
Encoding: 99 99 273
Width: 472
GlyphClass: 2
Flags: W
AnchorPoint: "Anchor-2" 245 0 basechar 0
AnchorPoint: "Anchor-0" 310 484 basechar 0
LayerCount: 2
Fore
SplineSet
270 -10 m 0,0,1
 192 -10 192 -10 140.5 18 c 128,-1,2
 89 46 89 46 63 96.5 c 128,-1,3
 37 147 37 147 37 213 c 0,4,5
 37 267 37 267 53.5 318.5 c 128,-1,6
 70 370 70 370 104 410.5 c 128,-1,7
 138 451 138 451 190.5 475 c 128,-1,8
 243 499 243 499 314 499 c 0,9,10
 350 499 350 499 385 490.5 c 128,-1,11
 420 482 420 482 447 468 c 0,12,13
 467 457 467 457 474.5 442.5 c 128,-1,14
 482 428 482 428 479.5 413 c 128,-1,15
 477 398 477 398 468 387 c 128,-1,16
 459 376 459 376 445 372.5 c 128,-1,17
 431 369 431 369 415 378 c 0,18,19
 392 391 392 391 369.5 396.5 c 128,-1,20
 347 402 347 402 322 402 c 0,21,22
 279 402 279 402 249 386 c 128,-1,23
 219 370 219 370 200.5 342.5 c 128,-1,24
 182 315 182 315 173.5 282 c 128,-1,25
 165 249 165 249 165 214 c 0,26,27
 165 157 165 157 193.5 122 c 128,-1,28
 222 87 222 87 288 87 c 0,29,30
 307 87 307 87 328.5 92 c 128,-1,31
 350 97 350 97 374 110 c 0,32,33
 388 117 388 117 401 114 c 128,-1,34
 414 111 414 111 423 100.5 c 128,-1,35
 432 90 432 90 434.5 76.5 c 128,-1,36
 437 63 437 63 431 49 c 128,-1,37
 425 35 425 35 407 24 c 0,38,39
 381 8 381 8 342 -1 c 128,-1,40
 303 -10 303 -10 270 -10 c 0,0,1
EndSplineSet
EndChar

StartChar: d
Encoding: 100 100 280
Width: 600
GlyphClass: 2
Flags: W
AnchorPoint: "Anchor-5" 297 246 basechar 0
AnchorPoint: "Anchor-4" 478 588 basechar 0
AnchorPoint: "Anchor-2" 268 0 basechar 0
AnchorPoint: "Anchor-1" 649 705 basechar 0
AnchorPoint: "Anchor-0" 359 595 basechar 0
LayerCount: 2
Fore
SplineSet
220 -10 m 0,0,1
 165 -10 165 -10 123.5 16 c 128,-1,2
 82 42 82 42 59 89.5 c 128,-1,3
 36 137 36 137 36 201 c 0,4,5
 36 285 36 285 65.5 352.5 c 128,-1,6
 95 420 95 420 150.5 459.5 c 128,-1,7
 206 499 206 499 282 499 c 0,8,9
 338 499 338 499 381 472 c 128,-1,10
 424 445 424 445 441 392 c 1,11,-1
 434 393 l 1,12,-1
 475 654 l 2,13,14
 480 685 480 685 498 699 c 128,-1,15
 516 713 516 713 547 713 c 0,16,17
 576 713 576 713 589.5 695 c 128,-1,18
 603 677 603 677 598 642 c 2,19,-1
 505 56 l 2,20,21
 500 25 500 25 482 8.5 c 128,-1,22
 464 -8 464 -8 433 -8 c 0,23,24
 404 -8 404 -8 391.5 12.5 c 128,-1,25
 379 33 379 33 385 67 c 2,26,-1
 394 122 l 1,27,-1
 395 92 l 1,28,29
 368 45 368 45 323 17.5 c 128,-1,30
 278 -10 278 -10 220 -10 c 0,0,1
269 85 m 0,31,32
 315 85 315 85 346.5 111.5 c 128,-1,33
 378 138 378 138 395 182.5 c 128,-1,34
 412 227 412 227 412 282 c 0,35,36
 412 341 412 341 383.5 372.5 c 128,-1,37
 355 404 355 404 305 404 c 0,38,39
 260 404 260 404 228 378 c 128,-1,40
 196 352 196 352 179 307.5 c 128,-1,41
 162 263 162 263 162 207 c 0,42,43
 162 148 162 148 190.5 116.5 c 128,-1,44
 219 85 219 85 269 85 c 0,31,32
EndSplineSet
EndChar

StartChar: eth
Encoding: 240 240 281
Width: 581
GlyphClass: 1
Flags: W
LayerCount: 2
Fore
SplineSet
262 -10 m 0,0,1
 197 -10 197 -10 145 15.5 c 128,-1,2
 93 41 93 41 63.5 87 c 128,-1,3
 34 133 34 133 34 193 c 0,4,5
 34 269 34 269 67 327 c 128,-1,6
 100 385 100 385 157.5 417.5 c 128,-1,7
 215 450 215 450 286 450 c 0,8,9
 331 450 331 450 368 436 c 128,-1,10
 405 422 405 422 429.5 392.5 c 128,-1,11
 454 363 454 363 460 314 c 1,12,-1
 438 313 l 1,13,14
 444 396 444 396 413 463.5 c 128,-1,15
 382 531 382 531 324 575 c 1,16,-1
 342 572 l 1,17,-1
 202 511 l 2,18,19
 187 504 187 504 175.5 509.5 c 128,-1,20
 164 515 164 515 159.5 526.5 c 128,-1,21
 155 538 155 538 159 550 c 128,-1,22
 163 562 163 562 178 569 c 2,23,-1
 279 613 l 1,24,-1
 277 604 l 1,25,26
 264 612 264 612 247 618.5 c 128,-1,27
 230 625 230 625 213 630 c 0,28,29
 191 637 191 637 183 652 c 128,-1,30
 175 667 175 667 179 682 c 128,-1,31
 183 697 183 697 198 705.5 c 128,-1,32
 213 714 213 714 238 708 c 0,33,34
 279 698 279 698 315.5 683 c 128,-1,35
 352 668 352 668 381 648 c 1,36,-1
 362 650 l 1,37,-1
 491 707 l 2,38,39
 507 714 507 714 519 708.5 c 128,-1,40
 531 703 531 703 535.5 691.5 c 128,-1,41
 540 680 540 680 536 668 c 128,-1,42
 532 656 532 656 516 649 c 2,43,-1
 421 607 l 1,44,-1
 423 617 l 1,45,46
 468 578 468 578 496 530 c 128,-1,47
 524 482 524 482 537 428 c 128,-1,48
 550 374 550 374 550 317 c 0,49,50
 550 250 550 250 532 190.5 c 128,-1,51
 514 131 514 131 478 86 c 128,-1,52
 442 41 442 41 388 15.5 c 128,-1,53
 334 -10 334 -10 262 -10 c 0,0,1
273 87 m 0,54,55
 313 87 313 87 344 106 c 128,-1,56
 375 125 375 125 393.5 161 c 128,-1,57
 412 197 412 197 412 247 c 0,58,59
 412 298 412 298 382 327 c 128,-1,60
 352 356 352 356 299 356 c 0,61,62
 260 356 260 356 228.5 337 c 128,-1,63
 197 318 197 318 178.5 282.5 c 128,-1,64
 160 247 160 247 160 196 c 256,65,66
 160 145 160 145 190.5 116 c 128,-1,67
 221 87 221 87 273 87 c 0,54,55
EndSplineSet
EndChar

StartChar: dcroat
Encoding: 273 273 283
Width: 600
GlyphClass: 1
Flags: W
LayerCount: 2
Fore
SplineSet
220 -10 m 0,0,1
 165 -10 165 -10 123.5 16 c 128,-1,2
 82 42 82 42 59 89.5 c 128,-1,3
 36 137 36 137 36 201 c 0,4,5
 36 285 36 285 65.5 352.5 c 128,-1,6
 95 420 95 420 150.5 459.5 c 128,-1,7
 206 499 206 499 282 499 c 0,8,9
 338 499 338 499 381 472 c 128,-1,10
 424 445 424 445 441 392 c 1,11,-1
 434 393 l 1,12,-1
 458 544 l 1,13,-1
 318 544 l 2,14,15
 295 544 295 544 282.5 553 c 128,-1,16
 270 562 270 562 270 580 c 0,17,18
 270 604 270 604 284 618 c 128,-1,19
 298 632 298 632 323 632 c 2,20,-1
 496 632 l 1,21,-1
 464 582 l 1,22,-1
 475 652 l 2,23,24
 480 683 480 683 498 698 c 128,-1,25
 516 713 516 713 547 713 c 0,26,27
 576 713 576 713 590 696 c 128,-1,28
 604 679 604 679 598 644 c 2,29,-1
 588 582 l 1,30,-1
 570 632 l 1,31,-1
 635 632 l 2,32,33
 658 632 658 632 670.5 622.5 c 128,-1,34
 683 613 683 613 683 596 c 0,35,36
 683 571 683 571 668.5 557.5 c 128,-1,37
 654 544 654 544 629 544 c 2,38,-1
 582 544 l 1,39,-1
 505 56 l 2,40,41
 500 25 500 25 482 8.5 c 128,-1,42
 464 -8 464 -8 433 -8 c 0,43,44
 404 -8 404 -8 391.5 12.5 c 128,-1,45
 379 33 379 33 385 67 c 2,46,-1
 394 122 l 1,47,-1
 395 92 l 1,48,49
 368 45 368 45 323 17.5 c 128,-1,50
 278 -10 278 -10 220 -10 c 0,0,1
269 85 m 0,51,52
 315 85 315 85 346.5 111.5 c 128,-1,53
 378 138 378 138 395 182.5 c 128,-1,54
 412 227 412 227 412 282 c 0,55,56
 412 341 412 341 383.5 372.5 c 128,-1,57
 355 404 355 404 305 404 c 0,58,59
 260 404 260 404 228 378 c 128,-1,60
 196 352 196 352 179 307.5 c 128,-1,61
 162 263 162 263 162 207 c 0,62,63
 162 148 162 148 190.5 116.5 c 128,-1,64
 219 85 219 85 269 85 c 0,51,52
EndSplineSet
EndChar

StartChar: uni0257
Encoding: 599 599 285
Width: 600
GlyphClass: 1
Flags: W
LayerCount: 2
Fore
SplineSet
220 -10 m 0,0,1
 165 -10 165 -10 123.5 16 c 128,-1,2
 82 42 82 42 59 89.5 c 128,-1,3
 36 137 36 137 36 201 c 0,4,5
 36 285 36 285 65.5 352.5 c 128,-1,6
 95 420 95 420 150.5 459.5 c 128,-1,7
 206 499 206 499 282 499 c 0,8,9
 338 499 338 499 381 472 c 128,-1,10
 424 445 424 445 441 392 c 1,11,-1
 434 393 l 1,12,-1
 455 525 l 2,13,14
 471 623 471 623 523 669 c 128,-1,15
 575 715 575 715 671 715 c 0,16,17
 710 715 710 715 725.5 703 c 128,-1,18
 741 691 741 691 741 668 c 0,19,20
 741 647 741 647 731.5 631 c 128,-1,21
 722 615 722 615 707 615 c 0,22,23
 703 615 703 615 694.5 616 c 128,-1,24
 686 617 686 617 678 617 c 0,25,26
 638 617 638 617 612.5 593 c 128,-1,27
 587 569 587 569 579 522 c 2,28,-1
 505 56 l 2,29,30
 500 25 500 25 482 8.5 c 128,-1,31
 464 -8 464 -8 433 -8 c 0,32,33
 404 -8 404 -8 391.5 12.5 c 128,-1,34
 379 33 379 33 385 67 c 2,35,-1
 394 122 l 1,36,-1
 395 92 l 1,37,38
 368 45 368 45 323 17.5 c 128,-1,39
 278 -10 278 -10 220 -10 c 0,0,1
269 85 m 0,40,41
 315 85 315 85 346.5 111.5 c 128,-1,42
 378 138 378 138 395 182.5 c 128,-1,43
 412 227 412 227 412 282 c 0,44,45
 412 341 412 341 383.5 372.5 c 128,-1,46
 355 404 355 404 305 404 c 0,47,48
 260 404 260 404 228 378 c 128,-1,49
 196 352 196 352 179 307.5 c 128,-1,50
 162 263 162 263 162 207 c 0,51,52
 162 148 162 148 190.5 116.5 c 128,-1,53
 219 85 219 85 269 85 c 0,40,41
EndSplineSet
EndChar

StartChar: e
Encoding: 101 101 288
Width: 542
GlyphClass: 2
Flags: W
AnchorPoint: "Anchor-3" 340 0 basechar 0
AnchorPoint: "Anchor-2" 255 0 basechar 0
AnchorPoint: "Anchor-0" 320 484 basechar 0
LayerCount: 2
Fore
SplineSet
280 -10 m 0,0,1
 206 -10 206 -10 151.5 17.5 c 128,-1,2
 97 45 97 45 67 95 c 128,-1,3
 37 145 37 145 37 212 c 0,4,5
 37 294 37 294 71.5 358.5 c 128,-1,6
 106 423 106 423 167 461 c 128,-1,7
 228 499 228 499 307 499 c 0,8,9
 368 499 368 499 409 478 c 128,-1,10
 450 457 450 457 474 421.5 c 128,-1,11
 498 386 498 386 506 341 c 128,-1,12
 514 296 514 296 509 249 c 0,13,14
 507 228 507 228 498 222 c 128,-1,15
 489 216 489 216 473 216 c 2,16,-1
 137 216 l 1,17,-1
 147 288 l 1,18,-1
 427 288 l 1,19,-1
 410 273 l 1,20,21
 416 313 416 313 407 344.5 c 128,-1,22
 398 376 398 376 373.5 395 c 128,-1,23
 349 414 349 414 306 414 c 0,24,25
 262 414 262 414 232 394 c 128,-1,26
 202 374 202 374 185 342.5 c 128,-1,27
 168 311 168 311 162 275 c 2,28,-1
 157 244 l 2,29,30
 145 171 145 171 181 128 c 128,-1,31
 217 85 217 85 291 85 c 0,32,33
 321 85 321 85 353 91.5 c 128,-1,34
 385 98 385 98 411 113 c 0,35,36
 430 124 430 124 444.5 122.5 c 128,-1,37
 459 121 459 121 467.5 111.5 c 128,-1,38
 476 102 476 102 478 88.5 c 128,-1,39
 480 75 480 75 473.5 60.5 c 128,-1,40
 467 46 467 46 451 35 c 0,41,42
 416 12 416 12 368 1 c 128,-1,43
 320 -10 320 -10 280 -10 c 0,0,1
EndSplineSet
EndChar

StartChar: uni0259
Encoding: 601 601 311
Width: 543
GlyphClass: 1
Flags: W
LayerCount: 2
Fore
SplineSet
236 -10 m 0,0,1
 154 -10 154 -10 106.5 26 c 128,-1,2
 59 62 59 62 42 119.5 c 128,-1,3
 25 177 25 177 34 240 c 0,4,5
 37 261 37 261 45.5 267 c 128,-1,6
 54 273 54 273 70 273 c 2,7,-1
 406 273 l 1,8,-1
 395 201 l 1,9,-1
 116 201 l 1,10,-1
 140 216 l 1,11,12
 134 179 134 179 142.5 147 c 128,-1,13
 151 115 151 115 175 95 c 128,-1,14
 199 75 199 75 238 75 c 0,15,16
 283 75 283 75 312.5 95 c 128,-1,17
 342 115 342 115 358.5 147 c 128,-1,18
 375 179 375 179 380 214 c 2,19,-1
 385 245 l 2,20,21
 397 319 397 319 364 361.5 c 128,-1,22
 331 404 331 404 254 404 c 0,23,24
 224 404 224 404 191 396.5 c 128,-1,25
 158 389 158 389 132 374 c 0,26,27
 113 363 113 363 98.5 365 c 128,-1,28
 84 367 84 367 75 376.5 c 128,-1,29
 66 386 66 386 64 400.5 c 128,-1,30
 62 415 62 415 68.5 429.5 c 128,-1,31
 75 444 75 444 91 454 c 0,32,33
 126 477 126 477 174.5 488 c 128,-1,34
 223 499 223 499 266 499 c 0,35,36
 340 499 340 499 394 471.5 c 128,-1,37
 448 444 448 444 477 394.5 c 128,-1,38
 506 345 506 345 506 277 c 0,39,40
 506 196 506 196 471.5 131 c 128,-1,41
 437 66 437 66 376.5 28 c 128,-1,42
 316 -10 316 -10 236 -10 c 0,0,1
EndSplineSet
EndChar

StartChar: f
Encoding: 102 102 314
Width: 364
GlyphClass: 2
Flags: W
AnchorPoint: "Anchor-2" 122 0 basechar 0
AnchorPoint: "Anchor-0" 233 705 basechar 0
LayerCount: 2
Fore
SplineSet
121 -8 m 0,0,1
 92 -8 92 -8 78.5 11.5 c 128,-1,2
 65 31 65 31 70 65 c 2,3,-1
 123 395 l 1,4,-1
 81 395 l 2,5,6
 57 395 57 395 44.5 405 c 128,-1,7
 32 415 32 415 32 433 c 0,8,9
 32 459 32 459 47.5 474 c 128,-1,10
 63 489 63 489 89 489 c 2,11,-1
 151 489 l 1,12,-1
 135 476 l 1,13,-1
 141 513 l 2,14,15
 155 599 155 599 209 649 c 128,-1,16
 263 699 263 699 367 706 c 2,17,-1
 399 708 l 2,18,19
 419 709 419 709 430 700.5 c 128,-1,20
 441 692 441 692 444.5 678.5 c 128,-1,21
 448 665 448 665 444.5 651 c 128,-1,22
 441 637 441 637 431.5 627 c 128,-1,23
 422 617 422 617 407 616 c 2,24,-1
 380 614 l 2,25,26
 328 610 328 610 301 586 c 128,-1,27
 274 562 274 562 266 515 c 2,28,-1
 260 479 l 1,29,-1
 251 489 l 1,30,-1
 341 489 l 2,31,32
 365 489 365 489 377.5 479.5 c 128,-1,33
 390 470 390 470 390 452 c 0,34,35
 390 425 390 425 374.5 410 c 128,-1,36
 359 395 359 395 333 395 c 2,37,-1
 248 395 l 1,38,-1
 194 54 l 2,39,40
 183 -8 183 -8 121 -8 c 0,0,1
EndSplineSet
EndChar

StartChar: g
Encoding: 103 103 315
Width: 604
GlyphClass: 2
Flags: W
AnchorPoint: "Anchor-0" 335 484 basechar 0
LayerCount: 2
Fore
SplineSet
256 -190 m 0,0,1
 196 -190 196 -190 142.5 -176.5 c 128,-1,2
 89 -163 89 -163 49 -140 c 0,3,4
 32 -130 32 -130 26 -115.5 c 128,-1,5
 20 -101 20 -101 23 -87 c 128,-1,6
 26 -73 26 -73 36 -62.5 c 128,-1,7
 46 -52 46 -52 61 -49.5 c 128,-1,8
 76 -47 76 -47 94 -57 c 0,9,10
 126 -74 126 -74 162.5 -84.5 c 128,-1,11
 199 -95 199 -95 238 -95 c 0,12,13
 298 -95 298 -95 335 -68 c 128,-1,14
 372 -41 372 -41 382 19 c 2,15,-1
 398 114 l 1,16,-1
 406 113 l 1,17,18
 382 64 382 64 336 38 c 128,-1,19
 290 12 290 12 233 12 c 0,20,21
 174 12 174 12 130 36 c 128,-1,22
 86 60 86 60 61.5 105.5 c 128,-1,23
 37 151 37 151 37 213 c 0,24,25
 37 270 37 270 54.5 322 c 128,-1,26
 72 374 72 374 104.5 413.5 c 128,-1,27
 137 453 137 453 183 476 c 128,-1,28
 229 499 229 499 286 499 c 0,29,30
 344 499 344 499 387.5 472 c 128,-1,31
 431 445 431 445 448 392 c 1,32,-1
 436 364 l 1,33,-1
 447 437 l 2,34,35
 452 468 452 468 470 482.5 c 128,-1,36
 488 497 488 497 518 497 c 0,37,38
 547 497 547 497 559.5 478 c 128,-1,39
 572 459 572 459 567 424 c 2,40,-1
 504 26 l 2,41,42
 488 -79 488 -79 426 -134.5 c 128,-1,43
 364 -190 364 -190 256 -190 c 0,0,1
272 107 m 0,44,45
 319 107 319 107 351.5 132.5 c 128,-1,46
 384 158 384 158 401 200.5 c 128,-1,47
 418 243 418 243 418 292 c 0,48,49
 418 344 418 344 389.5 374 c 128,-1,50
 361 404 361 404 308 404 c 0,51,52
 262 404 262 404 229.5 378.5 c 128,-1,53
 197 353 197 353 180 311 c 128,-1,54
 163 269 163 269 163 220 c 0,55,56
 163 167 163 167 191.5 137 c 128,-1,57
 220 107 220 107 272 107 c 0,44,45
EndSplineSet
EndChar

StartChar: uni01E5
Encoding: 485 485 322
Width: 604
GlyphClass: 1
Flags: W
LayerCount: 2
Fore
SplineSet
256 -190 m 0,0,1
 196 -190 196 -190 142.5 -176.5 c 128,-1,2
 89 -163 89 -163 49 -140 c 0,3,4
 32 -130 32 -130 26 -115.5 c 128,-1,5
 20 -101 20 -101 23 -87 c 128,-1,6
 26 -73 26 -73 36 -62.5 c 128,-1,7
 46 -52 46 -52 61 -49.5 c 128,-1,8
 76 -47 76 -47 94 -57 c 0,9,10
 126 -74 126 -74 162.5 -84.5 c 128,-1,11
 199 -95 199 -95 238 -95 c 0,12,13
 279 -95 279 -95 309 -82.5 c 128,-1,14
 339 -70 339 -70 358 -45 c 1,15,-1
 362 -57 l 1,16,-1
 286 -57 l 2,17,18
 261 -57 261 -57 251.5 -45.5 c 128,-1,19
 242 -34 242 -34 242 -18 c 0,20,21
 242 3 242 3 256 12 c 128,-1,22
 270 21 270 21 288 21 c 2,23,-1
 392 21 l 1,24,-1
 379 5 l 1,25,26
 380 10 380 10 381.5 16 c 128,-1,27
 383 22 383 22 384 26 c 2,28,-1
 404 150 l 1,29,-1
 409 149 l 1,30,31
 386 100 386 100 337 71.5 c 128,-1,32
 288 43 288 43 229 43 c 256,33,34
 170 43 170 43 127.5 68.5 c 128,-1,35
 85 94 85 94 62.5 137.5 c 128,-1,36
 40 181 40 181 40 236 c 0,37,38
 40 292 40 292 59 340 c 128,-1,39
 78 388 78 388 112 423.5 c 128,-1,40
 146 459 146 459 191.5 479 c 128,-1,41
 237 499 237 499 291 499 c 0,42,43
 350 499 350 499 393 471.5 c 128,-1,44
 436 444 436 444 448 393 c 1,45,-1
 436 364 l 1,46,-1
 447 437 l 2,47,48
 452 468 452 468 470 482.5 c 128,-1,49
 488 497 488 497 518 497 c 0,50,51
 547 497 547 497 559.5 478 c 128,-1,52
 572 459 572 459 567 424 c 2,53,-1
 506 37 l 2,54,55
 505 30 505 30 503 22.5 c 128,-1,56
 501 15 501 15 499 7 c 1,57,-1
 493 21 l 1,58,-1
 519 21 l 2,59,60
 544 21 544 21 553.5 10 c 128,-1,61
 563 -1 563 -1 563 -18 c 0,62,63
 563 -36 563 -36 549 -46.5 c 128,-1,64
 535 -57 535 -57 517 -57 c 2,65,-1
 466 -57 l 1,66,-1
 486 -45 l 1,67,68
 456 -116 456 -116 401 -153 c 128,-1,69
 346 -190 346 -190 256 -190 c 0,0,1
275 138 m 0,70,71
 318 138 318 138 351 159 c 128,-1,72
 384 180 384 180 403.5 216.5 c 128,-1,73
 423 253 423 253 423 299 c 0,74,75
 423 348 423 348 394.5 376 c 128,-1,76
 366 404 366 404 314 404 c 0,77,78
 272 404 272 404 238.5 383 c 128,-1,79
 205 362 205 362 185.5 325.5 c 128,-1,80
 166 289 166 289 166 243 c 0,81,82
 166 195 166 195 194.5 166.5 c 128,-1,83
 223 138 223 138 275 138 c 0,70,71
EndSplineSet
EndChar

StartChar: h
Encoding: 104 104 323
Width: 585
GlyphClass: 2
Flags: W
AnchorPoint: "Anchor-5" 294 248 basechar 0
AnchorPoint: "Anchor-4" 232 588 basechar 0
AnchorPoint: "Anchor-2" 259 0 basechar 0
AnchorPoint: "Anchor-1" 292 705 basechar 0
AnchorPoint: "Anchor-0" 365 705 basechar 0
LayerCount: 2
Fore
SplineSet
88 -8 m 0,0,1
 59 -8 59 -8 45.5 12.5 c 128,-1,2
 32 33 32 33 37 67 c 2,3,-1
 129 650 l 2,4,5
 134 681 134 681 152 697 c 128,-1,6
 170 713 170 713 201 713 c 0,7,8
 230 713 230 713 244 694.5 c 128,-1,9
 258 676 258 676 253 641 c 2,10,-1
 213 390 l 1,11,-1
 202 390 l 1,12,13
 227 443 227 443 273.5 471 c 128,-1,14
 320 499 320 499 383 499 c 0,15,16
 437 499 437 499 473.5 477 c 128,-1,17
 510 455 510 455 525.5 409.5 c 128,-1,18
 541 364 541 364 530 293 c 2,19,-1
 493 55 l 2,20,21
 489 24 489 24 470.5 8 c 128,-1,22
 452 -8 452 -8 421 -8 c 0,23,24
 392 -8 392 -8 378 11.5 c 128,-1,25
 364 31 364 31 369 65 c 2,26,-1
 405 291 l 2,27,28
 414 346 414 346 396.5 373.5 c 128,-1,29
 379 401 379 401 333 401 c 0,30,31
 274 401 274 401 238.5 364 c 128,-1,32
 203 327 203 327 193 263 c 2,33,-1
 160 55 l 2,34,35
 151 -8 151 -8 88 -8 c 0,0,1
EndSplineSet
EndChar

StartChar: hbar
Encoding: 295 295 324
Width: 585
GlyphClass: 1
Flags: W
LayerCount: 2
Fore
SplineSet
88 -8 m 0,0,1
 59 -8 59 -8 45 11.5 c 128,-1,2
 31 31 31 31 36 65 c 2,3,-1
 112 544 l 1,4,-1
 71 544 l 2,5,6
 47 544 47 544 35.5 555 c 128,-1,7
 24 566 24 566 26 586 c 0,8,9
 31 632 31 632 79 632 c 2,10,-1
 156 632 l 1,11,-1
 120 588 l 1,12,-1
 129 651 l 2,13,14
 134 686 134 686 152.5 699.5 c 128,-1,15
 171 713 171 713 202 713 c 0,16,17
 231 713 231 713 245.5 697 c 128,-1,18
 260 681 260 681 253 644 c 2,19,-1
 243 579 l 1,20,-1
 225 632 l 1,21,-1
 390 632 l 2,22,23
 416 632 416 632 428.5 621 c 128,-1,24
 441 610 441 610 438 589 c 0,25,26
 432 544 432 544 385 544 c 2,27,-1
 237 544 l 1,28,-1
 213 390 l 1,29,-1
 202 390 l 1,30,31
 228 443 228 443 274 471 c 128,-1,32
 320 499 320 499 382 499 c 0,33,34
 436 499 436 499 473 477 c 128,-1,35
 510 455 510 455 525.5 409.5 c 128,-1,36
 541 364 541 364 530 293 c 2,37,-1
 493 55 l 2,38,39
 489 24 489 24 470.5 8 c 128,-1,40
 452 -8 452 -8 421 -8 c 0,41,42
 392 -8 392 -8 378 11.5 c 128,-1,43
 364 31 364 31 369 65 c 2,44,-1
 405 292 l 2,45,46
 414 347 414 347 396.5 374 c 128,-1,47
 379 401 379 401 332 401 c 0,48,49
 274 401 274 401 238.5 364 c 128,-1,50
 203 327 203 327 193 263 c 2,51,-1
 160 55 l 2,52,53
 151 -8 151 -8 88 -8 c 0,0,1
EndSplineSet
EndChar

StartChar: i
Encoding: 105 105 329
Width: 255
GlyphClass: 2
Flags: W
AnchorPoint: "Anchor-3" 125 0 basechar 0
AnchorPoint: "Anchor-2" 89 0 basechar 0
LayerCount: 2
Fore
SplineSet
87 -8 m 0,0,1
 58 -8 58 -8 44.5 11.5 c 128,-1,2
 31 31 31 31 36 65 c 2,3,-1
 95 435 l 2,4,5
 100 466 100 466 118 481.5 c 128,-1,6
 136 497 136 497 167 497 c 0,7,8
 196 497 196 497 209.5 478 c 128,-1,9
 223 459 223 459 218 424 c 2,10,-1
 159 54 l 2,11,12
 154 23 154 23 136.5 7.5 c 128,-1,13
 119 -8 119 -8 87 -8 c 0,0,1
183 589 m 0,14,15
 149 589 149 589 132.5 605.5 c 128,-1,16
 116 622 116 622 119 652 c 0,17,18
 123 686 123 686 145 703.5 c 128,-1,19
 167 721 167 721 204 721 c 0,20,21
 238 721 238 721 255 704.5 c 128,-1,22
 272 688 272 688 268 658 c 0,23,24
 264 624 264 624 242.5 606.5 c 128,-1,25
 221 589 221 589 183 589 c 0,14,15
EndSplineSet
Substitution2: "'locl' Localized Forms in Latin lookup 10 subtable" i.loclTRK
Substitution2: "Single Substitution lookup 4 subtable" dotlessi
Substitution2: "Single Substitution lookup 3 subtable" dotlessi
Substitution2: "'aalt' Access All Alternates lookup 0 subtable" i.loclTRK
EndChar

StartChar: dotlessi
Encoding: 305 305 330
Width: 255
GlyphClass: 2
Flags: W
AnchorPoint: "Anchor-3" 125 0 basechar 0
AnchorPoint: "Anchor-2" 89 0 basechar 0
AnchorPoint: "Anchor-0" 166 484 basechar 0
LayerCount: 2
Fore
SplineSet
87 -8 m 0,0,1
 58 -8 58 -8 44.5 11.5 c 128,-1,2
 31 31 31 31 36 65 c 2,3,-1
 95 435 l 2,4,5
 100 466 100 466 118 481.5 c 128,-1,6
 136 497 136 497 167 497 c 0,7,8
 196 497 196 497 209.5 478 c 128,-1,9
 223 459 223 459 218 424 c 2,10,-1
 159 54 l 2,11,12
 154 23 154 23 136.5 7.5 c 128,-1,13
 119 -8 119 -8 87 -8 c 0,0,1
EndSplineSet
EndChar

StartChar: iogonek
Encoding: 303 303 343
Width: 255
GlyphClass: 1
Flags: W
LayerCount: 2
Fore
SplineSet
86 -195 m 0,0,1
 32 -195 32 -195 5.5 -168.5 c 128,-1,2
 -21 -142 -21 -142 -21 -103 c 0,3,4
 -21 -60 -21 -60 0 -29.5 c 128,-1,5
 21 1 21 1 52 21 c 1,6,-1
 46 8 l 1,7,8
 39 18 39 18 36.5 32.5 c 128,-1,9
 34 47 34 47 36 65 c 2,10,-1
 95 435 l 2,11,12
 100 466 100 466 118 481.5 c 128,-1,13
 136 497 136 497 167 497 c 0,14,15
 196 497 196 497 209.5 478 c 128,-1,16
 223 459 223 459 218 424 c 2,17,-1
 159 54 l 2,18,19
 156 33 156 33 146.5 19 c 128,-1,20
 137 5 137 5 118 -3 c 0,21,22
 90 -16 90 -16 74 -36 c 128,-1,23
 58 -56 58 -56 58 -81 c 0,24,25
 58 -102 58 -102 72 -115 c 128,-1,26
 86 -128 86 -128 109 -128 c 0,27,28
 117 -128 117 -128 125 -127 c 128,-1,29
 133 -126 133 -126 143 -123 c 0,30,31
 159 -118 159 -118 167.5 -125 c 128,-1,32
 176 -132 176 -132 177.5 -144.5 c 128,-1,33
 179 -157 179 -157 173.5 -168 c 128,-1,34
 168 -179 168 -179 156 -184 c 0,35,36
 141 -189 141 -189 122.5 -192 c 128,-1,37
 104 -195 104 -195 86 -195 c 0,0,1
183 589 m 0,38,39
 149 589 149 589 132.5 605.5 c 128,-1,40
 116 622 116 622 119 652 c 0,41,42
 123 686 123 686 145 703.5 c 128,-1,43
 167 721 167 721 204 721 c 0,44,45
 238 721 238 721 255 704.5 c 128,-1,46
 272 688 272 688 268 658 c 0,47,48
 264 624 264 624 242.5 606.5 c 128,-1,49
 221 589 221 589 183 589 c 0,38,39
EndSplineSet
EndChar

StartChar: j
Encoding: 106 106 345
Width: 259
GlyphClass: 1
Flags: W
LayerCount: 2
Fore
SplineSet
-64 -191 m 0,0,1
 -84 -192 -84 -192 -96 -183 c 128,-1,2
 -108 -174 -108 -174 -112 -160.5 c 128,-1,3
 -116 -147 -116 -147 -112.5 -132.5 c 128,-1,4
 -109 -118 -109 -118 -98.5 -108.5 c 128,-1,5
 -88 -99 -88 -99 -70 -98 c 0,6,7
 -29 -96 -29 -96 -3.5 -74.5 c 128,-1,8
 22 -53 22 -53 29 -7 c 2,9,-1
 99 435 l 2,10,11
 104 466 104 466 121.5 481.5 c 128,-1,12
 139 497 139 497 170 497 c 0,13,14
 199 497 199 497 213 478 c 128,-1,15
 227 459 227 459 222 424 c 2,16,-1
 156 7 l 2,17,18
 146 -60 146 -60 121 -102 c 128,-1,19
 96 -144 96 -144 51.5 -165.5 c 128,-1,20
 7 -187 7 -187 -64 -191 c 0,0,1
185 589 m 0,21,22
 151 589 151 589 134.5 605.5 c 128,-1,23
 118 622 118 622 121 652 c 0,24,25
 125 686 125 686 147 703.5 c 128,-1,26
 169 721 169 721 206 721 c 0,27,28
 240 721 240 721 257 704.5 c 128,-1,29
 274 688 274 688 270 658 c 0,30,31
 266 624 266 624 244.5 606.5 c 128,-1,32
 223 589 223 589 185 589 c 0,21,22
EndSplineSet
Substitution2: "Single Substitution lookup 4 subtable" uni0237
Substitution2: "Single Substitution lookup 3 subtable" uni0237
EndChar

StartChar: uni0237
Encoding: 567 567 346
Width: 259
GlyphClass: 2
Flags: W
AnchorPoint: "Anchor-2" 92 0 basechar 0
AnchorPoint: "Anchor-0" 168 484 basechar 0
LayerCount: 2
Fore
SplineSet
-64 -191 m 0,0,1
 -84 -192 -84 -192 -96 -183 c 128,-1,2
 -108 -174 -108 -174 -112 -160.5 c 128,-1,3
 -116 -147 -116 -147 -112.5 -132.5 c 128,-1,4
 -109 -118 -109 -118 -98.5 -108.5 c 128,-1,5
 -88 -99 -88 -99 -70 -98 c 0,6,7
 -29 -96 -29 -96 -3.5 -74.5 c 128,-1,8
 22 -53 22 -53 29 -7 c 2,9,-1
 99 435 l 2,10,11
 104 466 104 466 121.5 481.5 c 128,-1,12
 139 497 139 497 170 497 c 0,13,14
 199 497 199 497 213 478 c 128,-1,15
 227 459 227 459 222 424 c 2,16,-1
 156 7 l 2,17,18
 146 -60 146 -60 121 -102 c 128,-1,19
 96 -144 96 -144 51.5 -165.5 c 128,-1,20
 7 -187 7 -187 -64 -191 c 0,0,1
EndSplineSet
EndChar

StartChar: k
Encoding: 107 107 348
Width: 536
GlyphClass: 2
Flags: W
AnchorPoint: "Anchor-2" 241 0 basechar 0
AnchorPoint: "Anchor-0" 364 705 basechar 0
LayerCount: 2
Fore
SplineSet
88 -8 m 0,0,1
 59 -8 59 -8 45.5 11 c 128,-1,2
 32 30 32 30 37 64 c 2,3,-1
 130 653 l 2,4,5
 135 684 135 684 153 698.5 c 128,-1,6
 171 713 171 713 202 713 c 0,7,8
 231 713 231 713 244.5 693.5 c 128,-1,9
 258 674 258 674 253 639 c 2,10,-1
 196 281 l 1,11,-1
 198 281 l 1,12,-1
 393 460 l 2,13,14
 413 479 413 479 428.5 488 c 128,-1,15
 444 497 444 497 466 497 c 0,16,17
 491 497 491 497 502.5 483 c 128,-1,18
 514 469 514 469 511.5 448.5 c 128,-1,19
 509 428 509 428 490 410 c 2,20,-1
 294 226 l 1,21,-1
 294 280 l 1,22,-1
 453 80 l 2,23,24
 469 60 469 60 467.5 39.5 c 128,-1,25
 466 19 466 19 452 5.5 c 128,-1,26
 438 -8 438 -8 414 -8 c 0,27,28
 388 -8 388 -8 373.5 3.5 c 128,-1,29
 359 15 359 15 339 39 c 2,30,-1
 189 223 l 1,31,-1
 187 223 l 1,32,-1
 160 52 l 2,33,34
 151 -8 151 -8 88 -8 c 0,0,1
EndSplineSet
EndChar

StartChar: kgreenlandic
Encoding: 312 312 351
Width: 536
GlyphClass: 2
Flags: W
AnchorPoint: "Anchor-2" 229 0 basechar 0
AnchorPoint: "Anchor-0" 306 484 basechar 0
LayerCount: 2
Fore
SplineSet
92 -8 m 0,0,1
 59 -8 59 -8 45.5 11 c 128,-1,2
 32 30 32 30 37 64 c 2,3,-1
 96 437 l 2,4,5
 101 466 101 466 118.5 481.5 c 128,-1,6
 136 497 136 497 165 497 c 0,7,8
 198 497 198 497 211 477.5 c 128,-1,9
 224 458 224 458 219 423 c 2,10,-1
 196 281 l 1,11,-1
 198 281 l 1,12,-1
 393 460 l 2,13,14
 407 473 407 473 423.5 485 c 128,-1,15
 440 497 440 497 464 497 c 0,16,17
 490 497 490 497 502.5 483 c 128,-1,18
 515 469 515 469 512.5 448.5 c 128,-1,19
 510 428 510 428 490 410 c 2,20,-1
 294 226 l 1,21,-1
 294 280 l 1,22,-1
 453 80 l 2,23,24
 470 59 470 59 468.5 39 c 128,-1,25
 467 19 467 19 451.5 5.5 c 128,-1,26
 436 -8 436 -8 410 -8 c 0,27,28
 388 -8 388 -8 373.5 3.5 c 128,-1,29
 359 15 359 15 339 39 c 2,30,-1
 189 223 l 1,31,-1
 187 223 l 1,32,-1
 160 52 l 2,33,34
 155 21 155 21 137 6.5 c 128,-1,35
 119 -8 119 -8 92 -8 c 0,0,1
EndSplineSet
EndChar

StartChar: l
Encoding: 108 108 352
Width: 319
GlyphClass: 2
Flags: W
AnchorPoint: "Anchor-5" 153 357 basechar 0
AnchorPoint: "Anchor-2" 156 0 basechar 0
AnchorPoint: "Anchor-1" 303 705 basechar 0
AnchorPoint: "Anchor-0" 200 705 basechar 0
LayerCount: 2
Fore
SplineSet
197 -10 m 0,0,1
 114 -10 114 -10 77 37.5 c 128,-1,2
 40 85 40 85 54 176 c 2,3,-1
 130 651 l 2,4,5
 135 682 135 682 153 697.5 c 128,-1,6
 171 713 171 713 202 713 c 0,7,8
 231 713 231 713 244.5 694 c 128,-1,9
 258 675 258 675 253 640 c 2,10,-1
 179 177 l 2,11,12
 172 133 172 133 186.5 112.5 c 128,-1,13
 201 92 201 92 234 92 c 0,14,15
 245 92 245 92 252 93.5 c 128,-1,16
 259 95 259 95 265 95 c 0,17,18
 275 95 275 95 281 88 c 128,-1,19
 287 81 287 81 287 61 c 0,20,21
 287 32 287 32 275 16.5 c 128,-1,22
 263 1 263 1 246 -4 c 0,23,24
 237 -7 237 -7 223 -8.5 c 128,-1,25
 209 -10 209 -10 197 -10 c 0,0,1
EndSplineSet
Substitution2: "'ss02' Style Set 2 lookup 36 subtable" l.ss02
Substitution2: "'aalt' Access All Alternates lookup 0 subtable" l.ss02
EndChar

StartChar: m
Encoding: 109 109 361
Width: 877
GlyphClass: 2
Flags: W
AnchorPoint: "Anchor-2" 401 0 basechar 0
AnchorPoint: "Anchor-0" 477 484 basechar 0
LayerCount: 2
Fore
SplineSet
89 -8 m 0,0,1
 60 -8 60 -8 46.5 10.5 c 128,-1,2
 33 29 33 29 38 63 c 2,3,-1
 98 437 l 2,4,5
 103 467 103 467 120.5 482 c 128,-1,6
 138 497 138 497 167 497 c 256,7,8
 196 497 196 497 209.5 478.5 c 128,-1,9
 223 460 223 460 218 427 c 2,10,-1
 208 362 l 1,11,-1
 201 387 l 1,12,13
 229 444 229 444 274.5 471.5 c 128,-1,14
 320 499 320 499 372 499 c 0,15,16
 428 499 428 499 464 469.5 c 128,-1,17
 500 440 500 440 512 382 c 1,18,-1
 499 388 l 1,19,20
 525 442 525 442 571 470.5 c 128,-1,21
 617 499 617 499 678 499 c 0,22,23
 730 499 730 499 765.5 477 c 128,-1,24
 801 455 801 455 815.5 409 c 128,-1,25
 830 363 830 363 819 292 c 2,26,-1
 781 52 l 2,27,28
 777 23 777 23 759.5 7.5 c 128,-1,29
 742 -8 742 -8 712 -8 c 0,30,31
 681 -8 681 -8 667 10.5 c 128,-1,32
 653 29 653 29 658 63 c 2,33,-1
 694 294 l 2,34,35
 702 347 702 347 686 374 c 128,-1,36
 670 401 670 401 629 401 c 0,37,38
 580 401 580 401 548 364.5 c 128,-1,39
 516 328 516 328 505 263 c 2,40,-1
 472 52 l 2,41,42
 468 23 468 23 449.5 7.5 c 128,-1,43
 431 -8 431 -8 401 -8 c 256,44,45
 371 -8 371 -8 357 10.5 c 128,-1,46
 343 29 343 29 348 63 c 2,47,-1
 385 294 l 2,48,49
 393 347 393 347 377 374 c 128,-1,50
 361 401 361 401 320 401 c 0,51,52
 271 401 271 401 238.5 364.5 c 128,-1,53
 206 328 206 328 195 263 c 2,54,-1
 162 52 l 2,55,56
 153 -8 153 -8 89 -8 c 0,0,1
EndSplineSet
EndChar

StartChar: n
Encoding: 110 110 363
Width: 585
GlyphClass: 2
Flags: W
AnchorPoint: "Anchor-2" 258 0 basechar 0
AnchorPoint: "Anchor-0" 328 484 basechar 0
LayerCount: 2
Fore
SplineSet
88 -7 m 0,0,1
 59 -7 59 -7 45.5 12.5 c 128,-1,2
 32 32 32 32 37 66 c 2,3,-1
 95 435 l 2,4,5
 100 466 100 466 118.5 481.5 c 128,-1,6
 137 497 137 497 167 497 c 0,7,8
 195 497 195 497 208 480 c 128,-1,9
 221 463 221 463 216 429 c 2,10,-1
 206 365 l 1,11,-1
 202 390 l 1,12,13
 227 443 227 443 273.5 471 c 128,-1,14
 320 499 320 499 383 499 c 0,15,16
 437 499 437 499 473.5 477 c 128,-1,17
 510 455 510 455 525.5 409.5 c 128,-1,18
 541 364 541 364 530 293 c 2,19,-1
 493 55 l 2,20,21
 489 24 489 24 470.5 8.5 c 128,-1,22
 452 -7 452 -7 421 -7 c 0,23,24
 392 -7 392 -7 378 12.5 c 128,-1,25
 364 32 364 32 369 66 c 2,26,-1
 405 291 l 2,27,28
 414 346 414 346 396.5 373.5 c 128,-1,29
 379 401 379 401 333 401 c 0,30,31
 274 401 274 401 238.5 364 c 128,-1,32
 203 327 203 327 193 263 c 2,33,-1
 160 55 l 2,34,35
 151 -7 151 -7 88 -7 c 0,0,1
EndSplineSet
EndChar

StartChar: eng
Encoding: 331 331 373
Width: 585
GlyphClass: 1
Flags: W
LayerCount: 2
Fore
SplineSet
266 -190 m 0,0,1
 246 -191 246 -191 234 -182.5 c 128,-1,2
 222 -174 222 -174 217.5 -161 c 128,-1,3
 213 -148 213 -148 216.5 -134 c 128,-1,4
 220 -120 220 -120 230.5 -110 c 128,-1,5
 241 -100 241 -100 259 -98 c 0,6,7
 300 -94 300 -94 325.5 -73.5 c 128,-1,8
 351 -53 351 -53 358 -7 c 2,9,-1
 405 291 l 2,10,11
 414 346 414 346 396.5 373.5 c 128,-1,12
 379 401 379 401 333 401 c 0,13,14
 274 401 274 401 238.5 364 c 128,-1,15
 203 327 203 327 193 263 c 2,16,-1
 160 55 l 2,17,18
 151 -7 151 -7 88 -7 c 0,19,20
 59 -7 59 -7 45.5 12.5 c 128,-1,21
 32 32 32 32 37 66 c 2,22,-1
 95 435 l 2,23,24
 100 466 100 466 118.5 481.5 c 128,-1,25
 137 497 137 497 167 497 c 0,26,27
 195 497 195 497 208 480 c 128,-1,28
 221 463 221 463 216 430 c 2,29,-1
 206 365 l 1,30,-1
 202 390 l 1,31,32
 227 443 227 443 273.5 471 c 128,-1,33
 320 499 320 499 383 499 c 0,34,35
 437 499 437 499 473.5 477 c 128,-1,36
 510 455 510 455 525.5 409.5 c 128,-1,37
 541 364 541 364 530 293 c 2,38,-1
 485 7 l 2,39,40
 475 -60 475 -60 449 -102 c 128,-1,41
 423 -144 423 -144 378.5 -165 c 128,-1,42
 334 -186 334 -186 266 -190 c 0,0,1
EndSplineSet
EndChar

StartChar: o
Encoding: 111 111 374
Width: 576
GlyphClass: 2
Flags: W
AnchorPoint: "Anchor-5" 289 245 basechar 0
AnchorPoint: "Anchor-3" 320 0 basechar 0
AnchorPoint: "Anchor-2" 256 0 basechar 0
AnchorPoint: "Anchor-1" 377 484 basechar 0
AnchorPoint: "Anchor-0" 328 484 basechar 0
LayerCount: 2
Fore
SplineSet
267 -10 m 0,0,1
 195 -10 195 -10 143.5 17 c 128,-1,2
 92 44 92 44 64.5 94 c 128,-1,3
 37 144 37 144 37 211 c 0,4,5
 37 277 37 277 58 330 c 128,-1,6
 79 383 79 383 116.5 421 c 128,-1,7
 154 459 154 459 203 479 c 128,-1,8
 252 499 252 499 309 499 c 0,9,10
 381 499 381 499 432.5 472 c 128,-1,11
 484 445 484 445 511.5 395.5 c 128,-1,12
 539 346 539 346 539 278 c 0,13,14
 539 212 539 212 518 159 c 128,-1,15
 497 106 497 106 459.5 68 c 128,-1,16
 422 30 422 30 373 10 c 128,-1,17
 324 -10 324 -10 267 -10 c 0,0,1
270 85 m 0,18,19
 316 85 316 85 347.5 111 c 128,-1,20
 379 137 379 137 396 182 c 128,-1,21
 413 227 413 227 413 282 c 0,22,23
 413 341 413 341 384.5 372.5 c 128,-1,24
 356 404 356 404 306 404 c 0,25,26
 261 404 261 404 229 378 c 128,-1,27
 197 352 197 352 180 307.5 c 128,-1,28
 163 263 163 263 163 207 c 0,29,30
 163 148 163 148 191.5 116.5 c 128,-1,31
 220 85 220 85 270 85 c 0,18,19
EndSplineSet
Substitution2: "Single Substitution lookup 29 subtable" ordmasculine
Substitution2: "'aalt' Access All Alternates lookup 0 subtable" ordmasculine
EndChar

StartChar: oslash
Encoding: 248 248 402
Width: 576
GlyphClass: 2
Flags: W
AnchorPoint: "Anchor-5" 289 245 basechar 0
AnchorPoint: "Anchor-0" 328 484 basechar 0
LayerCount: 2
Fore
SplineSet
268 -10 m 0,0,1
 196 -10 196 -10 144.5 17.5 c 128,-1,2
 93 45 93 45 65.5 95 c 128,-1,3
 38 145 38 145 38 212 c 0,4,5
 38 278 38 278 59 331 c 128,-1,6
 80 384 80 384 117.5 421.5 c 128,-1,7
 155 459 155 459 204 479 c 128,-1,8
 253 499 253 499 310 499 c 0,9,10
 382 499 382 499 433.5 472 c 128,-1,11
 485 445 485 445 512.5 395.5 c 128,-1,12
 540 346 540 346 540 278 c 0,13,14
 540 212 540 212 519 159 c 128,-1,15
 498 106 498 106 460.5 68 c 128,-1,16
 423 30 423 30 374 10 c 128,-1,17
 325 -10 325 -10 268 -10 c 0,0,1
273 78 m 0,18,19
 321 78 321 78 355 104.5 c 128,-1,20
 389 131 389 131 407 177.5 c 128,-1,21
 425 224 425 224 425 284 c 0,22,23
 425 346 425 346 394 378.5 c 128,-1,24
 363 411 363 411 304 411 c 0,25,26
 257 411 257 411 222.5 385 c 128,-1,27
 188 359 188 359 170 312.5 c 128,-1,28
 152 266 152 266 152 206 c 0,29,30
 152 143 152 143 183.5 110.5 c 128,-1,31
 215 78 215 78 273 78 c 0,18,19
131 -29 m 2,32,33
 121 -43 121 -43 107 -44 c 128,-1,34
 93 -45 93 -45 82 -36.5 c 128,-1,35
 71 -28 71 -28 68.5 -14 c 128,-1,36
 66 0 66 0 77 15 c 2,37,-1
 448 517 l 2,38,39
 459 531 459 531 472.5 532 c 128,-1,40
 486 533 486 533 496.5 524.5 c 128,-1,41
 507 516 507 516 509.5 502 c 128,-1,42
 512 488 512 488 501 473 c 2,43,-1
 131 -29 l 2,32,33
EndSplineSet
EndChar

StartChar: oe
Encoding: 339 339 408
Width: 915
GlyphClass: 2
Flags: W
AnchorPoint: "Anchor-2" 434 0 basechar 0
AnchorPoint: "Anchor-0" 512 484 basechar 0
LayerCount: 2
Fore
SplineSet
267 -10 m 0,0,1
 195 -10 195 -10 143.5 17.5 c 128,-1,2
 92 45 92 45 64.5 95 c 128,-1,3
 37 145 37 145 37 212 c 0,4,5
 37 278 37 278 58 331 c 128,-1,6
 79 384 79 384 116.5 421.5 c 128,-1,7
 154 459 154 459 203 479 c 128,-1,8
 252 499 252 499 309 499 c 0,9,10
 380 499 380 499 429 467.5 c 128,-1,11
 478 436 478 436 500 379 c 1,12,-1
 469 379 l 1,13,14
 502 432 502 432 556 465.5 c 128,-1,15
 610 499 610 499 680 499 c 0,16,17
 762 499 762 499 809 463.5 c 128,-1,18
 856 428 856 428 873 371 c 128,-1,19
 890 314 890 314 881 249 c 0,20,21
 878 228 878 228 869.5 222 c 128,-1,22
 861 216 861 216 845 216 c 2,23,-1
 510 216 l 1,24,-1
 520 288 l 1,25,-1
 799 288 l 1,26,-1
 782 273 l 1,27,28
 788 313 788 313 779.5 344.5 c 128,-1,29
 771 376 771 376 747 395 c 128,-1,30
 723 414 723 414 680 414 c 256,31,32
 637 414 637 414 608 394.5 c 128,-1,33
 579 375 579 375 562.5 343.5 c 128,-1,34
 546 312 546 312 540 276 c 2,35,-1
 535 244 l 2,36,37
 523 170 523 170 557.5 128 c 128,-1,38
 592 86 592 86 664 86 c 0,39,40
 694 86 694 86 724 92 c 128,-1,41
 754 98 754 98 783 113 c 0,42,43
 802 123 802 123 816.5 121 c 128,-1,44
 831 119 831 119 840 110 c 128,-1,45
 849 101 849 101 850.5 87.5 c 128,-1,46
 852 74 852 74 845.5 60 c 128,-1,47
 839 46 839 46 823 35 c 0,48,49
 788 12 788 12 741 1 c 128,-1,50
 694 -10 694 -10 654 -10 c 0,51,52
 578 -10 578 -10 523.5 23 c 128,-1,53
 469 56 469 56 445 114 c 1,54,-1
 483 114 l 1,55,56
 449 57 449 57 393 23.5 c 128,-1,57
 337 -10 337 -10 267 -10 c 0,0,1
270 86 m 0,58,59
 316 86 316 86 347.5 112 c 128,-1,60
 379 138 379 138 396 182.5 c 128,-1,61
 413 227 413 227 413 282 c 0,62,63
 413 341 413 341 384.5 372.5 c 128,-1,64
 356 404 356 404 306 404 c 0,65,66
 261 404 261 404 229 378 c 128,-1,67
 197 352 197 352 180 307.5 c 128,-1,68
 163 263 163 263 163 207 c 0,69,70
 163 148 163 148 191.5 117 c 128,-1,71
 220 86 220 86 270 86 c 0,58,59
EndSplineSet
EndChar

StartChar: p
Encoding: 112 112 409
Width: 600
GlyphClass: 2
Flags: W
AnchorPoint: "Anchor-2" 260 0 basechar 0
AnchorPoint: "Anchor-0" 336 484 basechar 0
LayerCount: 2
Fore
SplineSet
60 -188 m 0,0,1
 31 -188 31 -188 17 -169 c 128,-1,2
 3 -150 3 -150 8 -116 c 2,3,-1
 95 433 l 2,4,5
 100 465 100 465 118 481 c 128,-1,6
 136 497 136 497 167 497 c 0,7,8
 196 497 196 497 208.5 478 c 128,-1,9
 221 459 221 459 216 424 c 2,10,-1
 207 368 l 1,11,-1
 205 398 l 1,12,13
 233 447 233 447 277.5 473 c 128,-1,14
 322 499 322 499 379 499 c 0,15,16
 435 499 435 499 476.5 473.5 c 128,-1,17
 518 448 518 448 541 400.5 c 128,-1,18
 564 353 564 353 564 288 c 0,19,20
 564 205 564 205 534.5 137.5 c 128,-1,21
 505 70 505 70 450 30 c 128,-1,22
 395 -10 395 -10 318 -10 c 0,23,24
 262 -10 262 -10 218.5 17 c 128,-1,25
 175 44 175 44 158 97 c 1,26,-1
 167 97 l 1,27,-1
 131 -129 l 2,28,29
 126 -160 126 -160 109 -174 c 128,-1,30
 92 -188 92 -188 60 -188 c 0,0,1
295 85 m 0,31,32
 341 85 341 85 372.5 111 c 128,-1,33
 404 137 404 137 421 182 c 128,-1,34
 438 227 438 227 438 282 c 0,35,36
 438 341 438 341 409.5 372.5 c 128,-1,37
 381 404 381 404 331 404 c 0,38,39
 286 404 286 404 254 378 c 128,-1,40
 222 352 222 352 205 307.5 c 128,-1,41
 188 263 188 263 188 207 c 0,42,43
 188 148 188 148 216.5 116.5 c 128,-1,44
 245 85 245 85 295 85 c 0,31,32
EndSplineSet
EndChar

StartChar: thorn
Encoding: 254 254 410
Width: 600
GlyphClass: 2
Flags: W
AnchorPoint: "Anchor-2" 262 0 basechar 0
AnchorPoint: "Anchor-0" 339 484 basechar 0
LayerCount: 2
Fore
SplineSet
60 -188 m 0,0,1
 31 -188 31 -188 17 -169 c 128,-1,2
 3 -150 3 -150 8 -116 c 2,3,-1
 129 649 l 2,4,5
 134 681 134 681 152 697 c 128,-1,6
 170 713 170 713 201 713 c 0,7,8
 230 713 230 713 244 695.5 c 128,-1,9
 258 678 258 678 253 643 c 2,10,-1
 210 368 l 1,11,-1
 205 398 l 1,12,13
 233 447 233 447 277.5 473 c 128,-1,14
 322 499 322 499 379 499 c 0,15,16
 435 499 435 499 476.5 473.5 c 128,-1,17
 518 448 518 448 541 400.5 c 128,-1,18
 564 353 564 353 564 288 c 0,19,20
 564 205 564 205 534.5 137.5 c 128,-1,21
 505 70 505 70 450 30 c 128,-1,22
 395 -10 395 -10 318 -10 c 0,23,24
 262 -10 262 -10 218.5 17 c 128,-1,25
 175 44 175 44 158 97 c 1,26,-1
 167 97 l 1,27,-1
 131 -129 l 2,28,29
 126 -160 126 -160 109 -174 c 128,-1,30
 92 -188 92 -188 60 -188 c 0,0,1
295 85 m 0,31,32
 341 85 341 85 372.5 111 c 128,-1,33
 404 137 404 137 421 182 c 128,-1,34
 438 227 438 227 438 282 c 0,35,36
 438 341 438 341 409.5 372.5 c 128,-1,37
 381 404 381 404 331 404 c 0,38,39
 286 404 286 404 254 378 c 128,-1,40
 222 352 222 352 205 307.5 c 128,-1,41
 188 263 188 263 188 207 c 0,42,43
 188 148 188 148 216.5 116.5 c 128,-1,44
 245 85 245 85 295 85 c 0,31,32
EndSplineSet
EndChar

StartChar: q
Encoding: 113 113 411
Width: 600
GlyphClass: 2
Flags: W
AnchorPoint: "Anchor-2" 263 0 basechar 0
AnchorPoint: "Anchor-0" 340 484 basechar 0
LayerCount: 2
Fore
SplineSet
404 -188 m 0,0,1
 375 -188 375 -188 361.5 -169 c 128,-1,2
 348 -150 348 -150 353 -116 c 2,3,-1
 386 92 l 1,4,-1
 395 92 l 1,5,6
 368 45 368 45 323 17.5 c 128,-1,7
 278 -10 278 -10 221 -10 c 0,8,9
 165 -10 165 -10 123.5 16 c 128,-1,10
 82 42 82 42 59 89.5 c 128,-1,11
 36 137 36 137 36 201 c 0,12,13
 36 285 36 285 65.5 352.5 c 128,-1,14
 95 420 95 420 151 459.5 c 128,-1,15
 207 499 207 499 284 499 c 0,16,17
 339 499 339 499 381.5 472 c 128,-1,18
 424 445 424 445 441 392 c 1,19,-1
 433 367 l 1,20,-1
 444 436 l 2,21,22
 449 467 449 467 465 482 c 128,-1,23
 481 497 481 497 512 497 c 0,24,25
 541 497 541 497 555 478 c 128,-1,26
 569 459 569 459 564 424 c 2,27,-1
 477 -124 l 2,28,29
 472 -156 472 -156 453.5 -172 c 128,-1,30
 435 -188 435 -188 404 -188 c 0,0,1
269 85 m 0,31,32
 315 85 315 85 346.5 111.5 c 128,-1,33
 378 138 378 138 395 182.5 c 128,-1,34
 412 227 412 227 412 282 c 0,35,36
 412 341 412 341 383.5 372.5 c 128,-1,37
 355 404 355 404 305 404 c 0,38,39
 260 404 260 404 228 378 c 128,-1,40
 196 352 196 352 179 307.5 c 128,-1,41
 162 263 162 263 162 207 c 0,42,43
 162 148 162 148 190.5 116.5 c 128,-1,44
 219 85 219 85 269 85 c 0,31,32
EndSplineSet
EndChar

StartChar: r
Encoding: 114 114 412
Width: 392
GlyphClass: 2
Flags: W
AnchorPoint: "Anchor-2" 90 0 basechar 0
AnchorPoint: "Anchor-0" 263 486 basechar 0
LayerCount: 2
Fore
SplineSet
88 -8 m 0,0,1
 58 -8 58 -8 44.5 10.5 c 128,-1,2
 31 29 31 29 36 63 c 2,3,-1
 95 437 l 2,4,5
 100 467 100 467 118 482 c 128,-1,6
 136 497 136 497 165 497 c 256,7,8
 194 497 194 497 207.5 479 c 128,-1,9
 221 461 221 461 216 427 c 2,10,-1
 207 371 l 1,11,-1
 197 371 l 1,12,13
 217 430 217 430 263 462.5 c 128,-1,14
 309 495 309 495 372 499 c 0,15,16
 400 501 400 501 409.5 491 c 128,-1,17
 419 481 419 481 419 458 c 0,18,19
 419 425 419 425 404 409.5 c 128,-1,20
 389 394 389 394 357 391 c 2,21,-1
 328 388 l 2,22,23
 261 381 261 381 232 347.5 c 128,-1,24
 203 314 203 314 193 254 c 2,25,-1
 161 52 l 2,26,27
 157 22 157 22 138.5 7 c 128,-1,28
 120 -8 120 -8 88 -8 c 0,0,1
EndSplineSet
EndChar

StartChar: s
Encoding: 115 115 420
Width: 488
GlyphClass: 2
Flags: W
AnchorPoint: "Anchor-2" 218 0 basechar 0
AnchorPoint: "Anchor-0" 276 484 basechar 0
LayerCount: 2
Fore
SplineSet
226 -10 m 0,0,1
 179 -10 179 -10 134.5 -0.5 c 128,-1,2
 90 9 90 9 57 25 c 0,3,4
 38 34 38 34 30.5 48.5 c 128,-1,5
 23 63 23 63 24.5 77.5 c 128,-1,6
 26 92 26 92 34.5 102.5 c 128,-1,7
 43 113 43 113 57.5 116 c 128,-1,8
 72 119 72 119 90 110 c 0,9,10
 122 94 122 94 157 86 c 128,-1,11
 192 78 192 78 226 78 c 0,12,13
 273 78 273 78 298 95.5 c 128,-1,14
 323 113 323 113 323 142 c 0,15,16
 323 162 323 162 309 175 c 128,-1,17
 295 188 295 188 268 193 c 2,18,-1
 176 212 l 2,19,20
 121 223 121 223 90.5 255.5 c 128,-1,21
 60 288 60 288 60 337 c 0,22,23
 60 382 60 382 85.5 418.5 c 128,-1,24
 111 455 111 455 160.5 477 c 128,-1,25
 210 499 210 499 280 499 c 0,26,27
 316 499 316 499 357.5 489.5 c 128,-1,28
 399 480 399 480 429 462 c 0,29,30
 446 452 446 452 453 437.5 c 128,-1,31
 460 423 460 423 457.5 409.5 c 128,-1,32
 455 396 455 396 446 386.5 c 128,-1,33
 437 377 437 377 422 375 c 128,-1,34
 407 373 407 373 389 383 c 0,35,36
 364 397 364 397 334 404 c 128,-1,37
 304 411 304 411 274 411 c 0,38,39
 225 411 225 411 199 392.5 c 128,-1,40
 173 374 173 374 173 344 c 0,41,42
 173 326 173 326 184.5 313 c 128,-1,43
 196 300 196 300 221 295 c 2,44,-1
 313 276 l 2,45,46
 373 263 373 263 404.5 231.5 c 128,-1,47
 436 200 436 200 436 151 c 0,48,49
 436 74 436 74 378.5 32 c 128,-1,50
 321 -10 321 -10 226 -10 c 0,0,1
EndSplineSet
EndChar

StartChar: germandbls
Encoding: 223 223 431
Width: 653
GlyphClass: 1
Flags: W
LayerCount: 2
Fore
SplineSet
410 -10 m 0,0,1
 366 -10 366 -10 322.5 1 c 128,-1,2
 279 12 279 12 247 30 c 0,3,4
 230 40 230 40 223.5 54.5 c 128,-1,5
 217 69 217 69 219.5 84 c 128,-1,6
 222 99 222 99 231 110 c 128,-1,7
 240 121 240 121 254.5 124 c 128,-1,8
 269 127 269 127 285 117 c 0,9,10
 315 100 315 100 347.5 91.5 c 128,-1,11
 380 83 380 83 412 83 c 0,12,13
 454 83 454 83 477 98 c 128,-1,14
 500 113 500 113 500 143 c 0,15,16
 500 163 500 163 482.5 179.5 c 128,-1,17
 465 196 465 196 415 213 c 0,18,19
 351 235 351 235 323.5 265 c 128,-1,20
 296 295 296 295 296 337 c 0,21,22
 296 366 296 366 305.5 388.5 c 128,-1,23
 315 411 315 411 335 433.5 c 128,-1,24
 355 456 355 456 388 482 c 0,25,26
 414 503 414 503 429 522 c 128,-1,27
 444 541 444 541 444 569 c 0,28,29
 444 591 444 591 428.5 607.5 c 128,-1,30
 413 624 413 624 378 624 c 0,31,32
 314 624 314 624 276.5 589 c 128,-1,33
 239 554 239 554 228 481 c 2,34,-1
 160 51 l 2,35,36
 156 22 156 22 138.5 7 c 128,-1,37
 121 -8 121 -8 92 -8 c 0,38,39
 61 -8 61 -8 46.5 10 c 128,-1,40
 32 28 32 28 37 61 c 2,41,-1
 100 463 l 2,42,43
 120 588 120 588 187 651.5 c 128,-1,44
 254 715 254 715 381 715 c 0,45,46
 437 715 437 715 477.5 697 c 128,-1,47
 518 679 518 679 540 649 c 128,-1,48
 562 619 562 619 562 583 c 0,49,50
 562 538 562 538 540.5 507 c 128,-1,51
 519 476 519 476 480 443 c 0,52,53
 455 422 455 422 440 408 c 128,-1,54
 425 394 425 394 418 382 c 128,-1,55
 411 370 411 370 411 356 c 0,56,57
 411 337 411 337 428.5 322 c 128,-1,58
 446 307 446 307 495 290 c 0,59,60
 552 270 552 270 583 239 c 128,-1,61
 614 208 614 208 614 156 c 0,62,63
 614 103 614 103 588.5 66 c 128,-1,64
 563 29 563 29 517 9.5 c 128,-1,65
 471 -10 471 -10 410 -10 c 0,0,1
EndSplineSet
Substitution2: "Single Substitution lookup 39 subtable" germandbls.calt
Substitution2: "Single Substitution lookup 38 subtable" germandbls.calt
Substitution2: "'aalt' Access All Alternates lookup 0 subtable" germandbls.calt
EndChar

StartChar: t
Encoding: 116 116 432
Width: 384
GlyphClass: 2
Flags: W
AnchorPoint: "Anchor-5" 182 261 basechar 0
AnchorPoint: "Anchor-2" 200 0 basechar 0
AnchorPoint: "Anchor-1" 353 705 basechar 0
AnchorPoint: "Anchor-0" 219 635 basechar 0
LayerCount: 2
Fore
SplineSet
258 -10 m 0,0,1
 193 -10 193 -10 151 14.5 c 128,-1,2
 109 39 109 39 92.5 82 c 128,-1,3
 76 125 76 125 85 182 c 2,4,-1
 119 395 l 1,5,-1
 75 395 l 2,6,7
 51 395 51 395 37.5 405.5 c 128,-1,8
 24 416 24 416 24 435 c 0,9,10
 24 461 24 461 41 475 c 128,-1,11
 58 489 58 489 87 489 c 2,12,-1
 134 489 l 1,13,-1
 149 585 l 2,14,15
 154 614 154 614 171 628.5 c 128,-1,16
 188 643 188 643 217 643 c 0,17,18
 249 643 249 643 263 625 c 128,-1,19
 277 607 277 607 272 574 c 2,20,-1
 259 489 l 1,21,-1
 357 489 l 2,22,23
 382 489 382 489 395.5 479.5 c 128,-1,24
 409 470 409 470 409 450 c 0,25,26
 409 426 409 426 393.5 410.5 c 128,-1,27
 378 395 378 395 351 395 c 2,28,-1
 244 395 l 1,29,-1
 211 190 l 2,30,31
 203 138 203 138 224 115.5 c 128,-1,32
 245 93 245 93 283 93 c 0,33,34
 301 93 301 93 311.5 96 c 128,-1,35
 322 99 322 99 332 99 c 0,36,37
 346 99 346 99 352.5 91.5 c 128,-1,38
 359 84 359 84 359 64 c 0,39,40
 359 30 359 30 348 17 c 128,-1,41
 337 4 337 4 318 -2 c 0,42,43
 306 -6 306 -6 289 -8 c 128,-1,44
 272 -10 272 -10 258 -10 c 0,0,1
EndSplineSet
EndChar

StartChar: u
Encoding: 117 117 440
Width: 579
GlyphClass: 2
Flags: W
AnchorPoint: "Anchor-3" 440 0 basechar 0
AnchorPoint: "Anchor-2" 251 0 basechar 0
AnchorPoint: "Anchor-1" 457 484 basechar 0
AnchorPoint: "Anchor-0" 325 485 basechar 0
LayerCount: 2
Fore
SplineSet
201 -10 m 0,0,1
 149 -10 149 -10 112 12 c 128,-1,2
 75 34 75 34 59.5 80 c 128,-1,3
 44 126 44 126 55 197 c 2,4,-1
 94 439 l 2,5,6
 99 469 99 469 116 483 c 128,-1,7
 133 497 133 497 162 497 c 0,8,9
 193 497 193 497 207.5 479.5 c 128,-1,10
 222 462 222 462 217 428 c 2,11,-1
 181 198 l 2,12,13
 173 143 173 143 189.5 116 c 128,-1,14
 206 89 206 89 251 89 c 0,15,16
 307 89 307 89 342 126 c 128,-1,17
 377 163 377 163 387 227 c 2,18,-1
 420 439 l 2,19,20
 425 469 425 469 442 483 c 128,-1,21
 459 497 459 497 488 497 c 0,22,23
 520 497 520 497 534 479 c 128,-1,24
 548 461 548 461 543 427 c 2,25,-1
 484 51 l 2,26,27
 475 -8 475 -8 416 -8 c 0,28,29
 387 -8 387 -8 373 8 c 128,-1,30
 359 24 359 24 363 57 c 2,31,-1
 373 129 l 1,32,-1
 380 102 l 1,33,34
 354 47 354 47 307.5 18.5 c 128,-1,35
 261 -10 261 -10 201 -10 c 0,0,1
EndSplineSet
EndChar

StartChar: uhorn
Encoding: 432 432 450
Width: 579
GlyphClass: 2
Flags: W
AnchorPoint: "Anchor-2" 251 0 basechar 0
AnchorPoint: "Anchor-0" 325 485 basechar 0
LayerCount: 2
Fore
SplineSet
201 -10 m 0,0,1
 149 -10 149 -10 112 12 c 128,-1,2
 75 34 75 34 59.5 80 c 128,-1,3
 44 126 44 126 55 197 c 2,4,-1
 94 439 l 2,5,6
 99 468 99 468 116 482.5 c 128,-1,7
 133 497 133 497 162 497 c 0,8,9
 193 497 193 497 207.5 479 c 128,-1,10
 222 461 222 461 217 428 c 2,11,-1
 181 198 l 2,12,13
 173 143 173 143 189.5 116 c 128,-1,14
 206 89 206 89 251 89 c 0,15,16
 307 89 307 89 342 126 c 128,-1,17
 377 163 377 163 387 227 c 2,18,-1
 419 434 l 2,19,20
 424 463 424 463 440.5 477.5 c 128,-1,21
 457 492 457 492 485 493 c 0,22,23
 513 495 513 495 529 506.5 c 128,-1,24
 545 518 545 518 554 538 c 128,-1,25
 563 558 563 558 568 584 c 0,26,27
 575 624 575 624 627 624 c 0,28,29
 653 624 653 624 666.5 613 c 128,-1,30
 680 602 680 602 677 581 c 0,31,32
 669 523 669 523 635.5 481 c 128,-1,33
 602 439 602 439 543 428 c 1,34,-1
 484 51 l 2,35,36
 475 -8 475 -8 416 -8 c 0,37,38
 387 -8 387 -8 373 8 c 128,-1,39
 359 24 359 24 363 57 c 2,40,-1
 373 129 l 1,41,-1
 380 102 l 1,42,43
 354 47 354 47 307.5 18.5 c 128,-1,44
 261 -10 261 -10 201 -10 c 0,0,1
EndSplineSet
EndChar

StartChar: uogonek
Encoding: 371 371 460
Width: 579
GlyphClass: 1
Flags: W
LayerCount: 2
Fore
SplineSet
373 129 m 1,0,-1
 380 102 l 1,1,2
 354 47 354 47 307.5 18.5 c 128,-1,3
 261 -10 261 -10 201 -10 c 0,4,5
 149 -10 149 -10 112 12 c 128,-1,6
 75 34 75 34 59.5 80 c 128,-1,7
 44 126 44 126 55 197 c 2,8,-1
 94 439 l 2,9,10
 99 468 99 468 116 482.5 c 128,-1,11
 133 497 133 497 162 497 c 0,12,13
 193 497 193 497 207.5 479 c 128,-1,14
 222 461 222 461 217 428 c 2,15,-1
 181 198 l 2,16,17
 173 143 173 143 189.5 116 c 128,-1,18
 206 89 206 89 251 89 c 0,19,20
 307 89 307 89 342 126 c 128,-1,21
 377 163 377 163 387 227 c 2,22,-1
 420 439 l 2,23,24
 425 468 425 468 442 482.5 c 128,-1,25
 459 497 459 497 488 497 c 0,26,27
 520 497 520 497 534 478.5 c 128,-1,28
 548 460 548 460 543 427 c 2,29,-1
 484 51 l 2,30,31
 480 26 480 26 468 13 c 128,-1,32
 456 0 456 0 436 -6 c 0,33,34
 405 -15 405 -15 389 -35 c 128,-1,35
 373 -55 373 -55 373 -81 c 0,36,37
 373 -102 373 -102 387 -115 c 128,-1,38
 401 -128 401 -128 424 -128 c 0,39,40
 432 -128 432 -128 440 -127 c 128,-1,41
 448 -126 448 -126 458 -123 c 0,42,43
 474 -118 474 -118 482.5 -125 c 128,-1,44
 491 -132 491 -132 492.5 -144.5 c 128,-1,45
 494 -157 494 -157 488.5 -168 c 128,-1,46
 483 -179 483 -179 471 -184 c 0,47,48
 456 -189 456 -189 437.5 -192 c 128,-1,49
 419 -195 419 -195 401 -195 c 0,50,51
 347 -195 347 -195 320.5 -168.5 c 128,-1,52
 294 -142 294 -142 294 -103 c 0,53,54
 294 -62 294 -62 314.5 -29.5 c 128,-1,55
 335 3 335 3 375 26 c 1,56,-1
 367 17 l 1,57,58
 363 26 363 26 362.5 35 c 128,-1,59
 362 44 362 44 363 57 c 2,60,-1
 373 129 l 1,0,-1
EndSplineSet
EndChar

StartChar: v
Encoding: 118 118 464
Width: 527
GlyphClass: 2
Flags: W
AnchorPoint: "Anchor-2" 226 0 basechar 0
AnchorPoint: "Anchor-0" 302 484 basechar 0
LayerCount: 2
Fore
SplineSet
229 -8 m 0,0,1
 199 -8 199 -8 181.5 7 c 128,-1,2
 164 22 164 22 156 51 c 2,3,-1
 57 411 l 2,4,5
 50 436 50 436 55 455.5 c 128,-1,6
 60 475 60 475 75 486 c 128,-1,7
 90 497 90 497 113 497 c 0,8,9
 139 497 139 497 153.5 484.5 c 128,-1,10
 168 472 168 472 175 440 c 2,11,-1
 254 110 l 1,12,-1
 224 110 l 1,13,-1
 420 454 l 2,14,15
 434 478 434 478 449 487.5 c 128,-1,16
 464 497 464 497 488 497 c 256,17,18
 512 497 512 497 525.5 486.5 c 128,-1,19
 539 476 539 476 540 458.5 c 128,-1,20
 541 441 541 441 529 420 c 2,21,-1
 302 39 l 2,22,23
 287 14 287 14 269.5 3 c 128,-1,24
 252 -8 252 -8 229 -8 c 0,0,1
EndSplineSet
EndChar

StartChar: w
Encoding: 119 119 465
Width: 853
GlyphClass: 2
Flags: W
AnchorPoint: "Anchor-2" 387 0 basechar 0
AnchorPoint: "Anchor-0" 455 484 basechar 0
LayerCount: 2
Fore
SplineSet
215 -8 m 0,0,1
 190 -8 190 -8 173 6 c 128,-1,2
 156 20 156 20 149 50 c 2,3,-1
 64 411 l 2,4,5
 58 437 58 437 63.5 456 c 128,-1,6
 69 475 69 475 84 486 c 128,-1,7
 99 497 99 497 121 497 c 0,8,9
 145 497 145 497 157.5 484.5 c 128,-1,10
 170 472 170 472 176 442 c 2,11,-1
 243 114 l 1,12,-1
 218 114 l 1,13,-1
 401 460 l 2,14,15
 412 480 412 480 425.5 488.5 c 128,-1,16
 439 497 439 497 460 497 c 0,17,18
 480 497 480 497 493.5 486 c 128,-1,19
 507 475 507 475 512 451 c 2,20,-1
 581 114 l 1,21,-1
 561 114 l 1,22,-1
 737 451 l 2,23,24
 751 477 751 477 766 487 c 128,-1,25
 781 497 781 497 806 497 c 0,26,27
 830 497 830 497 843 486.5 c 128,-1,28
 856 476 856 476 857 459 c 128,-1,29
 858 442 858 442 847 421 c 2,30,-1
 637 39 l 2,31,32
 624 15 624 15 605.5 3.5 c 128,-1,33
 587 -8 587 -8 562 -8 c 256,34,35
 537 -8 537 -8 519.5 6.5 c 128,-1,36
 502 21 502 21 495 50 c 2,37,-1
 420 391 l 1,38,-1
 477 391 l 1,39,-1
 291 41 l 2,40,41
 278 16 278 16 259.5 4 c 128,-1,42
 241 -8 241 -8 215 -8 c 0,0,1
EndSplineSet
EndChar

StartChar: x
Encoding: 120 120 470
Width: 546
GlyphClass: 2
Flags: W
AnchorPoint: "Anchor-2" 234 0 basechar 0
AnchorPoint: "Anchor-0" 310 484 basechar 0
LayerCount: 2
Fore
SplineSet
66 -8 m 0,0,1
 41 -8 41 -8 27 5 c 128,-1,2
 13 18 13 18 13.5 37.5 c 128,-1,3
 14 57 14 57 31 75 c 2,4,-1
 224 276 l 1,5,-1
 223 223 l 1,6,-1
 100 412 l 2,7,8
 86 435 86 435 88.5 454 c 128,-1,9
 91 473 91 473 105.5 485 c 128,-1,10
 120 497 120 497 142 497 c 0,11,12
 162 497 162 497 178.5 487.5 c 128,-1,13
 195 478 195 478 208 458 c 2,14,-1
 301 310 l 1,15,-1
 267 310 l 1,16,-1
 406 464 l 2,17,18
 422 481 422 481 436 489 c 128,-1,19
 450 497 450 497 472 497 c 0,20,21
 498 497 498 497 511.5 484 c 128,-1,22
 525 471 525 471 524.5 452 c 128,-1,23
 524 433 524 433 507 415 c 2,24,-1
 327 224 l 1,25,-1
 327 280 l 1,26,-1
 460 78 l 2,27,28
 475 56 475 56 472 36 c 128,-1,29
 469 16 469 16 454 4 c 128,-1,30
 439 -8 439 -8 417 -8 c 0,31,32
 398 -8 398 -8 381 2 c 128,-1,33
 364 12 364 12 352 31 c 2,34,-1
 249 192 l 1,35,-1
 289 191 l 1,36,-1
 131 25 l 2,37,38
 115 9 115 9 101.5 0.5 c 128,-1,39
 88 -8 88 -8 66 -8 c 0,0,1
EndSplineSet
EndChar

StartChar: y
Encoding: 121 121 471
Width: 526
GlyphClass: 2
Flags: W
AnchorPoint: "Anchor-2" 371 0 basechar 0
AnchorPoint: "Anchor-0" 288 484 basechar 0
LayerCount: 2
Fore
SplineSet
124 -188 m 256,0,1
 100 -188 100 -188 87 -177 c 128,-1,2
 74 -166 74 -166 73 -148.5 c 128,-1,3
 72 -131 72 -131 84 -111 c 2,4,-1
 179 45 l 1,5,-1
 171 -7 l 1,6,-1
 56 411 l 2,7,8
 49 436 49 436 54 455.5 c 128,-1,9
 59 475 59 475 74.5 486 c 128,-1,10
 90 497 90 497 113 497 c 0,11,12
 139 497 139 497 152.5 484.5 c 128,-1,13
 166 472 166 472 173 440 c 2,14,-1
 253 109 l 1,15,-1
 222 109 l 1,16,-1
 418 452 l 2,17,18
 432 476 432 476 447 486.5 c 128,-1,19
 462 497 462 497 486 497 c 256,20,21
 510 497 510 497 523.5 486 c 128,-1,22
 537 475 537 475 538.5 457.5 c 128,-1,23
 540 440 540 440 528 419 c 2,24,-1
 192 -143 l 2,25,26
 178 -167 178 -167 163 -177.5 c 128,-1,27
 148 -188 148 -188 124 -188 c 256,0,1
EndSplineSet
EndChar

StartChar: uni01B4
Encoding: 436 436 478
Width: 571
GlyphClass: 1
Flags: W
LayerCount: 2
Fore
SplineSet
124 -188 m 256,0,1
 100 -188 100 -188 87 -177 c 128,-1,2
 74 -166 74 -166 73 -148.5 c 128,-1,3
 72 -131 72 -131 84 -111 c 2,4,-1
 179 45 l 1,5,-1
 171 -7 l 1,6,-1
 56 411 l 2,7,8
 49 436 49 436 54 455.5 c 128,-1,9
 59 475 59 475 74.5 486 c 128,-1,10
 90 497 90 497 113 497 c 0,11,12
 139 497 139 497 152.5 484.5 c 128,-1,13
 166 472 166 472 173 440 c 2,14,-1
 253 109 l 1,15,-1
 222 109 l 1,16,-1
 376 379 l 2,17,18
 401 423 401 423 427 449.5 c 128,-1,19
 453 476 453 476 486.5 487.5 c 128,-1,20
 520 499 520 499 565 499 c 0,21,22
 611 499 611 499 628 487 c 128,-1,23
 645 475 645 475 645 452 c 0,24,25
 645 431 645 431 635.5 415 c 128,-1,26
 626 399 626 399 611 399 c 0,27,28
 607 399 607 399 595.5 400 c 128,-1,29
 584 401 584 401 573 401 c 0,30,31
 545 401 545 401 521.5 386 c 128,-1,32
 498 371 498 371 474 330 c 2,33,-1
 192 -143 l 2,34,35
 178 -167 178 -167 163 -177.5 c 128,-1,36
 148 -188 148 -188 124 -188 c 256,0,1
EndSplineSet
EndChar

StartChar: z
Encoding: 122 122 482
Width: 474
GlyphClass: 2
Flags: W
AnchorPoint: "Anchor-2" 213 0 basechar 0
AnchorPoint: "Anchor-0" 278 484 basechar 0
LayerCount: 2
Fore
SplineSet
69 0 m 2,0,1
 48 0 48 0 35 8.5 c 128,-1,2
 22 17 22 17 17 31 c 128,-1,3
 12 45 12 45 16.5 61.5 c 128,-1,4
 21 78 21 78 36 94 c 2,5,-1
 345 425 l 1,6,-1
 349 395 l 1,7,-1
 122 395 l 2,8,9
 98 395 98 395 85 405.5 c 128,-1,10
 72 416 72 416 72 434 c 0,11,12
 72 460 72 460 87.5 474.5 c 128,-1,13
 103 489 103 489 128 489 c 2,14,-1
 417 489 l 2,15,16
 438 489 438 489 451.5 480.5 c 128,-1,17
 465 472 465 472 469.5 458 c 128,-1,18
 474 444 474 444 468.5 426.5 c 128,-1,19
 463 409 463 409 447 392 c 2,20,-1
 137 61 l 1,21,-1
 133 94 l 1,22,-1
 375 94 l 2,23,24
 425 94 425 94 425 55 c 0,25,26
 425 30 425 30 410 15 c 128,-1,27
 395 0 395 0 369 0 c 2,28,-1
 69 0 l 2,0,1
EndSplineSet
EndChar

StartChar: germandbls.calt
Encoding: 65540 -1 487
Width: 730
GlyphClass: 1
Flags: W
LayerCount: 2
Fore
SplineSet
422 -10 m 0,0,1
 379 -10 379 -10 338 0.5 c 128,-1,2
 297 11 297 11 262 32 c 0,3,4
 246 42 246 42 240.5 57 c 128,-1,5
 235 72 235 72 238.5 87 c 128,-1,6
 242 102 242 102 252 113 c 128,-1,7
 262 124 262 124 277 127.5 c 128,-1,8
 292 131 292 131 309 121 c 0,9,10
 337 105 337 105 364 99.5 c 128,-1,11
 391 94 391 94 419 94 c 0,12,13
 480 94 480 94 513 125 c 128,-1,14
 546 156 546 156 546 209 c 0,15,16
 546 252 546 252 515.5 277.5 c 128,-1,17
 485 303 485 303 421 303 c 2,18,-1
 356 303 l 2,19,20
 338 303 338 303 326 313.5 c 128,-1,21
 314 324 314 324 314 342 c 0,22,23
 314 371 314 371 327 387 c 128,-1,24
 340 403 340 403 366 403 c 2,25,-1
 427 403 l 2,26,27
 489 403 489 403 523.5 431 c 128,-1,28
 558 459 558 459 558 516 c 0,29,30
 558 557 558 557 523.5 583.5 c 128,-1,31
 489 610 489 610 423 610 c 0,32,33
 338 610 338 610 294 570.5 c 128,-1,34
 250 531 250 531 237 449 c 2,35,-1
 174 53 l 2,36,37
 170 23 170 23 152.5 7.5 c 128,-1,38
 135 -8 135 -8 104 -8 c 256,39,40
 73 -8 73 -8 58 10.5 c 128,-1,41
 43 29 43 29 48 63 c 2,42,-1
 111 461 l 2,43,44
 126 553 126 553 167 608.5 c 128,-1,45
 208 664 208 664 275 689.5 c 128,-1,46
 342 715 342 715 434 715 c 0,47,48
 515 715 515 715 570 690.5 c 128,-1,49
 625 666 625 666 653.5 624.5 c 128,-1,50
 682 583 682 583 682 533 c 0,51,52
 682 464 682 464 638.5 414.5 c 128,-1,53
 595 365 595 365 526 351 c 1,54,-1
 526 367 l 1,55,56
 572 359 572 359 603.5 335 c 128,-1,57
 635 311 635 311 652 275.5 c 128,-1,58
 669 240 669 240 669 199 c 0,59,60
 669 140 669 140 641 92.5 c 128,-1,61
 613 45 613 45 558 17.5 c 128,-1,62
 503 -10 503 -10 422 -10 c 0,0,1
EndSplineSet
EndChar

StartChar: a.ss01
Encoding: 65542 -1 489
Width: 600
GlyphClass: 2
Flags: W
AnchorPoint: "Anchor-3" 461 0 basechar 0
AnchorPoint: "Anchor-2" 266 0 basechar 0
AnchorPoint: "Anchor-0" 328 484 basechar 0
LayerCount: 2
Fore
SplineSet
221 -10 m 0,0,1
 165 -10 165 -10 123.5 16 c 128,-1,2
 82 42 82 42 59 89.5 c 128,-1,3
 36 137 36 137 36 201 c 0,4,5
 36 285 36 285 65.5 352.5 c 128,-1,6
 95 420 95 420 150.5 459.5 c 128,-1,7
 206 499 206 499 282 499 c 0,8,9
 338 499 338 499 382 471 c 128,-1,10
 426 443 426 443 442 390 c 1,11,-1
 433 369 l 1,12,-1
 443 434 l 2,13,14
 448 465 448 465 466 481 c 128,-1,15
 484 497 484 497 514 497 c 0,16,17
 543 497 543 497 556 478.5 c 128,-1,18
 569 460 569 460 564 425 c 2,19,-1
 505 54 l 2,20,21
 500 23 500 23 482 7.5 c 128,-1,22
 464 -8 464 -8 433 -8 c 0,23,24
 404 -8 404 -8 392.5 12 c 128,-1,25
 381 32 381 32 386 66 c 2,26,-1
 395 122 l 1,27,-1
 395 92 l 1,28,29
 368 45 368 45 323.5 17.5 c 128,-1,30
 279 -10 279 -10 221 -10 c 0,0,1
269 85 m 0,31,32
 315 85 315 85 346.5 111 c 128,-1,33
 378 137 378 137 395 182 c 128,-1,34
 412 227 412 227 412 282 c 0,35,36
 412 341 412 341 383.5 372.5 c 128,-1,37
 355 404 355 404 305 404 c 0,38,39
 260 404 260 404 228 378 c 128,-1,40
 196 352 196 352 179 307.5 c 128,-1,41
 162 263 162 263 162 207 c 0,42,43
 162 148 162 148 190.5 116.5 c 128,-1,44
 219 85 219 85 269 85 c 0,31,32
EndSplineSet
EndChar

StartChar: l.ss02
Encoding: 65569 -1 516
Width: 254
GlyphClass: 2
Flags: W
AnchorPoint: "Anchor-5" 146 357 basechar 0
AnchorPoint: "Anchor-2" 88 0 basechar 0
AnchorPoint: "Anchor-1" 303 705 basechar 0
AnchorPoint: "Anchor-0" 200 705 basechar 0
LayerCount: 2
Fore
SplineSet
87 -8 m 0,0,1
 58 -8 58 -8 44.5 11 c 128,-1,2
 31 30 31 30 36 64 c 2,3,-1
 129 650 l 2,4,5
 134 682 134 682 152 697.5 c 128,-1,6
 170 713 170 713 201 713 c 0,7,8
 230 713 230 713 244 695 c 128,-1,9
 258 677 258 677 253 641 c 2,10,-1
 159 51 l 2,11,12
 149 -8 149 -8 87 -8 c 0,0,1
EndSplineSet
EndChar

StartChar: fi
Encoding: 64257 64257 525
Width: 611
GlyphClass: 3
LigCaretCntFixed: 1
Flags: W
LayerCount: 2
Fore
SplineSet
121 -8 m 0,0,1
 92 -8 92 -8 78.5 11.5 c 128,-1,2
 65 31 65 31 70 65 c 2,3,-1
 123 395 l 1,4,-1
 81 395 l 2,5,6
 57 395 57 395 44.5 405 c 128,-1,7
 32 415 32 415 32 433 c 0,8,9
 32 459 32 459 47.5 474 c 128,-1,10
 63 489 63 489 89 489 c 2,11,-1
 151 489 l 1,12,-1
 135 476 l 1,13,-1
 141 513 l 2,14,15
 155 599 155 599 209.5 649 c 128,-1,16
 264 699 264 699 366 706 c 2,17,-1
 396 708 l 2,18,19
 416 709 416 709 427 700.5 c 128,-1,20
 438 692 438 692 442 678.5 c 128,-1,21
 446 665 446 665 442.5 651 c 128,-1,22
 439 637 439 637 429.5 627 c 128,-1,23
 420 617 420 617 405 616 c 2,24,-1
 377 614 l 2,25,26
 328 610 328 610 301 586 c 128,-1,27
 274 562 274 562 266 515 c 2,28,-1
 260 479 l 1,29,-1
 251 489 l 1,30,-1
 522 489 l 2,31,32
 551 489 551 489 565 473.5 c 128,-1,33
 579 458 579 458 574 426 c 2,34,-1
 515 54 l 2,35,36
 511 23 511 23 493 7.5 c 128,-1,37
 475 -8 475 -8 443 -8 c 0,38,39
 414 -8 414 -8 400 11.5 c 128,-1,40
 386 31 386 31 391 65 c 2,41,-1
 444 395 l 1,42,-1
 248 395 l 1,43,-1
 193 54 l 2,44,45
 182 -8 182 -8 121 -8 c 0,0,1
542 589 m 0,46,47
 510 589 510 589 493.5 605.5 c 128,-1,48
 477 622 477 622 481 652 c 0,49,50
 485 685 485 685 506 703 c 128,-1,51
 527 721 527 721 563 721 c 0,52,53
 595 721 595 721 612 704.5 c 128,-1,54
 629 688 629 688 625 658 c 0,55,56
 621 624 621 624 600 606.5 c 128,-1,57
 579 589 579 589 542 589 c 0,46,47
EndSplineSet
Ligature2: "'liga' Standard Ligatures lookup 33 subtable" f i
LCarets2: 1 306
EndChar

StartChar: ordfeminine
Encoding: 170 170 529
Width: 339
GlyphClass: 1
Flags: W
LayerCount: 2
Fore
SplineSet
165 408 m 0,0,1
 122 408 122 408 92.5 435.5 c 128,-1,2
 63 463 63 463 63 500 c 0,3,4
 63 546 63 546 107.5 567.5 c 128,-1,5
 152 589 152 589 238 589 c 2,6,-1
 297 589 l 1,7,-1
 290 545 l 1,8,-1
 242 545 l 2,9,10
 191 545 191 545 167.5 535.5 c 128,-1,11
 144 526 144 526 144 505 c 0,12,13
 144 486 144 486 157 474.5 c 128,-1,14
 170 463 170 463 191 463 c 0,15,16
 211 463 211 463 228.5 472 c 128,-1,17
 246 481 246 481 258 496 c 128,-1,18
 270 511 270 511 273 530 c 2,19,-1
 284 599 l 2,20,21
 289 627 289 627 273.5 640.5 c 128,-1,22
 258 654 258 654 226 654 c 0,23,24
 208 654 208 654 188 650.5 c 128,-1,25
 168 647 168 647 150 639 c 0,26,27
 134 634 134 634 123 639.5 c 128,-1,28
 112 645 112 645 108.5 656 c 128,-1,29
 105 667 105 667 111 678.5 c 128,-1,30
 117 690 117 690 133 696 c 0,31,32
 154 705 154 705 180 710 c 128,-1,33
 206 715 206 715 234 715 c 0,34,35
 283 715 283 715 313 697 c 128,-1,36
 343 679 343 679 355 648.5 c 128,-1,37
 367 618 367 618 361 579 c 2,38,-1
 339 444 l 2,39,40
 333 408 333 408 298 408 c 0,41,42
 278 408 278 408 269.5 419.5 c 128,-1,43
 261 431 261 431 263 447 c 2,44,-1
 267 469 l 1,45,-1
 264 469 l 1,46,47
 247 439 247 439 222 423.5 c 128,-1,48
 197 408 197 408 165 408 c 0,0,1
EndSplineSet
EndChar

StartChar: ordmasculine
Encoding: 186 186 530
Width: 353
GlyphClass: 1
Flags: W
LayerCount: 2
Fore
SplineSet
221 410 m 0,0,1
 177 410 177 410 143 427.5 c 128,-1,2
 109 445 109 445 89.5 477 c 128,-1,3
 70 509 70 509 70 552 c 0,4,5
 70 602 70 602 92 639 c 128,-1,6
 114 676 114 676 150.5 695.5 c 128,-1,7
 187 715 187 715 232 715 c 0,8,9
 276 715 276 715 310 697.5 c 128,-1,10
 344 680 344 680 363.5 648.5 c 128,-1,11
 383 617 383 617 383 573 c 0,12,13
 383 523 383 523 361.5 486 c 128,-1,14
 340 449 340 449 303 429.5 c 128,-1,15
 266 410 266 410 221 410 c 0,0,1
222 472 m 0,16,17
 257 472 257 472 278.5 497.5 c 128,-1,18
 300 523 300 523 300 574 c 0,19,20
 300 612 300 612 281 632.5 c 128,-1,21
 262 653 262 653 231 653 c 0,22,23
 197 653 197 653 175 627.5 c 128,-1,24
 153 602 153 602 153 551 c 0,25,26
 153 513 153 513 172 492.5 c 128,-1,27
 191 472 191 472 222 472 c 0,16,17
EndSplineSet
EndChar

StartChar: uni0411
Encoding: 1041 1041 532
Width: 673
GlyphClass: 1
Flags: W
LayerCount: 2
Fore
SplineSet
112 0 m 2,0,1
 78 0 78 0 61.5 19.5 c 128,-1,2
 45 39 45 39 50 73 c 2,3,-1
 140 643 l 2,4,5
 145 674 145 674 163.5 689.5 c 128,-1,6
 182 705 182 705 213 705 c 2,7,-1
 579 705 l 2,8,9
 605 705 605 705 619 694.5 c 128,-1,10
 633 684 633 684 633 664 c 0,11,12
 633 636 633 636 617.5 619.5 c 128,-1,13
 602 603 602 603 573 603 c 2,14,-1
 258 603 l 1,15,-1
 227 411 l 1,16,-1
 394 411 l 2,17,18
 512 411 512 411 570.5 359 c 128,-1,19
 629 307 629 307 629 225 c 0,20,21
 629 115 629 115 560 57.5 c 128,-1,22
 491 0 491 0 358 0 c 2,23,-1
 112 0 l 2,0,1
178 102 m 1,24,-1
 362 102 l 2,25,26
 433 102 433 102 469 131 c 128,-1,27
 505 160 505 160 505 218 c 0,28,29
 505 265 505 265 474.5 287 c 128,-1,30
 444 309 444 309 377 309 c 2,31,-1
 211 309 l 1,32,-1
 178 102 l 1,24,-1
EndSplineSet
EndChar

StartChar: uni0413
Encoding: 1043 1043 534
Width: 559
GlyphClass: 2
Flags: W
AnchorPoint: "Anchor-4" 180 356 basechar 0
AnchorPoint: "Anchor-0" 353 705 basechar 0
LayerCount: 2
Fore
SplineSet
103 -8 m 0,0,1
 70 -8 70 -8 56.5 12 c 128,-1,2
 43 32 43 32 49 68 c 2,3,-1
 140 643 l 2,4,5
 145 674 145 674 163 689.5 c 128,-1,6
 181 705 181 705 212 705 c 2,7,-1
 561 705 l 2,8,9
 588 705 588 705 603 694 c 128,-1,10
 618 683 618 683 618 662 c 0,11,12
 618 632 618 632 601 615 c 128,-1,13
 584 598 584 598 554 598 c 2,14,-1
 261 598 l 1,15,-1
 175 57 l 2,16,17
 170 25 170 25 152.5 8.5 c 128,-1,18
 135 -8 135 -8 103 -8 c 0,0,1
EndSplineSet
EndChar

StartChar: uni0490
Encoding: 1168 1168 536
Width: 559
GlyphClass: 1
Flags: W
LayerCount: 2
Fore
SplineSet
104 -8 m 0,0,1
 71 -8 71 -8 57 12 c 128,-1,2
 43 32 43 32 49 68 c 2,3,-1
 140 643 l 2,4,5
 145 674 145 674 163.5 689.5 c 128,-1,6
 182 705 182 705 213 705 c 2,7,-1
 501 705 l 1,8,-1
 520 820 l 2,9,10
 529 873 529 873 582 873 c 0,11,12
 610 873 610 873 623.5 856 c 128,-1,13
 637 839 637 839 632 810 c 2,14,-1
 608 660 l 2,15,16
 603 629 603 629 585 613.5 c 128,-1,17
 567 598 567 598 536 598 c 2,18,-1
 261 598 l 1,19,-1
 175 57 l 2,20,21
 170 25 170 25 153 8.5 c 128,-1,22
 136 -8 136 -8 104 -8 c 0,0,1
EndSplineSet
EndChar

StartChar: uni04F6
Encoding: 1270 1270 537
Width: 559
GlyphClass: 1
Flags: W
LayerCount: 2
Fore
SplineSet
183 -173 m 0,0,1
 158 -173 158 -173 145.5 -155.5 c 128,-1,2
 133 -138 133 -138 138 -107 c 2,3,-1
 155 0 l 1,4,-1
 104 0 l 2,5,6
 71 0 71 0 57.5 20 c 128,-1,7
 44 40 44 40 50 76 c 2,8,-1
 140 643 l 2,9,10
 145 674 145 674 163 689.5 c 128,-1,11
 181 705 181 705 212 705 c 2,12,-1
 561 705 l 2,13,14
 588 705 588 705 603 694 c 128,-1,15
 618 683 618 683 618 662 c 0,16,17
 618 632 618 632 601 615 c 128,-1,18
 584 598 584 598 554 598 c 2,19,-1
 261 598 l 1,20,-1
 176 65 l 1,21,-1
 143 103 l 1,22,-1
 215 103 l 2,23,24
 247 103 247 103 262 85.5 c 128,-1,25
 277 68 277 68 272 36 c 2,26,-1
 248 -117 l 2,27,28
 244 -145 244 -145 228 -159 c 128,-1,29
 212 -173 212 -173 183 -173 c 0,0,1
EndSplineSet
EndChar

StartChar: uni0492
Encoding: 1170 1170 538
Width: 601
GlyphClass: 1
Flags: W
LayerCount: 2
Fore
SplineSet
146 -8 m 0,0,1
 113 -8 113 -8 99.5 13 c 128,-1,2
 86 34 86 34 91 68 c 2,3,-1
 128 301 l 1,4,-1
 86 301 l 2,5,6
 62 301 62 301 48.5 311.5 c 128,-1,7
 35 322 35 322 35 340 c 0,8,9
 35 366 35 366 50 380 c 128,-1,10
 65 394 65 394 92 394 c 2,11,-1
 143 394 l 1,12,-1
 182 643 l 2,13,14
 187 674 187 674 205.5 689.5 c 128,-1,15
 224 705 224 705 255 705 c 2,16,-1
 604 705 l 2,17,18
 631 705 631 705 646 694 c 128,-1,19
 661 683 661 683 661 662 c 0,20,21
 661 632 661 632 644 615 c 128,-1,22
 627 598 627 598 597 598 c 2,23,-1
 303 598 l 1,24,-1
 271 394 l 1,25,-1
 399 394 l 2,26,27
 423 394 423 394 436.5 384 c 128,-1,28
 450 374 450 374 450 356 c 0,29,30
 450 331 450 331 434.5 316 c 128,-1,31
 419 301 419 301 393 301 c 2,32,-1
 256 301 l 1,33,-1
 217 57 l 2,34,35
 212 25 212 25 195 8.5 c 128,-1,36
 178 -8 178 -8 146 -8 c 0,0,1
EndSplineSet
Substitution2: "'locl' Localized Forms in Cyrillic lookup 16 subtable" uni0492.loclBSH
Substitution2: "'aalt' Access All Alternates lookup 0 subtable" uni0492.loclBSH
EndChar

StartChar: uni0494
Encoding: 1172 1172 539
Width: 700
GlyphClass: 1
Flags: W
LayerCount: 2
Fore
SplineSet
371 -190 m 0,0,1
 349 -190 349 -190 326 -188 c 128,-1,2
 303 -186 303 -186 285 -182 c 0,3,4
 266 -178 266 -178 256 -166 c 128,-1,5
 246 -154 246 -154 245 -139 c 128,-1,6
 244 -124 244 -124 250 -110 c 128,-1,7
 256 -96 256 -96 268.5 -88 c 128,-1,8
 281 -80 281 -80 297 -83 c 0,9,10
 311 -85 311 -85 324.5 -86.5 c 128,-1,11
 338 -88 338 -88 353 -88 c 0,12,13
 406 -88 406 -88 442 -51.5 c 128,-1,14
 478 -15 478 -15 489 55 c 2,15,-1
 502 134 l 2,16,17
 519 235 519 235 479.5 283.5 c 128,-1,18
 440 332 440 332 357 332 c 0,19,20
 321 332 321 332 284 325.5 c 128,-1,21
 247 319 247 319 214 302 c 1,22,-1
 175 56 l 2,23,24
 171 25 171 25 153 8.5 c 128,-1,25
 135 -8 135 -8 103 -8 c 0,26,27
 72 -8 72 -8 58 12.5 c 128,-1,28
 44 33 44 33 49 68 c 2,29,-1
 140 643 l 2,30,31
 145 674 145 674 164 689.5 c 128,-1,32
 183 705 183 705 214 705 c 2,33,-1
 575 705 l 2,34,35
 603 705 603 705 617.5 694 c 128,-1,36
 632 683 632 683 632 662 c 0,37,38
 632 632 632 632 615 615 c 128,-1,39
 598 598 598 598 568 598 c 2,40,-1
 261 598 l 1,41,-1
 232 413 l 1,42,43
 261 427 261 427 299.5 434.5 c 128,-1,44
 338 442 338 442 380 442 c 0,45,46
 446 442 446 442 497.5 422 c 128,-1,47
 549 402 549 402 583 363.5 c 128,-1,48
 617 325 617 325 630 268.5 c 128,-1,49
 643 212 643 212 631 140 c 2,50,-1
 618 60 l 2,51,52
 605 -19 605 -19 572.5 -75 c 128,-1,53
 540 -131 540 -131 489.5 -160.5 c 128,-1,54
 439 -190 439 -190 371 -190 c 0,0,1
EndSplineSet
EndChar

StartChar: uni0414
Encoding: 1044 1044 540
Width: 799
GlyphClass: 1
Flags: W
AnchorPoint: "Anchor-0" 493 704 basechar 0
LayerCount: 2
Fore
SplineSet
6 -173 m 0,0,1
 -22 -173 -22 -173 -34 -156.5 c 128,-1,2
 -46 -140 -46 -140 -42 -110 c 2,3,-1
 -18 48 l 2,4,5
 -9 102 -9 102 47 102 c 2,6,-1
 94 102 l 1,7,-1
 47 88 l 1,8,9
 110 144 110 144 152.5 248 c 128,-1,10
 195 352 195 352 221 516 c 2,11,-1
 241 643 l 2,12,13
 246 674 246 674 264.5 689.5 c 128,-1,14
 283 705 283 705 314 705 c 2,15,-1
 676 705 l 2,16,17
 711 705 711 705 727.5 686 c 128,-1,18
 744 667 744 667 738 631 c 2,19,-1
 649 69 l 1,20,-1
 624 102 l 1,21,-1
 690 102 l 2,22,23
 721 102 721 102 735 85 c 128,-1,24
 749 68 749 68 744 38 c 2,25,-1
 718 -120 l 2,26,27
 709 -173 709 -173 657 -173 c 0,28,29
 629 -173 629 -173 616 -156.5 c 128,-1,30
 603 -140 603 -140 607 -110 c 2,31,-1
 624 0 l 1,32,-1
 89 0 l 1,33,-1
 70 -120 l 2,34,35
 61 -173 61 -173 6 -173 c 0,0,1
198 102 m 1,36,-1
 527 102 l 1,37,-1
 606 603 l 1,38,-1
 354 603 l 1,39,-1
 339 509 l 2,40,41
 316 362 316 362 283 261.5 c 128,-1,42
 250 161 250 161 198 102 c 1,36,-1
EndSplineSet
EndChar

StartChar: uni0416
Encoding: 1046 1046 544
Width: 1014
GlyphClass: 2
Flags: W
AnchorPoint: "Anchor-0" 580 705 basechar 0
LayerCount: 2
Fore
SplineSet
471 -8 m 0,0,1
 440 -8 440 -8 426 10 c 128,-1,2
 412 28 412 28 417 60 c 2,3,-1
 455 299 l 1,4,-1
 388 299 l 2,5,6
 338 299 338 299 301 277 c 128,-1,7
 264 255 264 255 232 203 c 2,8,-1
 121 27 l 2,9,10
 108 5 108 5 89 -2.5 c 128,-1,11
 70 -10 70 -10 51.5 -6 c 128,-1,12
 33 -2 33 -2 20.5 11 c 128,-1,13
 8 24 8 24 6.5 44 c 128,-1,14
 5 64 5 64 21 89 c 2,15,-1
 123 251 l 2,16,17
 166 319 166 319 217 355 c 128,-1,18
 268 391 268 391 334 401 c 1,19,-1
 289 364 l 1,20,-1
 159 626 l 2,21,22
 147 649 147 649 151.5 668 c 128,-1,23
 156 687 156 687 170.5 698.5 c 128,-1,24
 185 710 185 710 204 712 c 128,-1,25
 223 714 223 714 241 704.5 c 128,-1,26
 259 695 259 695 270 672 c 2,27,-1
 404 389 l 1,28,-1
 381 406 l 1,29,-1
 471 406 l 1,30,-1
 511 656 l 2,31,32
 516 685 516 685 532.5 699 c 128,-1,33
 549 713 549 713 578 713 c 0,34,35
 609 713 609 713 623 695 c 128,-1,36
 637 677 637 677 632 645 c 2,37,-1
 594 406 l 1,38,-1
 677 406 l 1,39,-1
 654 389 l 1,40,-1
 888 684 l 2,41,42
 904 704 904 704 922.5 709 c 128,-1,43
 941 714 941 714 958.5 709 c 128,-1,44
 976 704 976 704 986.5 690.5 c 128,-1,45
 997 677 997 677 996 658 c 128,-1,46
 995 639 995 639 978 618 c 2,47,-1
 771 364 l 1,48,-1
 720 401 l 1,49,50
 762 395 762 395 793 376 c 128,-1,51
 824 357 824 357 846 326 c 128,-1,52
 868 295 868 295 883 251 c 2,53,-1
 944 79 l 2,54,55
 953 53 953 53 946.5 33.5 c 128,-1,56
 940 14 940 14 924.5 3.5 c 128,-1,57
 909 -7 909 -7 889.5 -7.5 c 128,-1,58
 870 -8 870 -8 852.5 3.5 c 128,-1,59
 835 15 835 15 827 40 c 2,60,-1
 772 204 l 2,61,62
 755 254 755 254 725 276.5 c 128,-1,63
 695 299 695 299 645 299 c 2,64,-1
 578 299 l 1,65,-1
 538 50 l 2,66,67
 534 22 534 22 517 7 c 128,-1,68
 500 -8 500 -8 471 -8 c 0,0,1
EndSplineSet
EndChar

StartChar: uni0417
Encoding: 1047 1047 545
Width: 635
GlyphClass: 2
Flags: W
AnchorPoint: "Anchor-2" 288 0 basechar 0
AnchorPoint: "Anchor-0" 380 705 basechar 0
LayerCount: 2
Fore
SplineSet
296 -10 m 0,0,1
 228 -10 228 -10 164 6 c 128,-1,2
 100 22 100 22 48 57 c 0,3,4
 32 68 32 68 26.5 84 c 128,-1,5
 21 100 21 100 24.5 116 c 128,-1,6
 28 132 28 132 38.5 143 c 128,-1,7
 49 154 49 154 65 156 c 128,-1,8
 81 158 81 158 102 146 c 0,9,10
 131 129 131 129 162 118.5 c 128,-1,11
 193 108 193 108 226.5 103.5 c 128,-1,12
 260 99 260 99 294 99 c 0,13,14
 334 99 334 99 369 110 c 128,-1,15
 404 121 404 121 426.5 146.5 c 128,-1,16
 449 172 449 172 449 215 c 0,17,18
 449 261 449 261 419.5 284 c 128,-1,19
 390 307 390 307 333 307 c 2,20,-1
 217 307 l 2,21,22
 190 307 190 307 175.5 318.5 c 128,-1,23
 161 330 161 330 162 350 c 0,24,25
 163 377 163 377 179.5 392.5 c 128,-1,26
 196 408 196 408 224 408 c 2,27,-1
 343 408 l 2,28,29
 407 408 407 408 445 435.5 c 128,-1,30
 483 463 483 463 483 518 c 0,31,32
 483 550 483 550 467.5 569.5 c 128,-1,33
 452 589 452 589 423.5 598 c 128,-1,34
 395 607 395 607 355 607 c 0,35,36
 312 607 312 607 267.5 597 c 128,-1,37
 223 587 223 587 184 567 c 0,38,39
 161 555 161 555 143 557.5 c 128,-1,40
 125 560 125 560 114 571.5 c 128,-1,41
 103 583 103 583 101 599.5 c 128,-1,42
 99 616 99 616 108 632.5 c 128,-1,43
 117 649 117 649 138 660 c 0,44,45
 188 686 188 686 249 700.5 c 128,-1,46
 310 715 310 715 371 715 c 0,47,48
 444 715 444 715 497 693 c 128,-1,49
 550 671 550 671 579.5 631.5 c 128,-1,50
 609 592 609 592 609 540 c 0,51,52
 609 462 609 462 560.5 413 c 128,-1,53
 512 364 512 364 434 352 c 1,54,-1
 434 368 l 1,55,56
 500 356 500 356 537.5 313.5 c 128,-1,57
 575 271 575 271 575 208 c 0,58,59
 575 136 575 136 540 87.5 c 128,-1,60
 505 39 505 39 442 14.5 c 128,-1,61
 379 -10 379 -10 296 -10 c 0,0,1
EndSplineSet
EndChar

StartChar: uni0418
Encoding: 1048 1048 546
Width: 748
GlyphClass: 2
Flags: W
AnchorPoint: "Anchor-0" 444 705 basechar 0
LayerCount: 2
Fore
SplineSet
89 -9 m 0,0,1
 71 -9 71 -9 61.5 -3 c 128,-1,2
 52 3 52 3 48.5 12 c 128,-1,3
 45 21 45 21 45 32 c 128,-1,4
 45 43 45 43 46 52 c 2,5,-1
 141 653 l 2,6,7
 146 684 146 684 163.5 698.5 c 128,-1,8
 181 713 181 713 208 713 c 0,9,10
 240 713 240 713 252 694.5 c 128,-1,11
 264 676 264 676 259 643 c 2,12,-1
 186 181 l 1,13,-1
 160 184 l 1,14,-1
 627 683 l 2,15,16
 635 692 635 692 651 702.5 c 128,-1,17
 667 713 667 713 693 713 c 0,18,19
 717 713 717 713 726.5 703.5 c 128,-1,20
 736 694 736 694 737 680.5 c 128,-1,21
 738 667 738 667 736 653 c 2,22,-1
 641 52 l 2,23,24
 637 22 637 22 619 7 c 128,-1,25
 601 -8 601 -8 574 -8 c 0,26,27
 543 -8 543 -8 530.5 10.5 c 128,-1,28
 518 29 518 29 523 63 c 2,29,-1
 596 525 l 1,30,-1
 621 522 l 1,31,-1
 153 21 l 2,32,33
 145 12 145 12 130 1.5 c 128,-1,34
 115 -9 115 -9 89 -9 c 0,0,1
EndSplineSet
EndChar

StartChar: uni048A
Encoding: 1162 1162 549
Width: 788
GlyphClass: 1
Flags: W
LayerCount: 2
Fore
SplineSet
648 -140 m 2,0,1
 638 -159 638 -159 623 -167 c 128,-1,2
 608 -175 608 -175 592.5 -173.5 c 128,-1,3
 577 -172 577 -172 565.5 -162.5 c 128,-1,4
 554 -153 554 -153 551 -137 c 128,-1,5
 548 -121 548 -121 558 -101 c 2,6,-1
 626 35 l 1,7,-1
 626 0 l 1,8,-1
 578 0 l 2,9,10
 545 0 545 0 531.5 16 c 128,-1,11
 518 32 518 32 524 68 c 2,12,-1
 596 525 l 1,13,-1
 621 522 l 1,14,-1
 153 21 l 2,15,16
 145 12 145 12 130 1.5 c 128,-1,17
 115 -9 115 -9 89 -9 c 0,18,19
 71 -9 71 -9 61.5 -3 c 128,-1,20
 52 3 52 3 48.5 12 c 128,-1,21
 45 21 45 21 45 32 c 128,-1,22
 45 43 45 43 46 52 c 2,23,-1
 141 653 l 2,24,25
 146 684 146 684 163.5 698.5 c 128,-1,26
 181 713 181 713 208 713 c 0,27,28
 240 713 240 713 252 694.5 c 128,-1,29
 264 676 264 676 259 643 c 2,30,-1
 186 181 l 1,31,-1
 160 184 l 1,32,-1
 627 683 l 2,33,34
 635 692 635 692 651 702.5 c 128,-1,35
 667 713 667 713 693 713 c 0,36,37
 717 713 717 713 726.5 703.5 c 128,-1,38
 736 694 736 694 737 680.5 c 128,-1,39
 738 667 738 667 736 653 c 2,40,-1
 643 65 l 1,41,-1
 637 103 l 1,42,-1
 685 103 l 2,43,44
 721 103 721 103 735 83 c 128,-1,45
 749 63 749 63 732 28 c 2,46,-1
 648 -140 l 2,0,1
449 760 m 256,47,48
 384 760 384 760 338 788 c 128,-1,49
 292 816 292 816 271 867 c 0,50,51
 263 887 263 887 269 899.5 c 128,-1,52
 275 912 275 912 291 918 c 256,53,54
 307 924 307 924 318.5 917 c 128,-1,55
 330 910 330 910 340 891 c 0,56,57
 356 860 356 860 383.5 845 c 128,-1,58
 411 830 411 830 454 830 c 256,59,60
 497 830 497 830 528.5 846 c 128,-1,61
 560 862 560 862 584 897 c 0,62,63
 595 913 595 913 606.5 919 c 128,-1,64
 618 925 618 925 632 919 c 256,65,66
 646 913 646 913 650.5 901.5 c 128,-1,67
 655 890 655 890 646 873 c 0,68,69
 615 816 615 816 564.5 788 c 128,-1,70
 514 760 514 760 449 760 c 256,47,48
EndSplineSet
EndChar

StartChar: uni041A
Encoding: 1050 1050 550
Width: 675
GlyphClass: 2
Flags: W
AnchorPoint: "Anchor-5" 361 353 basechar 0
AnchorPoint: "Anchor-0" 412 705 basechar 0
LayerCount: 2
Fore
SplineSet
104 -8 m 256,0,1
 73 -8 73 -8 58 10.5 c 128,-1,2
 43 29 43 29 48 63 c 2,3,-1
 142 656 l 2,4,5
 147 686 147 686 164 699.5 c 128,-1,6
 181 713 181 713 212 713 c 0,7,8
 244 713 244 713 258.5 694.5 c 128,-1,9
 273 676 273 676 268 642 c 2,10,-1
 230 406 l 1,11,-1
 338 406 l 1,12,-1
 315 389 l 1,13,-1
 549 684 l 2,14,15
 565 704 565 704 583.5 709.5 c 128,-1,16
 602 715 602 715 619 709.5 c 128,-1,17
 636 704 636 704 646.5 690.5 c 128,-1,18
 657 677 657 677 656.5 658 c 128,-1,19
 656 639 656 639 639 618 c 2,20,-1
 436 364 l 1,21,-1
 381 401 l 1,22,23
 444 391 444 391 482.5 354 c 128,-1,24
 521 317 521 317 544 251 c 2,25,-1
 605 79 l 2,26,27
 614 53 614 53 607.5 33.5 c 128,-1,28
 601 14 601 14 585.5 3.5 c 128,-1,29
 570 -7 570 -7 550.5 -7.5 c 128,-1,30
 531 -8 531 -8 513.5 3.5 c 128,-1,31
 496 15 496 15 488 40 c 2,32,-1
 433 203 l 2,33,34
 416 255 416 255 386 277 c 128,-1,35
 356 299 356 299 306 299 c 2,36,-1
 214 299 l 1,37,-1
 175 53 l 2,38,39
 170 22 170 22 152.5 7 c 128,-1,40
 135 -8 135 -8 104 -8 c 256,0,1
EndSplineSet
EndChar

StartChar: uni041B
Encoding: 1051 1051 552
Width: 752
GlyphClass: 2
Flags: W
LayerCount: 2
Fore
SplineSet
573 -8 m 256,0,1
 542 -8 542 -8 528 11 c 128,-1,2
 514 30 514 30 519 65 c 2,3,-1
 603 598 l 1,4,-1
 351 598 l 1,5,-1
 326 443 l 2,6,7
 311 347 311 347 288.5 275 c 128,-1,8
 266 203 266 203 235.5 150 c 128,-1,9
 205 97 205 97 165.5 60.5 c 128,-1,10
 126 24 126 24 76 -1 c 0,11,12
 52 -13 52 -13 30.5 -9 c 128,-1,13
 9 -5 9 -5 -5 19 c 0,14,15
 -18 42 -18 42 -11.5 62.5 c 128,-1,16
 -5 83 -5 83 20 96 c 0,17,18
 54 115 54 115 83 143.5 c 128,-1,19
 112 172 112 172 136 215.5 c 128,-1,20
 160 259 160 259 179.5 323 c 128,-1,21
 199 387 199 387 213 476 c 2,22,-1
 240 643 l 2,23,24
 245 674 245 674 263.5 689.5 c 128,-1,25
 282 705 282 705 313 705 c 2,26,-1
 674 705 l 2,27,28
 709 705 709 705 725.5 686 c 128,-1,29
 742 667 742 667 737 632 c 2,30,-1
 645 53 l 2,31,32
 641 23 641 23 622.5 7.5 c 128,-1,33
 604 -8 604 -8 573 -8 c 256,0,1
EndSplineSet
EndChar

StartChar: uni041F
Encoding: 1055 1055 556
Width: 766
GlyphClass: 2
Flags: W
LayerCount: 2
Fore
SplineSet
103 -8 m 0,0,1
 72 -8 72 -8 57.5 10 c 128,-1,2
 43 28 43 28 48 63 c 2,3,-1
 140 643 l 2,4,5
 145 674 145 674 163.5 689.5 c 128,-1,6
 182 705 182 705 213 705 c 2,7,-1
 689 705 l 2,8,9
 724 705 724 705 740 686 c 128,-1,10
 756 667 756 667 751 632 c 2,11,-1
 659 52 l 2,12,13
 655 22 655 22 637 7 c 128,-1,14
 619 -8 619 -8 588 -8 c 256,15,16
 557 -8 557 -8 542.5 10.5 c 128,-1,17
 528 29 528 29 533 64 c 2,18,-1
 618 598 l 1,19,-1
 261 598 l 1,20,-1
 175 53 l 2,21,22
 171 23 171 23 153 7.5 c 128,-1,23
 135 -8 135 -8 103 -8 c 0,0,1
EndSplineSet
EndChar

StartChar: uni0423
Encoding: 1059 1059 560
Width: 661
GlyphClass: 2
Flags: W
AnchorPoint: "Anchor-0" 393 705 basechar 0
LayerCount: 2
Fore
SplineSet
232 -8 m 0,0,1
 207 -8 207 -8 192 4 c 128,-1,2
 177 16 177 16 174.5 35 c 128,-1,3
 172 54 172 54 186 75 c 2,4,-1
 292 235 l 1,5,-1
 293 195 l 1,6,-1
 91 635 l 2,7,8
 81 657 81 657 86 674.5 c 128,-1,9
 91 692 91 692 107.5 702.5 c 128,-1,10
 124 713 124 713 146 713 c 0,11,12
 175 713 175 713 187.5 696.5 c 128,-1,13
 200 680 200 680 210 658 c 2,14,-1
 367 310 l 1,15,-1
 343 310 l 1,16,-1
 585 672 l 2,17,18
 595 687 595 687 610 700 c 128,-1,19
 625 713 625 713 652 713 c 0,20,21
 676 713 676 713 691 701.5 c 128,-1,22
 706 690 706 690 708.5 671.5 c 128,-1,23
 711 653 711 653 697 632 c 2,24,-1
 298 34 l 2,25,26
 288 19 288 19 273.5 5.5 c 128,-1,27
 259 -8 259 -8 232 -8 c 0,0,1
EndSplineSet
EndChar

StartChar: uni0424
Encoding: 1060 1060 562
Width: 885
GlyphClass: 1
Flags: W
LayerCount: 2
Fore
SplineSet
401 -33 m 0,0,1
 368 -33 368 -33 354.5 -13 c 128,-1,2
 341 7 341 7 346 42 c 2,3,-1
 354 94 l 1,4,-1
 389 55 l 1,5,-1
 381 55 l 2,6,7
 289 55 289 55 219 87 c 128,-1,8
 149 119 149 119 110 178.5 c 128,-1,9
 71 238 71 238 71 322 c 0,10,11
 71 389 71 389 95 450 c 128,-1,12
 119 511 119 511 165.5 558.5 c 128,-1,13
 212 606 212 606 280.5 633.5 c 128,-1,14
 349 661 349 661 439 661 c 2,15,-1
 470 661 l 1,16,-1
 438 622 l 1,17,-1
 447 680 l 2,18,19
 452 712 452 712 470.5 727.5 c 128,-1,20
 489 743 489 743 518 743 c 0,21,22
 550 743 550 743 565 723.5 c 128,-1,23
 580 704 580 704 574 669 c 2,24,-1
 566 619 l 1,25,-1
 531 658 l 1,26,-1
 539 658 l 2,27,28
 632 658 632 658 701.5 626.5 c 128,-1,29
 771 595 771 595 810 535 c 128,-1,30
 849 475 849 475 849 391 c 0,31,32
 849 324 849 324 825.5 263 c 128,-1,33
 802 202 802 202 755 154.5 c 128,-1,34
 708 107 708 107 639.5 79.5 c 128,-1,35
 571 52 571 52 481 52 c 2,36,-1
 450 52 l 1,37,-1
 482 91 l 1,38,-1
 473 32 l 2,39,40
 468 -1 468 -1 449 -17 c 128,-1,41
 430 -33 430 -33 401 -33 c 0,0,1
361 131 m 1,42,-1
 433 585 l 1,43,-1
 456 563 l 1,44,-1
 431 563 l 2,45,46
 374 563 374 563 331 543.5 c 128,-1,47
 288 524 288 524 259.5 490.5 c 128,-1,48
 231 457 231 457 216.5 414.5 c 128,-1,49
 202 372 202 372 202 325 c 0,50,51
 202 270 202 270 222.5 231.5 c 128,-1,52
 243 193 243 193 285 173 c 128,-1,53
 327 153 327 153 391 153 c 2,54,-1
 399 153 l 1,55,-1
 361 131 l 1,42,-1
487 128 m 1,56,-1
 464 150 l 1,57,-1
 490 150 l 2,58,59
 547 150 547 150 590 169.5 c 128,-1,60
 633 189 633 189 661.5 222.5 c 128,-1,61
 690 256 690 256 704 299 c 128,-1,62
 718 342 718 342 718 388 c 0,63,64
 718 444 718 444 698 482 c 128,-1,65
 678 520 678 520 636.5 540 c 128,-1,66
 595 560 595 560 531 560 c 2,67,-1
 523 560 l 1,68,-1
 559 582 l 1,69,-1
 487 128 l 1,56,-1
EndSplineSet
EndChar

StartChar: uni0427
Encoding: 1063 1063 564
Width: 696
GlyphClass: 2
Flags: W
AnchorPoint: "Anchor-5" 314 295 basechar 0
AnchorPoint: "Anchor-0" 404 705 basechar 0
LayerCount: 2
Fore
SplineSet
519 -8 m 0,0,1
 486 -8 486 -8 472.5 12 c 128,-1,2
 459 32 459 32 464 68 c 2,3,-1
 496 275 l 1,4,5
 467 262 467 262 426.5 254 c 128,-1,6
 386 246 386 246 344 246 c 0,7,8
 257 246 257 246 197.5 281.5 c 128,-1,9
 138 317 138 317 113 384 c 128,-1,10
 88 451 88 451 103 547 c 2,11,-1
 119 649 l 2,12,13
 124 681 124 681 143 697 c 128,-1,14
 162 713 162 713 191 713 c 0,15,16
 223 713 223 713 236.5 693 c 128,-1,17
 250 673 250 673 245 638 c 2,18,-1
 231 548 l 2,19,20
 215 448 215 448 248.5 402 c 128,-1,21
 282 356 282 356 367 356 c 0,22,23
 403 356 403 356 442 363.5 c 128,-1,24
 481 371 481 371 514 387 c 1,25,-1
 556 649 l 2,26,27
 561 681 561 681 580 697 c 128,-1,28
 599 713 599 713 628 713 c 0,29,30
 661 713 661 713 674 693 c 128,-1,31
 687 673 687 673 682 638 c 2,32,-1
 590 56 l 2,33,34
 585 24 585 24 566.5 8 c 128,-1,35
 548 -8 548 -8 519 -8 c 0,0,1
EndSplineSet
EndChar

StartChar: uni0426
Encoding: 1062 1062 565
Width: 812
GlyphClass: 1
Flags: W
LayerCount: 2
Fore
SplineSet
669 -173 m 0,0,1
 641 -173 641 -173 628 -155.5 c 128,-1,2
 615 -138 615 -138 620 -107 c 2,3,-1
 637 0 l 1,4,-1
 112 0 l 2,5,6
 78 0 78 0 61.5 19.5 c 128,-1,7
 45 39 45 39 50 73 c 2,8,-1
 142 654 l 2,9,10
 147 683 147 683 164.5 698 c 128,-1,11
 182 713 182 713 212 713 c 0,12,13
 244 713 244 713 258.5 694.5 c 128,-1,14
 273 676 273 676 268 642 c 2,15,-1
 183 107 l 1,16,-1
 540 107 l 1,17,-1
 626 651 l 2,18,19
 631 681 631 681 648 697 c 128,-1,20
 665 713 665 713 695 713 c 0,21,22
 728 713 728 713 743 694.5 c 128,-1,23
 758 676 758 676 753 642 c 2,24,-1
 665 87 l 1,25,-1
 620 107 l 1,26,-1
 700 107 l 2,27,28
 732 107 732 107 747 89 c 128,-1,29
 762 71 762 71 757 39 c 2,30,-1
 732 -120 l 2,31,32
 723 -173 723 -173 669 -173 c 0,0,1
EndSplineSet
EndChar

StartChar: uni0428
Encoding: 1064 1064 566
Width: 1070
GlyphClass: 1
Flags: W
LayerCount: 2
Fore
SplineSet
112 0 m 2,0,1
 78 0 78 0 61.5 19.5 c 128,-1,2
 45 39 45 39 50 73 c 2,3,-1
 142 652 l 2,4,5
 147 682 147 682 164.5 697.5 c 128,-1,6
 182 713 182 713 211 713 c 0,7,8
 243 713 243 713 257 694.5 c 128,-1,9
 271 676 271 676 266 642 c 2,10,-1
 181 107 l 1,11,-1
 449 107 l 1,12,-1
 535 652 l 2,13,14
 540 681 540 681 557 697 c 128,-1,15
 574 713 574 713 605 713 c 0,16,17
 637 713 637 713 651 694.5 c 128,-1,18
 665 676 665 676 660 642 c 2,19,-1
 575 107 l 1,20,-1
 844 107 l 1,21,-1
 930 652 l 2,22,23
 935 681 935 681 951.5 697 c 128,-1,24
 968 713 968 713 999 713 c 0,25,26
 1031 713 1031 713 1045.5 694.5 c 128,-1,27
 1060 676 1060 676 1055 642 c 2,28,-1
 963 63 l 2,29,30
 958 31 958 31 939 15.5 c 128,-1,31
 920 0 920 0 890 0 c 2,32,-1
 112 0 l 2,0,1
EndSplineSet
EndChar

StartChar: uni0429
Encoding: 1065 1065 567
Width: 1115
GlyphClass: 1
Flags: W
LayerCount: 2
Fore
SplineSet
971 -173 m 0,0,1
 943 -173 943 -173 930.5 -155.5 c 128,-1,2
 918 -138 918 -138 923 -107 c 2,3,-1
 940 0 l 1,4,-1
 112 0 l 2,5,6
 78 0 78 0 61 19.5 c 128,-1,7
 44 39 44 39 50 73 c 2,8,-1
 142 652 l 2,9,10
 147 682 147 682 164.5 697.5 c 128,-1,11
 182 713 182 713 211 713 c 0,12,13
 243 713 243 713 257 694.5 c 128,-1,14
 271 676 271 676 266 642 c 2,15,-1
 181 107 l 1,16,-1
 449 107 l 1,17,-1
 536 652 l 2,18,19
 541 681 541 681 557.5 697 c 128,-1,20
 574 713 574 713 605 713 c 0,21,22
 637 713 637 713 651 694.5 c 128,-1,23
 665 676 665 676 660 642 c 2,24,-1
 575 107 l 1,25,-1
 843 107 l 1,26,-1
 929 652 l 2,27,28
 934 681 934 681 951 697 c 128,-1,29
 968 713 968 713 999 713 c 0,30,31
 1031 713 1031 713 1045.5 696 c 128,-1,32
 1060 679 1060 679 1055 645 c 2,33,-1
 967 87 l 1,34,-1
 922 107 l 1,35,-1
 1003 107 l 2,36,37
 1035 107 1035 107 1050.5 89.5 c 128,-1,38
 1066 72 1066 72 1061 40 c 2,39,-1
 1036 -117 l 2,40,41
 1032 -145 1032 -145 1014.5 -159 c 128,-1,42
 997 -173 997 -173 971 -173 c 0,0,1
EndSplineSet
EndChar

StartChar: uni040F
Encoding: 1039 1039 568
Width: 766
GlyphClass: 1
Flags: W
LayerCount: 2
Fore
SplineSet
320 -173 m 0,0,1
 292 -173 292 -173 279.5 -155.5 c 128,-1,2
 267 -138 267 -138 272 -107 c 2,3,-1
 289 0 l 1,4,-1
 112 0 l 2,5,6
 78 0 78 0 61 19.5 c 128,-1,7
 44 39 44 39 49 73 c 2,8,-1
 141 652 l 2,9,10
 146 682 146 682 164 697.5 c 128,-1,11
 182 713 182 713 211 713 c 0,12,13
 243 713 243 713 258 694.5 c 128,-1,14
 273 676 273 676 268 642 c 2,15,-1
 183 107 l 1,16,-1
 539 107 l 1,17,-1
 626 654 l 2,18,19
 631 684 631 684 648 698.5 c 128,-1,20
 665 713 665 713 695 713 c 0,21,22
 728 713 728 713 742.5 694.5 c 128,-1,23
 757 676 757 676 752 642 c 2,24,-1
 660 63 l 2,25,26
 655 31 655 31 636.5 15.5 c 128,-1,27
 618 0 618 0 588 0 c 2,28,-1
 401 0 l 1,29,-1
 383 -117 l 2,30,31
 379 -145 379 -145 362.5 -159 c 128,-1,32
 346 -173 346 -173 320 -173 c 0,0,1
EndSplineSet
EndChar

StartChar: uni042C
Encoding: 1068 1068 569
Width: 673
GlyphClass: 1
Flags: W
LayerCount: 2
Fore
SplineSet
112 0 m 2,0,1
 78 0 78 0 61.5 19.5 c 128,-1,2
 45 39 45 39 50 73 c 2,3,-1
 141 650 l 2,4,5
 146 680 146 680 163.5 696.5 c 128,-1,6
 181 713 181 713 212 713 c 0,7,8
 244 713 244 713 258.5 694.5 c 128,-1,9
 273 676 273 676 268 642 c 2,10,-1
 231 411 l 1,11,-1
 394 411 l 2,12,13
 473 411 473 411 525 387 c 128,-1,14
 577 363 577 363 603 321.5 c 128,-1,15
 629 280 629 280 629 225 c 0,16,17
 629 115 629 115 561 57.5 c 128,-1,18
 493 0 493 0 360 0 c 2,19,-1
 112 0 l 2,0,1
182 102 m 1,20,-1
 362 102 l 2,21,22
 433 102 433 102 469 131 c 128,-1,23
 505 160 505 160 505 218 c 0,24,25
 505 265 505 265 474.5 287 c 128,-1,26
 444 309 444 309 377 309 c 2,27,-1
 215 309 l 1,28,-1
 182 102 l 1,20,-1
EndSplineSet
EndChar

StartChar: uni042B
Encoding: 1067 1067 570
Width: 901
GlyphClass: 2
Flags: W
AnchorPoint: "Anchor-0" 517 705 basechar 0
LayerCount: 2
Fore
SplineSet
112 0 m 2,0,1
 78 0 78 0 61.5 19.5 c 128,-1,2
 45 39 45 39 50 73 c 2,3,-1
 141 650 l 2,4,5
 146 680 146 680 163.5 696.5 c 128,-1,6
 181 713 181 713 212 713 c 0,7,8
 244 713 244 713 258.5 694.5 c 128,-1,9
 273 676 273 676 268 642 c 2,10,-1
 231 411 l 1,11,-1
 368 411 l 2,12,13
 447 411 447 411 499 387 c 128,-1,14
 551 363 551 363 577 321.5 c 128,-1,15
 603 280 603 280 603 225 c 0,16,17
 603 115 603 115 535 57.5 c 128,-1,18
 467 0 467 0 334 0 c 2,19,-1
 112 0 l 2,0,1
182 102 m 1,20,-1
 336 102 l 2,21,22
 407 102 407 102 443 131 c 128,-1,23
 479 160 479 160 479 218 c 0,24,25
 479 265 479 265 448.5 287 c 128,-1,26
 418 309 418 309 351 309 c 2,27,-1
 215 309 l 1,28,-1
 182 102 l 1,20,-1
722 -8 m 256,29,30
 691 -8 691 -8 676 11 c 128,-1,31
 661 30 661 30 666 64 c 2,32,-1
 760 652 l 2,33,34
 765 682 765 682 782 697.5 c 128,-1,35
 799 713 799 713 829 713 c 0,36,37
 861 713 861 713 876 694.5 c 128,-1,38
 891 676 891 676 886 642 c 2,39,-1
 793 53 l 2,40,41
 789 23 789 23 771 7.5 c 128,-1,42
 753 -8 753 -8 722 -8 c 256,29,30
EndSplineSet
EndChar

StartChar: uni042A
Encoding: 1066 1066 571
Width: 807
GlyphClass: 1
Flags: W
LayerCount: 2
Fore
SplineSet
246 0 m 2,0,1
 211 0 211 0 195 19.5 c 128,-1,2
 179 39 179 39 184 73 c 2,3,-1
 267 598 l 1,4,-1
 122 598 l 2,5,6
 91 598 91 598 76 612.5 c 128,-1,7
 61 627 61 627 65 652 c 0,8,9
 70 678 70 678 85.5 691.5 c 128,-1,10
 101 705 101 705 129 705 c 2,11,-1
 339 705 l 2,12,13
 374 705 374 705 389.5 686.5 c 128,-1,14
 405 668 405 668 400 633 c 2,15,-1
 365 411 l 1,16,-1
 527 411 l 2,17,18
 606 411 606 411 658 387 c 128,-1,19
 710 363 710 363 736 321.5 c 128,-1,20
 762 280 762 280 762 225 c 0,21,22
 762 115 762 115 694 57.5 c 128,-1,23
 626 0 626 0 493 0 c 2,24,-1
 246 0 l 2,0,1
316 102 m 1,25,-1
 495 102 l 2,26,27
 566 102 566 102 602 131 c 128,-1,28
 638 160 638 160 638 218 c 0,29,30
 638 265 638 265 607.5 287 c 128,-1,31
 577 309 577 309 510 309 c 2,32,-1
 349 309 l 1,33,-1
 316 102 l 1,25,-1
EndSplineSet
EndChar

StartChar: uni0409
Encoding: 1033 1033 572
Width: 1133
GlyphClass: 1
Flags: W
LayerCount: 2
Fore
SplineSet
573 0 m 2,0,1
 538 0 538 0 521.5 19.5 c 128,-1,2
 505 39 505 39 510 73 c 2,3,-1
 593 598 l 1,4,-1
 351 598 l 1,5,-1
 326 441 l 2,6,7
 310 341 310 341 286.5 268.5 c 128,-1,8
 263 196 263 196 232.5 145 c 128,-1,9
 202 94 202 94 163 59 c 128,-1,10
 124 24 124 24 76 -2 c 0,11,12
 60 -11 60 -11 44 -11.5 c 128,-1,13
 28 -12 28 -12 14.5 -4 c 128,-1,14
 1 4 1 4 -7 20 c 0,15,16
 -19 44 -19 44 -10 64 c 128,-1,17
 -1 84 -1 84 24 98 c 0,18,19
 58 117 58 117 86.5 145.5 c 128,-1,20
 115 174 115 174 138.5 217.5 c 128,-1,21
 162 261 162 261 180.5 324 c 128,-1,22
 199 387 199 387 213 474 c 2,23,-1
 240 643 l 2,24,25
 245 674 245 674 263 689.5 c 128,-1,26
 281 705 281 705 312 705 c 2,27,-1
 664 705 l 2,28,29
 699 705 699 705 715 686 c 128,-1,30
 731 667 731 667 726 632 c 2,31,-1
 691 411 l 1,32,-1
 854 411 l 2,33,34
 933 411 933 411 985 387 c 128,-1,35
 1037 363 1037 363 1063 321.5 c 128,-1,36
 1089 280 1089 280 1089 225 c 0,37,38
 1089 115 1089 115 1021 57.5 c 128,-1,39
 953 0 953 0 820 0 c 2,40,-1
 573 0 l 2,0,1
642 102 m 1,41,-1
 822 102 l 2,42,43
 893 102 893 102 929 131 c 128,-1,44
 965 160 965 160 965 218 c 0,45,46
 965 265 965 265 934.5 287 c 128,-1,47
 904 309 904 309 837 309 c 2,48,-1
 675 309 l 1,49,-1
 642 102 l 1,41,-1
EndSplineSet
EndChar

StartChar: uni040A
Encoding: 1034 1034 573
Width: 1164
GlyphClass: 1
Flags: W
LayerCount: 2
Fore
SplineSet
102 -8 m 256,0,1
 70 -8 70 -8 56.5 11 c 128,-1,2
 43 30 43 30 48 65 c 2,3,-1
 141 651 l 2,4,5
 146 682 146 682 163.5 697.5 c 128,-1,6
 181 713 181 713 212 713 c 0,7,8
 244 713 244 713 258.5 694.5 c 128,-1,9
 273 676 273 676 268 641 c 2,10,-1
 231 411 l 1,11,-1
 594 411 l 1,12,-1
 632 651 l 2,13,14
 637 682 637 682 655 697.5 c 128,-1,15
 673 713 673 713 704 713 c 256,16,17
 735 713 735 713 749.5 694.5 c 128,-1,18
 764 676 764 676 759 641 c 2,19,-1
 722 411 l 1,20,-1
 885 411 l 2,21,22
 964 411 964 411 1016 387 c 128,-1,23
 1068 363 1068 363 1094 321.5 c 128,-1,24
 1120 280 1120 280 1120 225 c 0,25,26
 1120 115 1120 115 1052 57.5 c 128,-1,27
 984 0 984 0 851 0 c 2,28,-1
 603 0 l 2,29,30
 568 0 568 0 551.5 19.5 c 128,-1,31
 535 39 535 39 540 73 c 2,32,-1
 577 304 l 1,33,-1
 214 304 l 1,34,-1
 175 54 l 2,35,36
 171 24 171 24 152.5 8 c 128,-1,37
 134 -8 134 -8 102 -8 c 256,0,1
673 102 m 1,38,-1
 853 102 l 2,39,40
 924 102 924 102 960 131 c 128,-1,41
 996 160 996 160 996 218 c 0,42,43
 996 265 996 265 965.5 287 c 128,-1,44
 935 309 935 309 868 309 c 2,45,-1
 706 309 l 1,46,-1
 673 102 l 1,38,-1
EndSplineSet
EndChar

StartChar: uni0404
Encoding: 1028 1028 575
Width: 680
GlyphClass: 2
Flags: W
AnchorPoint: "Anchor-2" 352 0 basechar 0
AnchorPoint: "Anchor-0" 464 705 basechar 0
LayerCount: 2
Fore
SplineSet
392 -10 m 0,0,1
 299 -10 299 -10 226.5 25.5 c 128,-1,2
 154 61 154 61 112.5 131 c 128,-1,3
 71 201 71 201 71 302 c 0,4,5
 71 391 71 391 96.5 466 c 128,-1,6
 122 541 122 541 170.5 597 c 128,-1,7
 219 653 219 653 290 684 c 128,-1,8
 361 715 361 715 451 715 c 0,9,10
 504 715 504 715 557.5 701 c 128,-1,11
 611 687 611 687 654 657 c 0,12,13
 675 643 675 643 681.5 624 c 128,-1,14
 688 605 688 605 683 587.5 c 128,-1,15
 678 570 678 570 665 558 c 128,-1,16
 652 546 652 546 634 545 c 128,-1,17
 616 544 616 544 595 558 c 0,18,19
 563 581 563 581 525 591 c 128,-1,20
 487 601 487 601 447 601 c 0,21,22
 383 601 383 601 334 573.5 c 128,-1,23
 285 546 285 546 254 497 c 128,-1,24
 223 448 223 448 212 384 c 1,25,-1
 201 410 l 1,26,-1
 481 410 l 2,27,28
 509 410 509 410 523.5 398.5 c 128,-1,29
 538 387 538 387 537 366 c 0,30,31
 536 338 536 338 519.5 323 c 128,-1,32
 503 308 503 308 475 308 c 2,33,-1
 198 308 l 1,34,-1
 206 322 l 1,35,36
 206 253 206 253 226 204.5 c 128,-1,37
 246 156 246 156 290.5 130 c 128,-1,38
 335 104 335 104 407 104 c 0,39,40
 441 104 441 104 475 112.5 c 128,-1,41
 509 121 509 121 544 142 c 0,42,43
 567 156 567 156 585 154 c 128,-1,44
 603 152 603 152 614 140.5 c 128,-1,45
 625 129 625 129 627.5 112 c 128,-1,46
 630 95 630 95 622.5 77.5 c 128,-1,47
 615 60 615 60 595 47 c 0,48,49
 552 19 552 19 498.5 4.5 c 128,-1,50
 445 -10 445 -10 392 -10 c 0,0,1
EndSplineSet
EndChar

StartChar: uni042D
Encoding: 1069 1069 576
Width: 680
GlyphClass: 2
Flags: W
AnchorPoint: "Anchor-2" 266 0 basechar 0
AnchorPoint: "Anchor-0" 377 705 basechar 0
LayerCount: 2
Fore
SplineSet
263 -10 m 0,0,1
 210 -10 210 -10 157.5 4 c 128,-1,2
 105 18 105 18 61 48 c 0,3,4
 41 62 41 62 34.5 80.5 c 128,-1,5
 28 99 28 99 32.5 116.5 c 128,-1,6
 37 134 37 134 49.5 146 c 128,-1,7
 62 158 62 158 80 159.5 c 128,-1,8
 98 161 98 161 119 147 c 0,9,10
 151 125 151 125 189 114.5 c 128,-1,11
 227 104 227 104 267 104 c 0,12,13
 336 104 336 104 386 133.5 c 128,-1,14
 436 163 436 163 466 214.5 c 128,-1,15
 496 266 496 266 505 333 c 1,16,-1
 513 308 l 1,17,-1
 235 308 l 2,18,19
 207 308 207 308 192.5 319 c 128,-1,20
 178 330 178 330 179 351 c 0,21,22
 180 379 180 379 196.5 394.5 c 128,-1,23
 213 410 213 410 241 410 c 2,24,-1
 517 410 l 1,25,-1
 508 388 l 1,26,27
 509 455 509 455 490 502.5 c 128,-1,28
 471 550 471 550 428.5 575.5 c 128,-1,29
 386 601 386 601 314 601 c 0,30,31
 280 601 280 601 245 593 c 128,-1,32
 210 585 210 585 172 565 c 0,33,34
 148 552 148 552 129.5 554.5 c 128,-1,35
 111 557 111 557 100 569 c 128,-1,36
 89 581 89 581 87 598 c 128,-1,37
 85 615 85 615 93 632 c 128,-1,38
 101 649 101 649 121 660 c 0,39,40
 171 689 171 689 223 702 c 128,-1,41
 275 715 275 715 328 715 c 0,42,43
 421 715 421 715 492 680 c 128,-1,44
 563 645 563 645 603 574 c 128,-1,45
 643 503 643 503 643 395 c 0,46,47
 643 310 643 310 617.5 236 c 128,-1,48
 592 162 592 162 543.5 107 c 128,-1,49
 495 52 495 52 424 21 c 128,-1,50
 353 -10 353 -10 263 -10 c 0,0,1
EndSplineSet
EndChar

StartChar: uni040B
Encoding: 1035 1035 580
Width: 866
GlyphClass: 1
Flags: W
LayerCount: 2
Fore
SplineSet
272 -8 m 0,0,1
 242 -8 242 -8 227.5 11 c 128,-1,2
 213 30 213 30 218 65 c 2,3,-1
 302 598 l 1,4,-1
 118 598 l 2,5,6
 91 598 91 598 76 610 c 128,-1,7
 61 622 61 622 61 642 c 0,8,9
 61 672 61 672 78.5 688.5 c 128,-1,10
 96 705 96 705 125 705 c 2,11,-1
 633 705 l 2,12,13
 660 705 660 705 675 694 c 128,-1,14
 690 683 690 683 690 662 c 0,15,16
 690 632 690 632 673 615 c 128,-1,17
 656 598 656 598 626 598 c 2,18,-1
 431 598 l 1,19,-1
 402 413 l 1,20,21
 431 427 431 427 472.5 434.5 c 128,-1,22
 514 442 514 442 556 442 c 0,23,24
 644 442 644 442 703 406.5 c 128,-1,25
 762 371 762 371 787.5 304 c 128,-1,26
 813 237 813 237 797 141 c 2,27,-1
 783 55 l 2,28,29
 778 22 778 22 759 7 c 128,-1,30
 740 -8 740 -8 711 -8 c 0,31,32
 679 -8 679 -8 665.5 12 c 128,-1,33
 652 32 652 32 658 68 c 2,34,-1
 670 141 l 2,35,36
 687 242 687 242 651.5 287 c 128,-1,37
 616 332 616 332 531 332 c 0,38,39
 495 332 495 332 456 325.5 c 128,-1,40
 417 319 417 319 384 302 c 1,41,-1
 345 56 l 2,42,43
 340 25 340 25 322 8.5 c 128,-1,44
 304 -8 304 -8 272 -8 c 0,0,1
EndSplineSet
EndChar

StartChar: uni042E
Encoding: 1070 1070 581
Width: 1047
GlyphClass: 1
Flags: W
AnchorPoint: "Anchor-0" 573 678 basechar 0
LayerCount: 2
Fore
SplineSet
642 -10 m 0,0,1
 545 -10 545 -10 475 27.5 c 128,-1,2
 405 65 405 65 368 135.5 c 128,-1,3
 331 206 331 206 331 304 c 1,4,-1
 214 304 l 1,5,-1
 175 57 l 2,6,7
 170 25 170 25 152.5 8.5 c 128,-1,8
 135 -8 135 -8 103 -8 c 256,9,10
 71 -8 71 -8 57 12 c 128,-1,11
 43 32 43 32 49 68 c 2,12,-1
 141 649 l 2,13,14
 146 681 146 681 164 697 c 128,-1,15
 182 713 182 713 214 713 c 256,16,17
 246 713 246 713 259.5 693 c 128,-1,18
 273 673 273 673 267 637 c 2,19,-1
 231 411 l 1,20,-1
 342 411 l 1,21,22
 361 502 361 502 408.5 570 c 128,-1,23
 456 638 456 638 530 676.5 c 128,-1,24
 604 715 604 715 700 715 c 0,25,26
 795 715 795 715 864.5 679 c 128,-1,27
 934 643 934 643 972.5 574 c 128,-1,28
 1011 505 1011 505 1011 407 c 0,29,30
 1011 316 1011 316 985.5 240 c 128,-1,31
 960 164 960 164 912 108 c 128,-1,32
 864 52 864 52 796 21 c 128,-1,33
 728 -10 728 -10 642 -10 c 0,0,1
644 100 m 0,34,35
 719 100 719 100 771 139.5 c 128,-1,36
 823 179 823 179 850 248 c 128,-1,37
 877 317 877 317 877 405 c 0,38,39
 877 506 877 506 829 555.5 c 128,-1,40
 781 605 781 605 697 605 c 0,41,42
 623 605 623 605 571 566 c 128,-1,43
 519 527 519 527 492 458.5 c 128,-1,44
 465 390 465 390 465 301 c 0,45,46
 465 199 465 199 513 149.5 c 128,-1,47
 561 100 561 100 644 100 c 0,34,35
EndSplineSet
EndChar

StartChar: uni042F
Encoding: 1071 1071 582
Width: 688
GlyphClass: 1
Flags: W
AnchorPoint: "Anchor-0" 426 692 basechar 0
LayerCount: 2
Fore
SplineSet
506 -8 m 0,0,1
 476 -8 476 -8 462.5 12 c 128,-1,2
 449 32 449 32 455 68 c 2,3,-1
 489 282 l 1,4,-1
 403 282 l 2,5,6
 379 282 379 282 359.5 277 c 128,-1,7
 340 272 340 272 323.5 260 c 128,-1,8
 307 248 307 248 291 225 c 2,9,-1
 151 22 l 2,10,11
 137 1 137 1 118.5 -5 c 128,-1,12
 100 -11 100 -11 82 -5.5 c 128,-1,13
 64 0 64 0 52 14 c 128,-1,14
 40 28 40 28 38.5 47 c 128,-1,15
 37 66 37 66 52 88 c 2,16,-1
 141 217 l 2,17,18
 171 261 171 261 201.5 280.5 c 128,-1,19
 232 300 232 300 273 300 c 2,20,-1
 311 300 l 1,21,-1
 320 285 l 1,22,23
 213 289 213 289 156.5 340.5 c 128,-1,24
 100 392 100 392 100 480 c 0,25,26
 100 557 100 557 135 607 c 128,-1,27
 170 657 170 657 230.5 681 c 128,-1,28
 291 705 291 705 367 705 c 2,29,-1
 609 705 l 2,30,31
 645 705 645 705 661 686 c 128,-1,32
 677 667 677 667 672 632 c 2,33,-1
 581 55 l 2,34,35
 576 24 576 24 557 8 c 128,-1,36
 538 -8 538 -8 506 -8 c 0,0,1
357 377 m 2,37,-1
 504 377 l 1,38,-1
 540 604 l 1,39,-1
 367 604 l 2,40,41
 299 604 299 604 261.5 572.5 c 128,-1,42
 224 541 224 541 224 481 c 0,43,44
 224 429 224 429 256 403 c 128,-1,45
 288 377 288 377 357 377 c 2,37,-1
EndSplineSet
EndChar

StartChar: uni0402
Encoding: 1026 1026 583
Width: 870
GlyphClass: 1
Flags: W
LayerCount: 2
Fore
SplineSet
540 -190 m 0,0,1
 517 -190 517 -190 492.5 -187.5 c 128,-1,2
 468 -185 468 -185 451 -180 c 0,3,4
 432 -174 432 -174 423 -162 c 128,-1,5
 414 -150 414 -150 413.5 -135 c 128,-1,6
 413 -120 413 -120 419.5 -107 c 128,-1,7
 426 -94 426 -94 439 -87 c 128,-1,8
 452 -80 452 -80 469 -83 c 0,9,10
 483 -85 483 -85 495.5 -86.5 c 128,-1,11
 508 -88 508 -88 522 -88 c 0,12,13
 576 -88 576 -88 612 -51.5 c 128,-1,14
 648 -15 648 -15 659 55 c 2,15,-1
 672 134 l 2,16,17
 689 235 689 235 649.5 283.5 c 128,-1,18
 610 332 610 332 527 332 c 0,19,20
 490 332 490 332 453 325.5 c 128,-1,21
 416 319 416 319 384 302 c 1,22,-1
 345 56 l 2,23,24
 340 25 340 25 322 8.5 c 128,-1,25
 304 -8 304 -8 272 -8 c 0,26,27
 242 -8 242 -8 228 12 c 128,-1,28
 214 32 214 32 219 67 c 2,29,-1
 303 598 l 1,30,-1
 118 598 l 2,31,32
 91 598 91 598 76 610 c 128,-1,33
 61 622 61 622 61 642 c 0,34,35
 61 672 61 672 78.5 688.5 c 128,-1,36
 96 705 96 705 125 705 c 2,37,-1
 633 705 l 2,38,39
 660 705 660 705 675 694 c 128,-1,40
 690 683 690 683 690 662 c 0,41,42
 690 632 690 632 673 615 c 128,-1,43
 656 598 656 598 626 598 c 2,44,-1
 431 598 l 1,45,-1
 402 413 l 1,46,47
 431 427 431 427 469 434.5 c 128,-1,48
 507 442 507 442 550 442 c 0,49,50
 615 442 615 442 666.5 422.5 c 128,-1,51
 718 403 718 403 752 364.5 c 128,-1,52
 786 326 786 326 799.5 269.5 c 128,-1,53
 813 213 813 213 801 140 c 2,54,-1
 788 60 l 2,55,56
 775 -21 775 -21 742 -76.5 c 128,-1,57
 709 -132 709 -132 658 -161 c 128,-1,58
 607 -190 607 -190 540 -190 c 0,0,1
EndSplineSet
EndChar

StartChar: uni0462
Encoding: 1122 1122 584
Width: 744
GlyphClass: 1
Flags: W
LayerCount: 2
Fore
SplineSet
181 0 m 2,0,1
 147 0 147 0 130.5 18.5 c 128,-1,2
 114 37 114 37 119 71 c 2,3,-1
 191 523 l 1,4,-1
 75 523 l 2,5,6
 48 523 48 523 34 535.5 c 128,-1,7
 20 548 20 548 24 570 c 0,8,9
 31 616 31 616 81 616 c 2,10,-1
 238 616 l 1,11,-1
 199 569 l 1,12,-1
 212 652 l 2,13,14
 217 683 217 683 236 698 c 128,-1,15
 255 713 255 713 286 713 c 0,16,17
 315 713 315 713 329 694.5 c 128,-1,18
 343 676 343 676 338 642 c 2,19,-1
 327 569 l 1,20,-1
 308 616 l 1,21,-1
 521 616 l 2,22,23
 548 616 548 616 562 604 c 128,-1,24
 576 592 576 592 572 570 c 0,25,26
 563 523 563 523 515 523 c 2,27,-1
 319 523 l 1,28,-1
 301 411 l 1,29,-1
 464 411 l 2,30,31
 582 411 582 411 640.5 359 c 128,-1,32
 699 307 699 307 699 225 c 0,33,34
 699 115 699 115 631 57.5 c 128,-1,35
 563 0 563 0 430 0 c 2,36,-1
 181 0 l 2,0,1
252 102 m 1,37,-1
 432 102 l 2,38,39
 503 102 503 102 539 131 c 128,-1,40
 575 160 575 160 575 218 c 0,41,42
 575 265 575 265 544.5 287 c 128,-1,43
 514 309 514 309 447 309 c 2,44,-1
 285 309 l 1,45,-1
 252 102 l 1,37,-1
EndSplineSet
EndChar

StartChar: uni046A
Encoding: 1130 1130 585
Width: 1009
GlyphClass: 1
Flags: W
LayerCount: 2
Fore
SplineSet
469 -8 m 0,0,1
 436 -8 436 -8 421.5 10.5 c 128,-1,2
 407 29 407 29 412 63 c 2,3,-1
 449 299 l 1,4,-1
 388 299 l 2,5,6
 337 299 337 299 300.5 276.5 c 128,-1,7
 264 254 264 254 232 203 c 2,8,-1
 121 27 l 2,9,10
 108 5 108 5 89 -2.5 c 128,-1,11
 70 -10 70 -10 51.5 -6 c 128,-1,12
 33 -2 33 -2 20.5 11 c 128,-1,13
 8 24 8 24 6.5 44 c 128,-1,14
 5 64 5 64 21 89 c 2,15,-1
 125 255 l 2,16,17
 157 306 157 306 197.5 339 c 128,-1,18
 238 372 238 372 285.5 388 c 128,-1,19
 333 404 333 404 385 404 c 2,20,-1
 437 404 l 1,21,-1
 429 375 l 1,22,-1
 249 633 l 2,23,24
 235 653 235 653 235 669.5 c 128,-1,25
 235 686 235 686 248 695.5 c 128,-1,26
 261 705 261 705 287 705 c 2,27,-1
 851 705 l 2,28,29
 879 705 879 705 892.5 694.5 c 128,-1,30
 906 684 906 684 903.5 667.5 c 128,-1,31
 901 651 901 651 882 632 c 2,32,-1
 622 375 l 1,33,-1
 612 404 l 1,34,-1
 659 404 l 2,35,36
 712 404 712 404 755.5 384.5 c 128,-1,37
 799 365 799 365 830.5 330.5 c 128,-1,38
 862 296 862 296 878 251 c 2,39,-1
 939 79 l 2,40,41
 948 53 948 53 941.5 33.5 c 128,-1,42
 935 14 935 14 919.5 3.5 c 128,-1,43
 904 -7 904 -7 884.5 -7.5 c 128,-1,44
 865 -8 865 -8 847.5 3.5 c 128,-1,45
 830 15 830 15 822 40 c 2,46,-1
 767 203 l 2,47,48
 750 255 750 255 720 277 c 128,-1,49
 690 299 690 299 640 299 c 2,50,-1
 578 299 l 1,51,-1
 539 52 l 2,52,53
 535 22 535 22 517 7 c 128,-1,54
 499 -8 499 -8 469 -8 c 0,0,1
524 404 m 1,55,-1
 526 404 l 1,56,-1
 772 650 l 1,57,-1
 767 616 l 1,58,-1
 346 616 l 1,59,-1
 352 650 l 1,60,-1
 524 404 l 1,55,-1
EndSplineSet
EndChar

StartChar: uni0474
Encoding: 1140 1140 587
Width: 770
GlyphClass: 1
Flags: W
LayerCount: 2
Fore
SplineSet
320 -8 m 0,0,1
 292 -8 292 -8 275 6.5 c 128,-1,2
 258 21 258 21 250 49 c 2,3,-1
 83 631 l 2,4,5
 77 655 77 655 82 672.5 c 128,-1,6
 87 690 87 690 102 700 c 128,-1,7
 117 710 117 710 138 710 c 0,8,9
 163 710 163 710 179.5 698 c 128,-1,10
 196 686 196 686 204 654 c 2,11,-1
 351 114 l 1,12,-1
 307 114 l 1,13,-1
 535 513 l 2,14,15
 573 580 573 580 609 622 c 128,-1,16
 645 664 645 664 688 686 c 128,-1,17
 731 708 731 708 790 713 c 0,18,19
 813 715 813 715 827 705.5 c 128,-1,20
 841 696 841 696 847 681 c 128,-1,21
 853 666 853 666 850 650 c 128,-1,22
 847 634 847 634 835 622 c 128,-1,23
 823 610 823 610 802 607 c 0,24,25
 768 603 768 603 742.5 587 c 128,-1,26
 717 571 717 571 694 541 c 128,-1,27
 671 511 671 511 643 464 c 2,28,-1
 393 38 l 2,29,30
 379 14 379 14 362.5 3 c 128,-1,31
 346 -8 346 -8 320 -8 c 0,0,1
EndSplineSet
EndChar

StartChar: uni0496
Encoding: 1174 1174 588
Width: 1053
GlyphClass: 1
Flags: W
LayerCount: 2
Fore
SplineSet
941 -173 m 0,0,1
 916 -173 916 -173 902.5 -155.5 c 128,-1,2
 889 -138 889 -138 894 -107 c 2,3,-1
 917 38 l 1,4,-1
 950 0 l 1,5,-1
 889 0 l 2,6,7
 870 0 870 0 852.5 7.5 c 128,-1,8
 835 15 835 15 827 40 c 2,9,-1
 772 204 l 2,10,11
 755 254 755 254 725 276.5 c 128,-1,12
 695 299 695 299 645 299 c 2,13,-1
 578 299 l 1,14,-1
 538 50 l 2,15,16
 534 22 534 22 517 7 c 128,-1,17
 500 -8 500 -8 471 -8 c 0,18,19
 440 -8 440 -8 426 10 c 128,-1,20
 412 28 412 28 417 60 c 2,21,-1
 455 299 l 1,22,-1
 388 299 l 2,23,24
 338 299 338 299 301 277 c 128,-1,25
 264 255 264 255 232 203 c 2,26,-1
 121 27 l 2,27,28
 108 5 108 5 89 -2.5 c 128,-1,29
 70 -10 70 -10 51.5 -6 c 128,-1,30
 33 -2 33 -2 20.5 11 c 128,-1,31
 8 24 8 24 6.5 44 c 128,-1,32
 5 64 5 64 21 89 c 2,33,-1
 123 251 l 2,34,35
 166 319 166 319 217 355 c 128,-1,36
 268 391 268 391 334 401 c 1,37,-1
 289 364 l 1,38,-1
 159 626 l 2,39,40
 147 649 147 649 151.5 668 c 128,-1,41
 156 687 156 687 170.5 698.5 c 128,-1,42
 185 710 185 710 204 712 c 128,-1,43
 223 714 223 714 241 704.5 c 128,-1,44
 259 695 259 695 270 672 c 2,45,-1
 404 389 l 1,46,-1
 381 406 l 1,47,-1
 471 406 l 1,48,-1
 511 656 l 2,49,50
 516 685 516 685 532.5 699 c 128,-1,51
 549 713 549 713 578 713 c 0,52,53
 609 713 609 713 623 695 c 128,-1,54
 637 677 637 677 632 645 c 2,55,-1
 594 406 l 1,56,-1
 677 406 l 1,57,-1
 654 389 l 1,58,-1
 888 684 l 2,59,60
 904 704 904 704 922.5 709 c 128,-1,61
 941 714 941 714 958.5 709 c 128,-1,62
 976 704 976 704 986.5 690.5 c 128,-1,63
 997 677 997 677 996 658 c 128,-1,64
 995 639 995 639 978 618 c 2,65,-1
 771 364 l 1,66,-1
 720 401 l 1,67,68
 762 395 762 395 793 376 c 128,-1,69
 824 357 824 357 846 326 c 128,-1,70
 868 295 868 295 883 251 c 2,71,-1
 948 66 l 1,72,-1
 896 103 l 1,73,-1
 973 103 l 2,74,75
 1005 103 1005 103 1020.5 85.5 c 128,-1,76
 1036 68 1036 68 1031 36 c 2,77,-1
 1006 -118 l 2,78,79
 1002 -146 1002 -146 986 -159.5 c 128,-1,80
 970 -173 970 -173 941 -173 c 0,0,1
EndSplineSet
EndChar

StartChar: uni0498
Encoding: 1176 1176 589
Width: 635
GlyphClass: 2
Flags: W
AnchorPoint: "Anchor-2" 288 0 basechar 0
AnchorPoint: "Anchor-0" 380 705 basechar 0
LayerCount: 2
Fore
SplineSet
260 -173 m 0,0,1
 235 -173 235 -173 221.5 -156 c 128,-1,2
 208 -139 208 -139 213 -108 c 2,3,-1
 240 61 l 1,4,-1
 354 61 l 1,5,-1
 325 -119 l 2,6,7
 321 -147 321 -147 303.5 -160 c 128,-1,8
 286 -173 286 -173 260 -173 c 0,0,1
296 -10 m 0,9,10
 228 -10 228 -10 164 6 c 128,-1,11
 100 22 100 22 48 57 c 0,12,13
 32 68 32 68 26.5 84 c 128,-1,14
 21 100 21 100 24.5 116 c 128,-1,15
 28 132 28 132 38.5 143 c 128,-1,16
 49 154 49 154 65 156 c 128,-1,17
 81 158 81 158 102 146 c 0,18,19
 131 129 131 129 162 118.5 c 128,-1,20
 193 108 193 108 226.5 103.5 c 128,-1,21
 260 99 260 99 294 99 c 0,22,23
 334 99 334 99 369 110 c 128,-1,24
 404 121 404 121 426.5 146.5 c 128,-1,25
 449 172 449 172 449 215 c 0,26,27
 449 261 449 261 419.5 284 c 128,-1,28
 390 307 390 307 333 307 c 2,29,-1
 217 307 l 2,30,31
 190 307 190 307 175.5 318.5 c 128,-1,32
 161 330 161 330 162 350 c 0,33,34
 163 377 163 377 179.5 392.5 c 128,-1,35
 196 408 196 408 224 408 c 2,36,-1
 343 408 l 2,37,38
 407 408 407 408 445 435.5 c 128,-1,39
 483 463 483 463 483 518 c 0,40,41
 483 550 483 550 467.5 569.5 c 128,-1,42
 452 589 452 589 423.5 598 c 128,-1,43
 395 607 395 607 355 607 c 0,44,45
 312 607 312 607 267.5 597 c 128,-1,46
 223 587 223 587 184 567 c 0,47,48
 161 555 161 555 143 557.5 c 128,-1,49
 125 560 125 560 114 571.5 c 128,-1,50
 103 583 103 583 101 599.5 c 128,-1,51
 99 616 99 616 108 632.5 c 128,-1,52
 117 649 117 649 138 660 c 0,53,54
 188 686 188 686 249 700.5 c 128,-1,55
 310 715 310 715 371 715 c 0,56,57
 444 715 444 715 497 693 c 128,-1,58
 550 671 550 671 579.5 631.5 c 128,-1,59
 609 592 609 592 609 540 c 0,60,61
 609 462 609 462 560.5 413 c 128,-1,62
 512 364 512 364 434 352 c 1,63,-1
 434 368 l 1,64,65
 500 356 500 356 537.5 313.5 c 128,-1,66
 575 271 575 271 575 208 c 0,67,68
 575 136 575 136 540 87.5 c 128,-1,69
 505 39 505 39 442 14.5 c 128,-1,70
 379 -10 379 -10 296 -10 c 0,9,10
EndSplineSet
Substitution2: "'locl' Localized Forms in Cyrillic lookup 17 subtable" uni0498.loclCHU
Substitution2: "'locl' Localized Forms in Cyrillic lookup 16 subtable" uni0498.loclBSH
AlternateSubs2: "'aalt' Access All Alternates lookup 1 subtable" uni0498.loclBSH uni0498.loclCHU
EndChar

StartChar: uni049A
Encoding: 1178 1178 590
Width: 714
GlyphClass: 1
Flags: W
LayerCount: 2
Fore
SplineSet
603 -173 m 0,0,1
 578 -173 578 -173 564.5 -155.5 c 128,-1,2
 551 -138 551 -138 556 -107 c 2,3,-1
 579 38 l 1,4,-1
 585 0 l 1,5,-1
 550 0 l 2,6,7
 531 0 531 0 513.5 7.5 c 128,-1,8
 496 15 496 15 488 40 c 2,9,-1
 433 203 l 2,10,11
 416 255 416 255 386 277 c 128,-1,12
 356 299 356 299 306 299 c 2,13,-1
 214 299 l 1,14,-1
 175 53 l 2,15,16
 170 22 170 22 152.5 7 c 128,-1,17
 135 -8 135 -8 104 -8 c 256,18,19
 73 -8 73 -8 58 10.5 c 128,-1,20
 43 29 43 29 48 63 c 2,21,-1
 142 656 l 2,22,23
 147 686 147 686 164 699.5 c 128,-1,24
 181 713 181 713 212 713 c 0,25,26
 244 713 244 713 258.5 694.5 c 128,-1,27
 273 676 273 676 268 642 c 2,28,-1
 230 406 l 1,29,-1
 338 406 l 1,30,-1
 315 389 l 1,31,-1
 549 684 l 2,32,33
 565 704 565 704 583.5 709.5 c 128,-1,34
 602 715 602 715 619.5 709.5 c 128,-1,35
 637 704 637 704 647.5 690.5 c 128,-1,36
 658 677 658 677 657 658 c 128,-1,37
 656 639 656 639 639 618 c 2,38,-1
 436 364 l 1,39,-1
 381 401 l 1,40,41
 444 391 444 391 482.5 354 c 128,-1,42
 521 317 521 317 544 251 c 2,43,-1
 609 66 l 1,44,-1
 569 103 l 1,45,-1
 635 103 l 2,46,47
 667 103 667 103 682.5 85.5 c 128,-1,48
 698 68 698 68 693 36 c 2,49,-1
 668 -118 l 2,50,51
 664 -146 664 -146 648 -159.5 c 128,-1,52
 632 -173 632 -173 603 -173 c 0,0,1
EndSplineSet
EndChar

StartChar: uni049C
Encoding: 1180 1180 591
Width: 728
GlyphClass: 1
Flags: W
LayerCount: 2
Fore
SplineSet
104 -8 m 256,0,1
 73 -8 73 -8 58 10.5 c 128,-1,2
 43 29 43 29 48 63 c 2,3,-1
 142 653 l 2,4,5
 147 683 147 683 164 698 c 128,-1,6
 181 713 181 713 212 713 c 0,7,8
 244 713 244 713 258.5 694.5 c 128,-1,9
 273 676 273 676 268 642 c 2,10,-1
 230 405 l 1,11,-1
 287 405 l 1,12,-1
 307 531 l 2,13,14
 314 576 314 576 358 576 c 0,15,16
 381 576 381 576 391.5 562.5 c 128,-1,17
 402 549 402 549 398 525 c 2,18,-1
 379 405 l 1,19,-1
 383 405 l 1,20,-1
 374 398 l 1,21,-1
 602 685 l 2,22,23
 618 705 618 705 636.5 710.5 c 128,-1,24
 655 716 655 716 672.5 711 c 128,-1,25
 690 706 690 706 700.5 692.5 c 128,-1,26
 711 679 711 679 710 660 c 128,-1,27
 709 641 709 641 692 620 c 2,28,-1
 488 364 l 1,29,-1
 434 401 l 1,30,31
 476 395 476 395 506.5 376.5 c 128,-1,32
 537 358 537 358 559 327 c 128,-1,33
 581 296 581 296 597 251 c 2,34,-1
 658 79 l 2,35,36
 667 53 667 53 660.5 33.5 c 128,-1,37
 654 14 654 14 638.5 3 c 128,-1,38
 623 -8 623 -8 603.5 -8.5 c 128,-1,39
 584 -9 584 -9 567 2.5 c 128,-1,40
 550 14 550 14 542 39 c 2,41,-1
 486 204 l 2,42,43
 469 256 469 256 439 278.5 c 128,-1,44
 409 301 409 301 359 301 c 2,45,-1
 335 301 l 1,46,-1
 364 313 l 1,47,-1
 343 177 l 2,48,49
 336 134 336 134 291 134 c 0,50,51
 244 134 244 134 252 184 c 2,52,-1
 271 301 l 1,53,-1
 214 301 l 1,54,-1
 174 52 l 2,55,56
 169 21 169 21 152 6.5 c 128,-1,57
 135 -8 135 -8 104 -8 c 256,0,1
EndSplineSet
EndChar

StartChar: uni049E
Encoding: 1182 1182 592
Width: 730
GlyphClass: 1
Flags: W
LayerCount: 2
Fore
SplineSet
156 -8 m 0,0,1
 124 -8 124 -8 109.5 10.5 c 128,-1,2
 95 29 95 29 100 63 c 2,3,-1
 174 527 l 1,4,-1
 79 527 l 2,5,6
 54 527 54 527 41 539 c 128,-1,7
 28 551 28 551 32 571 c 0,8,9
 36 593 36 593 49 604 c 128,-1,10
 62 615 62 615 84 615 c 2,11,-1
 214 615 l 1,12,-1
 179 564 l 1,13,-1
 194 653 l 2,14,15
 199 683 199 683 216 698 c 128,-1,16
 233 713 233 713 263 713 c 0,17,18
 295 713 295 713 310.5 695 c 128,-1,19
 326 677 326 677 320 642 c 2,20,-1
 307 562 l 1,21,-1
 293 615 l 1,22,-1
 390 615 l 2,23,24
 416 615 416 615 428.5 603.5 c 128,-1,25
 441 592 441 592 437 571 c 256,26,27
 433 550 433 550 420 538.5 c 128,-1,28
 407 527 407 527 384 527 c 2,29,-1
 302 527 l 1,30,-1
 283 406 l 1,31,-1
 385 406 l 1,32,-1
 362 389 l 1,33,-1
 595 684 l 2,34,35
 611 704 611 704 629.5 709.5 c 128,-1,36
 648 715 648 715 665.5 710 c 128,-1,37
 683 705 683 705 693.5 691.5 c 128,-1,38
 704 678 704 678 703.5 659 c 128,-1,39
 703 640 703 640 686 619 c 2,40,-1
 483 364 l 1,41,-1
 428 401 l 1,42,43
 470 395 470 395 500.5 376.5 c 128,-1,44
 531 358 531 358 553 327 c 128,-1,45
 575 296 575 296 591 251 c 2,46,-1
 652 79 l 2,47,48
 661 53 661 53 654.5 33.5 c 128,-1,49
 648 14 648 14 632.5 3.5 c 128,-1,50
 617 -7 617 -7 597.5 -7 c 128,-1,51
 578 -7 578 -7 560.5 4.5 c 128,-1,52
 543 16 543 16 535 41 c 2,53,-1
 480 203 l 2,54,55
 463 255 463 255 433 277 c 128,-1,56
 403 299 403 299 353 299 c 2,57,-1
 266 299 l 1,58,-1
 226 52 l 2,59,60
 221 21 221 21 203.5 6.5 c 128,-1,61
 186 -8 186 -8 156 -8 c 0,0,1
EndSplineSet
EndChar

StartChar: uni04A0
Encoding: 1184 1184 593
Width: 809
GlyphClass: 1
Flags: W
LayerCount: 2
Fore
SplineSet
238 -8 m 256,0,1
 207 -8 207 -8 192 10.5 c 128,-1,2
 177 29 177 29 182 63 c 2,3,-1
 267 599 l 1,4,-1
 119 599 l 2,5,6
 91 599 91 599 76 610.5 c 128,-1,7
 61 622 61 622 61 643 c 0,8,9
 61 672 61 672 78.5 688.5 c 128,-1,10
 96 705 96 705 126 705 c 2,11,-1
 345 705 l 2,12,13
 377 705 377 705 391.5 686.5 c 128,-1,14
 406 668 406 668 401 634 c 2,15,-1
 364 406 l 1,16,-1
 472 406 l 1,17,-1
 449 389 l 1,18,-1
 683 684 l 2,19,20
 699 704 699 704 717.5 709.5 c 128,-1,21
 736 715 736 715 753.5 709.5 c 128,-1,22
 771 704 771 704 781.5 690.5 c 128,-1,23
 792 677 792 677 791 658 c 128,-1,24
 790 639 790 639 773 618 c 2,25,-1
 570 364 l 1,26,-1
 515 401 l 1,27,28
 578 391 578 391 616.5 354 c 128,-1,29
 655 317 655 317 678 251 c 2,30,-1
 739 79 l 2,31,32
 748 53 748 53 741.5 33.5 c 128,-1,33
 735 14 735 14 719.5 3.5 c 128,-1,34
 704 -7 704 -7 684.5 -7.5 c 128,-1,35
 665 -8 665 -8 647.5 3.5 c 128,-1,36
 630 15 630 15 622 40 c 2,37,-1
 567 203 l 2,38,39
 550 255 550 255 520 277 c 128,-1,40
 490 299 490 299 440 299 c 2,41,-1
 348 299 l 1,42,-1
 309 53 l 2,43,44
 304 22 304 22 286.5 7 c 128,-1,45
 269 -8 269 -8 238 -8 c 256,0,1
EndSplineSet
EndChar

StartChar: uni04A2
Encoding: 1186 1186 594
Width: 820
GlyphClass: 1
Flags: W
LayerCount: 2
Fore
SplineSet
674 -173 m 0,0,1
 649 -173 649 -173 636.5 -155.5 c 128,-1,2
 624 -138 624 -138 629 -107 c 2,3,-1
 646 0 l 1,4,-1
 595 0 l 2,5,6
 562 0 562 0 548.5 20 c 128,-1,7
 535 40 535 40 541 76 c 2,8,-1
 577 304 l 1,9,-1
 214 304 l 1,10,-1
 175 57 l 2,11,12
 170 25 170 25 152.5 8.5 c 128,-1,13
 135 -8 135 -8 103 -8 c 256,14,15
 71 -8 71 -8 57 12 c 128,-1,16
 43 32 43 32 49 68 c 2,17,-1
 141 649 l 2,18,19
 146 681 146 681 164 697 c 128,-1,20
 182 713 182 713 214 713 c 256,21,22
 246 713 246 713 259.5 693 c 128,-1,23
 273 673 273 673 267 637 c 2,24,-1
 231 411 l 1,25,-1
 594 411 l 1,26,-1
 632 649 l 2,27,28
 637 681 637 681 654.5 697 c 128,-1,29
 672 713 672 713 704 713 c 256,30,31
 736 713 736 713 750 693.5 c 128,-1,32
 764 674 764 674 758 637 c 2,33,-1
 667 65 l 1,34,-1
 634 103 l 1,35,-1
 706 103 l 2,36,37
 738 103 738 103 753 85.5 c 128,-1,38
 768 68 768 68 763 36 c 2,39,-1
 739 -117 l 2,40,41
 735 -145 735 -145 719 -159 c 128,-1,42
 703 -173 703 -173 674 -173 c 0,0,1
EndSplineSet
EndChar

StartChar: uni04A4
Encoding: 1188 1188 595
Width: 943
GlyphClass: 1
Flags: W
LayerCount: 2
Fore
SplineSet
103 -8 m 256,0,1
 71 -8 71 -8 57 12 c 128,-1,2
 43 32 43 32 49 68 c 2,3,-1
 141 649 l 2,4,5
 146 681 146 681 164 697 c 128,-1,6
 182 713 182 713 214 713 c 256,7,8
 246 713 246 713 259.5 693 c 128,-1,9
 273 673 273 673 267 637 c 2,10,-1
 231 411 l 1,11,-1
 594 411 l 1,12,-1
 631 643 l 2,13,14
 636 674 636 674 654.5 689.5 c 128,-1,15
 673 705 673 705 704 705 c 2,16,-1
 953 705 l 2,17,18
 981 705 981 705 995.5 694 c 128,-1,19
 1010 683 1010 683 1010 662 c 0,20,21
 1010 632 1010 632 993 615 c 128,-1,22
 976 598 976 598 946 598 c 2,23,-1
 752 598 l 1,24,-1
 666 57 l 2,25,26
 661 25 661 25 643.5 8.5 c 128,-1,27
 626 -8 626 -8 594 -8 c 0,28,29
 561 -8 561 -8 547.5 12 c 128,-1,30
 534 32 534 32 540 68 c 2,31,-1
 577 304 l 1,32,-1
 214 304 l 1,33,-1
 175 57 l 2,34,35
 170 25 170 25 152.5 8.5 c 128,-1,36
 135 -8 135 -8 103 -8 c 256,0,1
EndSplineSet
EndChar

StartChar: uni0524
Encoding: 1316 1316 596
Width: 813
GlyphClass: 1
Flags: W
LayerCount: 2
Fore
SplineSet
668 -173 m 0,0,1
 643 -173 643 -173 630.5 -155.5 c 128,-1,2
 618 -138 618 -138 623 -107 c 2,3,-1
 640 0 l 1,4,-1
 589 0 l 2,5,6
 556 0 556 0 542.5 20 c 128,-1,7
 529 40 529 40 535 76 c 2,8,-1
 618 598 l 1,9,-1
 261 598 l 1,10,-1
 175 53 l 2,11,12
 171 23 171 23 153 7.5 c 128,-1,13
 135 -8 135 -8 103 -8 c 0,14,15
 72 -8 72 -8 57.5 10 c 128,-1,16
 43 28 43 28 48 63 c 2,17,-1
 140 643 l 2,18,19
 145 674 145 674 163.5 689.5 c 128,-1,20
 182 705 182 705 213 705 c 2,21,-1
 689 705 l 2,22,23
 724 705 724 705 740 686 c 128,-1,24
 756 667 756 667 751 632 c 2,25,-1
 661 65 l 1,26,-1
 628 103 l 1,27,-1
 700 103 l 2,28,29
 732 103 732 103 747 85.5 c 128,-1,30
 762 68 762 68 757 36 c 2,31,-1
 733 -117 l 2,32,33
 729 -145 729 -145 713 -159 c 128,-1,34
 697 -173 697 -173 668 -173 c 0,0,1
EndSplineSet
EndChar

StartChar: uni04A8
Encoding: 1192 1192 597
Width: 833
GlyphClass: 1
Flags: W
LayerCount: 2
Fore
SplineSet
366 -10 m 0,0,1
 276 -10 276 -10 209 24.5 c 128,-1,2
 142 59 142 59 105 125.5 c 128,-1,3
 68 192 68 192 68 286 c 0,4,5
 68 382 68 382 96 460.5 c 128,-1,6
 124 539 124 539 175.5 596 c 128,-1,7
 227 653 227 653 299 684 c 128,-1,8
 371 715 371 715 458 715 c 0,9,10
 466 715 466 715 473.5 714.5 c 128,-1,11
 481 714 481 714 488 713 c 0,12,13
 517 710 517 710 527.5 693.5 c 128,-1,14
 538 677 538 677 536 654 c 0,15,16
 535 639 535 639 527 628 c 128,-1,17
 519 617 519 617 507 611.5 c 128,-1,18
 495 606 495 606 482 607 c 0,19,20
 471 608 471 608 459 608.5 c 128,-1,21
 447 609 447 609 436 608 c 0,22,23
 365 603 365 603 312 563 c 128,-1,24
 259 523 259 523 230 453.5 c 128,-1,25
 201 384 201 384 201 291 c 0,26,27
 201 222 201 222 223 178 c 128,-1,28
 245 134 245 134 286.5 112.5 c 128,-1,29
 328 91 328 91 386 91 c 0,30,31
 449 91 449 91 499.5 109 c 128,-1,32
 550 127 550 127 585 161.5 c 128,-1,33
 620 196 620 196 638.5 245 c 128,-1,34
 657 294 657 294 657 356 c 0,35,36
 657 403 657 403 637.5 428.5 c 128,-1,37
 618 454 618 454 583 454 c 0,38,39
 549 454 549 454 523.5 430 c 128,-1,40
 498 406 498 406 484 363 c 128,-1,41
 470 320 470 320 470 264 c 0,42,43
 470 205 470 205 493 166.5 c 128,-1,44
 516 128 516 128 560.5 109.5 c 128,-1,45
 605 91 605 91 670 91 c 0,46,47
 693 91 693 91 719 95 c 128,-1,48
 745 99 745 99 768 107 c 0,49,50
 789 114 789 114 803.5 109.5 c 128,-1,51
 818 105 818 105 825.5 93 c 128,-1,52
 833 81 833 81 833.5 66 c 128,-1,53
 834 51 834 51 825.5 37 c 128,-1,54
 817 23 817 23 799 15 c 0,55,56
 772 2 772 2 733 -4 c 128,-1,57
 694 -10 694 -10 656 -10 c 0,58,59
 590 -10 590 -10 534 11.5 c 128,-1,60
 478 33 478 33 436.5 71.5 c 128,-1,61
 395 110 395 110 372 161 c 128,-1,62
 349 212 349 212 349 272 c 0,63,64
 349 355 349 355 380.5 419.5 c 128,-1,65
 412 484 412 484 467 520.5 c 128,-1,66
 522 557 522 557 593 557 c 0,67,68
 650 557 650 557 691.5 534 c 128,-1,69
 733 511 733 511 755.5 469 c 128,-1,70
 778 427 778 427 778 368 c 0,71,72
 778 290 778 290 746 221.5 c 128,-1,73
 714 153 714 153 657 101 c 128,-1,74
 600 49 600 49 525.5 19.5 c 128,-1,75
 451 -10 451 -10 366 -10 c 0,0,1
EndSplineSet
EndChar

StartChar: uni04AA
Encoding: 1194 1194 598
Width: 680
GlyphClass: 2
Flags: W
AnchorPoint: "Anchor-2" 371 0 basechar 0
AnchorPoint: "Anchor-0" 442 705 basechar 0
LayerCount: 2
Fore
SplineSet
343 -173 m 0,0,1
 318 -173 318 -173 304.5 -156 c 128,-1,2
 291 -139 291 -139 296 -108 c 2,3,-1
 323 61 l 1,4,-1
 437 61 l 1,5,-1
 408 -119 l 2,6,7
 404 -147 404 -147 386.5 -160 c 128,-1,8
 369 -173 369 -173 343 -173 c 0,0,1
393 -10 m 0,9,10
 299 -10 299 -10 226.5 25.5 c 128,-1,11
 154 61 154 61 112.5 132 c 128,-1,12
 71 203 71 203 71 310 c 0,13,14
 71 396 71 396 96.5 469.5 c 128,-1,15
 122 543 122 543 170.5 598 c 128,-1,16
 219 653 219 653 290 684 c 128,-1,17
 361 715 361 715 451 715 c 0,18,19
 509 715 509 715 562 700 c 128,-1,20
 615 685 615 685 655 656 c 0,21,22
 673 643 673 643 677.5 625.5 c 128,-1,23
 682 608 682 608 677 591 c 128,-1,24
 672 574 672 574 660.5 561.5 c 128,-1,25
 649 549 649 549 633 546.5 c 128,-1,26
 617 544 617 544 600 555 c 0,27,28
 561 581 561 581 524 591 c 128,-1,29
 487 601 487 601 447 601 c 0,30,31
 370 601 370 601 316.5 563.5 c 128,-1,32
 263 526 263 526 235 461 c 128,-1,33
 207 396 207 396 207 314 c 0,34,35
 207 240 207 240 229.5 193.5 c 128,-1,36
 252 147 252 147 296.5 125.5 c 128,-1,37
 341 104 341 104 405 104 c 0,38,39
 442 104 442 104 476 113 c 128,-1,40
 510 122 510 122 546 143 c 0,41,42
 566 155 566 155 582.5 152.5 c 128,-1,43
 599 150 599 150 610 138 c 128,-1,44
 621 126 621 126 624.5 109.5 c 128,-1,45
 628 93 628 93 621.5 76.5 c 128,-1,46
 615 60 615 60 597 48 c 0,47,48
 553 19 553 19 498 4.5 c 128,-1,49
 443 -10 443 -10 393 -10 c 0,9,10
EndSplineSet
Substitution2: "'locl' Localized Forms in Cyrillic lookup 17 subtable" uni04AA.loclCHU
Substitution2: "'locl' Localized Forms in Cyrillic lookup 16 subtable" uni04AA.loclBSH
AlternateSubs2: "'aalt' Access All Alternates lookup 1 subtable" uni04AA.loclBSH uni04AA.loclCHU
EndChar

StartChar: uni04AC
Encoding: 1196 1196 599
Width: 599
GlyphClass: 1
Flags: W
LayerCount: 2
Fore
SplineSet
341 -173 m 0,0,1
 313 -173 313 -173 300 -155.5 c 128,-1,2
 287 -138 287 -138 292 -107 c 2,3,-1
 309 0 l 1,4,-1
 271 0 l 2,5,6
 237 0 237 0 220 19.5 c 128,-1,7
 203 39 203 39 208 73 c 2,8,-1
 291 598 l 1,9,-1
 112 598 l 2,10,11
 85 598 85 598 70 610 c 128,-1,12
 55 622 55 622 55 642 c 0,13,14
 55 672 55 672 72.5 688.5 c 128,-1,15
 90 705 90 705 119 705 c 2,16,-1
 617 705 l 2,17,18
 644 705 644 705 659 694 c 128,-1,19
 674 683 674 683 674 662 c 0,20,21
 674 632 674 632 657 615 c 128,-1,22
 640 598 640 598 610 598 c 2,23,-1
 419 598 l 1,24,-1
 336 76 l 1,25,-1
 288 103 l 1,26,-1
 373 103 l 2,27,28
 405 103 405 103 419.5 85.5 c 128,-1,29
 434 68 434 68 429 36 c 2,30,-1
 405 -117 l 2,31,32
 396 -173 396 -173 341 -173 c 0,0,1
EndSplineSet
EndChar

StartChar: uni04B2
Encoding: 1202 1202 602
Width: 711
GlyphClass: 1
Flags: W
LayerCount: 2
Fore
SplineSet
583 -173 m 0,0,1
 558 -173 558 -173 544.5 -155.5 c 128,-1,2
 531 -138 531 -138 536 -107 c 2,3,-1
 559 38 l 1,4,-1
 592 0 l 1,5,-1
 541 0 l 2,6,7
 518 0 518 0 503 9 c 128,-1,8
 488 18 488 18 475 40 c 2,9,-1
 328 294 l 1,10,-1
 363 294 l 1,11,-1
 139 32 l 2,12,13
 120 10 120 10 104.5 1 c 128,-1,14
 89 -8 89 -8 67 -8 c 0,15,16
 42 -8 42 -8 27.5 6.5 c 128,-1,17
 13 21 13 21 13 42.5 c 128,-1,18
 13 64 13 64 31 85 c 2,19,-1
 298 386 l 1,20,-1
 298 332 l 1,21,-1
 126 623 l 2,22,23
 113 646 113 646 115.5 666.5 c 128,-1,24
 118 687 118 687 134 700 c 128,-1,25
 150 713 150 713 175 713 c 0,26,27
 198 713 198 713 211 702.5 c 128,-1,28
 224 692 224 692 240 665 c 2,29,-1
 377 424 l 1,30,-1
 347 424 l 1,31,-1
 559 673 l 2,32,33
 578 695 578 695 593.5 704 c 128,-1,34
 609 713 609 713 631 713 c 0,35,36
 656 713 656 713 671 699 c 128,-1,37
 686 685 686 685 687 664 c 128,-1,38
 688 643 688 643 670 622 c 2,39,-1
 410 329 l 1,40,-1
 410 388 l 1,41,-1
 599 70 l 1,42,-1
 540 103 l 1,43,-1
 615 103 l 2,44,45
 647 103 647 103 662.5 85.5 c 128,-1,46
 678 68 678 68 673 36 c 2,47,-1
 648 -118 l 2,48,49
 644 -146 644 -146 628 -159.5 c 128,-1,50
 612 -173 612 -173 583 -173 c 0,0,1
EndSplineSet
EndChar

StartChar: uni04B4
Encoding: 1204 1204 603
Width: 946
GlyphClass: 1
Flags: W
LayerCount: 2
Fore
SplineSet
803 -173 m 0,0,1
 775 -173 775 -173 762 -155.5 c 128,-1,2
 749 -138 749 -138 754 -107 c 2,3,-1
 771 0 l 1,4,-1
 246 0 l 2,5,6
 212 0 212 0 195 19.5 c 128,-1,7
 178 39 178 39 183 73 c 2,8,-1
 267 598 l 1,9,-1
 119 598 l 2,10,11
 91 598 91 598 76.5 610 c 128,-1,12
 62 622 62 622 62 642 c 0,13,14
 62 672 62 672 79 688.5 c 128,-1,15
 96 705 96 705 126 705 c 2,16,-1
 540 705 l 2,17,18
 567 705 567 705 582 694 c 128,-1,19
 597 683 597 683 597 662 c 0,20,21
 597 632 597 632 580 615 c 128,-1,22
 563 598 563 598 533 598 c 2,23,-1
 395 598 l 1,24,-1
 317 107 l 1,25,-1
 674 107 l 1,26,-1
 761 652 l 2,27,28
 766 682 766 682 782.5 697.5 c 128,-1,29
 799 713 799 713 829 713 c 0,30,31
 862 713 862 713 877 694.5 c 128,-1,32
 892 676 892 676 887 642 c 2,33,-1
 797 75 l 1,34,-1
 750 107 l 1,35,-1
 833 107 l 2,36,37
 865 107 865 107 880.5 89 c 128,-1,38
 896 71 896 71 891 39 c 2,39,-1
 867 -117 l 2,40,41
 858 -173 858 -173 803 -173 c 0,0,1
EndSplineSet
EndChar

StartChar: uni04B6
Encoding: 1206 1206 604
Width: 743
GlyphClass: 1
Flags: W
LayerCount: 2
Fore
SplineSet
496 275 m 1,0,1
 467 262 467 262 426.5 254 c 128,-1,2
 386 246 386 246 344 246 c 0,3,4
 257 246 257 246 197.5 281.5 c 128,-1,5
 138 317 138 317 113 384 c 128,-1,6
 88 451 88 451 103 547 c 2,7,-1
 119 649 l 2,8,9
 124 681 124 681 143 697 c 128,-1,10
 162 713 162 713 191 713 c 0,11,12
 223 713 223 713 236.5 693 c 128,-1,13
 250 673 250 673 245 638 c 2,14,-1
 231 548 l 2,15,16
 215 448 215 448 248.5 402 c 128,-1,17
 282 356 282 356 367 356 c 0,18,19
 403 356 403 356 442 363.5 c 128,-1,20
 481 371 481 371 514 387 c 1,21,-1
 556 649 l 2,22,23
 561 681 561 681 580 697 c 128,-1,24
 599 713 599 713 628 713 c 0,25,26
 661 713 661 713 674 693 c 128,-1,27
 687 673 687 673 682 638 c 2,28,-1
 591 65 l 1,29,-1
 558 103 l 1,30,-1
 630 103 l 2,31,32
 662 103 662 103 677 85.5 c 128,-1,33
 692 68 692 68 687 36 c 2,34,-1
 663 -117 l 2,35,36
 659 -145 659 -145 643 -159 c 128,-1,37
 627 -173 627 -173 598 -173 c 0,38,39
 573 -173 573 -173 560.5 -155.5 c 128,-1,40
 548 -138 548 -138 553 -107 c 2,41,-1
 570 0 l 1,42,-1
 519 0 l 2,43,44
 486 0 486 0 473 20 c 128,-1,45
 460 40 460 40 465 76 c 2,46,-1
 496 275 l 1,0,1
EndSplineSet
EndChar

StartChar: uni04B8
Encoding: 1208 1208 605
Width: 696
GlyphClass: 1
Flags: W
LayerCount: 2
Fore
SplineSet
518 -8 m 0,0,1
 485 -8 485 -8 471 11 c 128,-1,2
 457 30 457 30 463 66 c 2,3,-1
 496 275 l 1,4,5
 473 265 473 265 441.5 257.5 c 128,-1,6
 410 250 410 250 375 247 c 1,7,-1
 390 258 l 1,8,-1
 372 142 l 2,9,10
 365 98 365 98 320 98 c 0,11,12
 298 98 298 98 287.5 112 c 128,-1,13
 277 126 277 126 281 150 c 2,14,-1
 298 258 l 1,15,-1
 308 248 l 1,16,17
 233 255 233 255 182 292.5 c 128,-1,18
 131 330 131 330 110 394.5 c 128,-1,19
 89 459 89 459 103 547 c 2,20,-1
 119 649 l 2,21,22
 124 681 124 681 143 697 c 128,-1,23
 162 713 162 713 191 713 c 0,24,25
 223 713 223 713 236.5 693 c 128,-1,26
 250 673 250 673 245 638 c 2,27,-1
 231 548 l 2,28,29
 218 462 218 462 240.5 416.5 c 128,-1,30
 263 371 263 371 323 360 c 1,31,-1
 313 354 l 1,32,-1
 334 486 l 2,33,34
 341 530 341 530 385 530 c 0,35,36
 408 530 408 530 418.5 516 c 128,-1,37
 429 502 429 502 425 478 c 2,38,-1
 405 350 l 1,39,-1
 394 357 l 1,40,41
 425 359 425 359 456 366.5 c 128,-1,42
 487 374 487 374 514 387 c 1,43,-1
 556 649 l 2,44,45
 561 681 561 681 579.5 697 c 128,-1,46
 598 713 598 713 627 713 c 0,47,48
 660 713 660 713 673.5 693 c 128,-1,49
 687 673 687 673 682 638 c 2,50,-1
 590 56 l 2,51,52
 585 24 585 24 566 8 c 128,-1,53
 547 -8 547 -8 518 -8 c 0,0,1
EndSplineSet
EndChar

StartChar: uni04BA
Encoding: 1210 1210 606
Width: 696
GlyphClass: 2
Flags: W
LayerCount: 2
Fore
SplineSet
104 -8 m 0,0,1
 71 -8 71 -8 57 12 c 128,-1,2
 43 32 43 32 49 68 c 2,3,-1
 141 649 l 2,4,5
 146 681 146 681 165 697 c 128,-1,6
 184 713 184 713 213 713 c 0,7,8
 246 713 246 713 259.5 693.5 c 128,-1,9
 273 674 273 674 267 638 c 2,10,-1
 234 430 l 1,11,12
 263 444 263 444 305.5 451.5 c 128,-1,13
 348 459 348 459 389 459 c 0,14,15
 477 459 477 459 536 424 c 128,-1,16
 595 389 595 389 620 322 c 128,-1,17
 645 255 645 255 630 158 c 2,18,-1
 614 56 l 2,19,20
 609 24 609 24 590 8 c 128,-1,21
 571 -8 571 -8 542 -8 c 0,22,23
 510 -8 510 -8 496.5 12.5 c 128,-1,24
 483 33 483 33 488 68 c 2,25,-1
 502 157 l 2,26,27
 518 258 518 258 484 303.5 c 128,-1,28
 450 349 450 349 365 349 c 0,29,30
 329 349 329 349 289.5 342.5 c 128,-1,31
 250 336 250 336 217 319 c 1,32,-1
 175 56 l 2,33,34
 170 24 170 24 151.5 8 c 128,-1,35
 133 -8 133 -8 104 -8 c 0,0,1
EndSplineSet
EndChar

StartChar: uni0526
Encoding: 1318 1318 607
Width: 743
GlyphClass: 1
Flags: W
LayerCount: 2
Fore
SplineSet
502 157 m 2,0,1
 519 258 519 258 484.5 303.5 c 128,-1,2
 450 349 450 349 365 349 c 0,3,4
 329 349 329 349 289.5 342.5 c 128,-1,5
 250 336 250 336 217 319 c 1,6,-1
 175 56 l 2,7,8
 170 24 170 24 151.5 8 c 128,-1,9
 133 -8 133 -8 104 -8 c 0,10,11
 71 -8 71 -8 57 12 c 128,-1,12
 43 32 43 32 49 68 c 2,13,-1
 141 649 l 2,14,15
 146 681 146 681 165 697 c 128,-1,16
 184 713 184 713 213 713 c 0,17,18
 246 713 246 713 259.5 693.5 c 128,-1,19
 273 674 273 674 267 638 c 2,20,-1
 234 430 l 1,21,22
 263 444 263 444 305.5 451.5 c 128,-1,23
 348 459 348 459 389 459 c 0,24,25
 477 459 477 459 536.5 424 c 128,-1,26
 596 389 596 389 621 322 c 128,-1,27
 646 255 646 255 630 158 c 2,28,-1
 615 65 l 1,29,-1
 582 103 l 1,30,-1
 654 103 l 2,31,32
 686 103 686 103 701 85.5 c 128,-1,33
 716 68 716 68 711 36 c 2,34,-1
 687 -117 l 2,35,36
 683 -145 683 -145 667 -159 c 128,-1,37
 651 -173 651 -173 622 -173 c 0,38,39
 597 -173 597 -173 584.5 -155.5 c 128,-1,40
 572 -138 572 -138 577 -107 c 2,41,-1
 594 0 l 1,42,-1
 543 0 l 2,43,44
 510 0 510 0 496.5 20 c 128,-1,45
 483 40 483 40 489 76 c 2,46,-1
 502 157 l 2,0,1
EndSplineSet
EndChar

StartChar: uni04BC
Encoding: 1212 1212 608
Width: 963
GlyphClass: 2
Flags: W
AnchorPoint: "Anchor-3" 626 0 basechar 0
LayerCount: 2
Fore
SplineSet
585 -10 m 0,0,1
 481 -10 481 -10 403.5 32 c 128,-1,2
 326 74 326 74 285.5 150 c 128,-1,3
 245 226 245 226 249 328 c 1,4,-1
 268 299 l 1,5,-1
 234 299 l 2,6,7
 167 299 167 299 123.5 322.5 c 128,-1,8
 80 346 80 346 62 387 c 128,-1,9
 44 428 44 428 52 480 c 2,10,-1
 57 508 l 2,11,12
 68 554 68 554 125 554 c 0,13,14
 154 554 154 554 170 541 c 128,-1,15
 186 528 186 528 181 500 c 0,16,17
 180 493 180 493 179.5 486 c 128,-1,18
 179 479 179 479 178 471 c 0,19,20
 175 436 175 436 191 419.5 c 128,-1,21
 207 403 207 403 245 403 c 2,22,-1
 276 403 l 1,23,-1
 253 377 l 1,24,25
 262 448 262 448 289.5 509 c 128,-1,26
 317 570 317 570 363 616.5 c 128,-1,27
 409 663 409 663 473.5 689 c 128,-1,28
 538 715 538 715 620 715 c 0,29,30
 698 715 698 715 754.5 691.5 c 128,-1,31
 811 668 811 668 847.5 628.5 c 128,-1,32
 884 589 884 589 903.5 541 c 128,-1,33
 923 493 923 493 928 443.5 c 128,-1,34
 933 394 933 394 925 350 c 0,35,36
 921 328 921 328 911 317 c 128,-1,37
 901 306 901 306 887.5 302.5 c 128,-1,38
 874 299 874 299 861 299 c 2,39,-1
 359 299 l 1,40,-1
 384 329 l 1,41,42
 378 259 378 259 402.5 207.5 c 128,-1,43
 427 156 427 156 477 128 c 128,-1,44
 527 100 527 100 599 100 c 0,45,46
 655 100 655 100 703.5 112.5 c 128,-1,47
 752 125 752 125 795 148 c 0,48,49
 816 159 816 159 832.5 155.5 c 128,-1,50
 849 152 849 152 859.5 139.5 c 128,-1,51
 870 127 870 127 872.5 110.5 c 128,-1,52
 875 94 875 94 868 77.5 c 128,-1,53
 861 61 861 61 842 51 c 0,54,55
 789 22 789 22 722.5 6 c 128,-1,56
 656 -10 656 -10 585 -10 c 0,0,1
618 610 m 0,57,58
 549 610 549 610 501 579.5 c 128,-1,59
 453 549 453 549 425 495.5 c 128,-1,60
 397 442 397 442 388 374 c 1,61,-1
 369 403 l 1,62,-1
 837 403 l 1,63,-1
 800 352 l 1,64,65
 812 429 812 429 795 487 c 128,-1,66
 778 545 778 545 733.5 577.5 c 128,-1,67
 689 610 689 610 618 610 c 0,57,58
EndSplineSet
EndChar

StartChar: uni04C3
Encoding: 1219 1219 612
Width: 700
GlyphClass: 1
Flags: W
LayerCount: 2
Fore
SplineSet
374 -190 m 0,0,1
 352 -190 352 -190 326.5 -187.5 c 128,-1,2
 301 -185 301 -185 283 -181 c 0,3,4
 264 -176 264 -176 254.5 -163.5 c 128,-1,5
 245 -151 245 -151 244.5 -135.5 c 128,-1,6
 244 -120 244 -120 250.5 -106 c 128,-1,7
 257 -92 257 -92 269.5 -85 c 128,-1,8
 282 -78 282 -78 298 -82 c 0,9,10
 312 -86 312 -86 325 -87 c 128,-1,11
 338 -88 338 -88 353 -88 c 0,12,13
 406 -88 406 -88 442.5 -52 c 128,-1,14
 479 -16 479 -16 490 54 c 2,15,-1
 499 109 l 2,16,17
 511 181 511 181 494 224 c 128,-1,18
 477 267 477 267 437.5 286 c 128,-1,19
 398 305 398 305 341 305 c 2,20,-1
 214 305 l 1,21,-1
 174 52 l 2,22,23
 170 21 170 21 152.5 6.5 c 128,-1,24
 135 -8 135 -8 104 -8 c 256,25,26
 73 -8 73 -8 58 10.5 c 128,-1,27
 43 29 43 29 48 63 c 2,28,-1
 142 654 l 2,29,30
 147 684 147 684 164 698.5 c 128,-1,31
 181 713 181 713 212 713 c 0,32,33
 244 713 244 713 258.5 694.5 c 128,-1,34
 273 676 273 676 268 642 c 2,35,-1
 231 412 l 1,36,-1
 352 412 l 1,37,-1
 323 389 l 1,38,-1
 557 685 l 2,39,40
 572 705 572 705 591 710 c 128,-1,41
 610 715 610 715 626.5 709.5 c 128,-1,42
 643 704 643 704 653.5 690 c 128,-1,43
 664 676 664 676 663 657 c 128,-1,44
 662 638 662 638 645 617 c 2,45,-1
 443 364 l 1,46,-1
 407 407 l 1,47,48
 485 400 485 400 540 367 c 128,-1,49
 595 334 595 334 619 271.5 c 128,-1,50
 643 209 643 209 627 115 c 2,51,-1
 618 60 l 2,52,53
 605 -21 605 -21 572.5 -76.5 c 128,-1,54
 540 -132 540 -132 490 -161 c 128,-1,55
 440 -190 440 -190 374 -190 c 0,0,1
EndSplineSet
EndChar

StartChar: uni04C5
Encoding: 1221 1221 613
Width: 792
GlyphClass: 1
Flags: W
LayerCount: 2
Fore
SplineSet
652 -140 m 2,0,1
 642 -159 642 -159 627 -167 c 128,-1,2
 612 -175 612 -175 596.5 -173.5 c 128,-1,3
 581 -172 581 -172 569.5 -162.5 c 128,-1,4
 558 -153 558 -153 555 -137 c 128,-1,5
 552 -121 552 -121 562 -101 c 2,6,-1
 630 35 l 1,7,-1
 630 0 l 1,8,-1
 574 0 l 2,9,10
 541 0 541 0 527.5 16 c 128,-1,11
 514 32 514 32 520 68 c 2,12,-1
 603 598 l 1,13,-1
 351 598 l 1,14,-1
 326 443 l 2,15,16
 311 347 311 347 288.5 275 c 128,-1,17
 266 203 266 203 235.5 150 c 128,-1,18
 205 97 205 97 165.5 60.5 c 128,-1,19
 126 24 126 24 76 -1 c 0,20,21
 52 -13 52 -13 30.5 -9 c 128,-1,22
 9 -5 9 -5 -5 19 c 0,23,24
 -18 42 -18 42 -11.5 62.5 c 128,-1,25
 -5 83 -5 83 20 96 c 0,26,27
 54 115 54 115 83 143.5 c 128,-1,28
 112 172 112 172 136 215.5 c 128,-1,29
 160 259 160 259 179.5 323 c 128,-1,30
 199 387 199 387 213 476 c 2,31,-1
 240 643 l 2,32,33
 245 674 245 674 263.5 689.5 c 128,-1,34
 282 705 282 705 313 705 c 2,35,-1
 674 705 l 2,36,37
 709 705 709 705 725.5 686 c 128,-1,38
 742 667 742 667 737 632 c 2,39,-1
 647 65 l 1,40,-1
 641 103 l 1,41,-1
 689 103 l 2,42,43
 725 103 725 103 739 83 c 128,-1,44
 753 63 753 63 736 28 c 2,45,-1
 652 -140 l 2,0,1
EndSplineSet
EndChar

StartChar: uni04C7
Encoding: 1223 1223 614
Width: 773
GlyphClass: 1
Flags: W
LayerCount: 2
Fore
SplineSet
432 -191 m 0,0,1
 407 -192 407 -192 395 -179 c 128,-1,2
 383 -166 383 -166 382.5 -147.5 c 128,-1,3
 382 -129 382 -129 393.5 -114 c 128,-1,4
 405 -99 405 -99 427 -98 c 0,5,6
 471 -95 471 -95 495.5 -74 c 128,-1,7
 520 -53 520 -53 527 -7 c 2,8,-1
 577 304 l 1,9,-1
 214 304 l 1,10,-1
 175 57 l 2,11,12
 170 25 170 25 152.5 8.5 c 128,-1,13
 135 -8 135 -8 103 -8 c 256,14,15
 71 -8 71 -8 57 12 c 128,-1,16
 43 32 43 32 49 68 c 2,17,-1
 141 649 l 2,18,19
 146 681 146 681 164 697 c 128,-1,20
 182 713 182 713 214 713 c 256,21,22
 246 713 246 713 259.5 693 c 128,-1,23
 273 673 273 673 267 637 c 2,24,-1
 231 411 l 1,25,-1
 593 411 l 1,26,-1
 631 649 l 2,27,28
 636 681 636 681 654 697 c 128,-1,29
 672 713 672 713 704 713 c 256,30,31
 736 713 736 713 749.5 693.5 c 128,-1,32
 763 674 763 674 757 637 c 2,33,-1
 657 7 l 2,34,35
 647 -60 647 -60 621.5 -102 c 128,-1,36
 596 -144 596 -144 550.5 -165.5 c 128,-1,37
 505 -187 505 -187 432 -191 c 0,0,1
EndSplineSet
EndChar

StartChar: uni04C9
Encoding: 1225 1225 615
Width: 813
GlyphClass: 1
Flags: W
LayerCount: 2
Fore
SplineSet
672 -140 m 2,0,1
 662 -159 662 -159 647 -167 c 128,-1,2
 632 -175 632 -175 616.5 -173.5 c 128,-1,3
 601 -172 601 -172 589.5 -162.5 c 128,-1,4
 578 -153 578 -153 575 -137 c 128,-1,5
 572 -121 572 -121 582 -101 c 2,6,-1
 650 35 l 1,7,-1
 650 0 l 1,8,-1
 594 0 l 2,9,10
 561 0 561 0 547.5 16 c 128,-1,11
 534 32 534 32 540 68 c 2,12,-1
 577 304 l 1,13,-1
 214 304 l 1,14,-1
 175 57 l 2,15,16
 170 25 170 25 152.5 8.5 c 128,-1,17
 135 -8 135 -8 103 -8 c 256,18,19
 71 -8 71 -8 57 12 c 128,-1,20
 43 32 43 32 49 68 c 2,21,-1
 141 649 l 2,22,23
 146 681 146 681 164 697 c 128,-1,24
 182 713 182 713 214 713 c 256,25,26
 246 713 246 713 259.5 693 c 128,-1,27
 273 673 273 673 267 637 c 2,28,-1
 231 411 l 1,29,-1
 594 411 l 1,30,-1
 632 649 l 2,31,32
 637 681 637 681 654.5 697 c 128,-1,33
 672 713 672 713 704 713 c 256,34,35
 736 713 736 713 750 693.5 c 128,-1,36
 764 674 764 674 758 637 c 2,37,-1
 667 65 l 1,38,-1
 661 103 l 1,39,-1
 709 103 l 2,40,41
 745 103 745 103 759 83 c 128,-1,42
 773 63 773 63 756 28 c 2,43,-1
 672 -140 l 2,0,1
EndSplineSet
EndChar

StartChar: uni04CB
Encoding: 1227 1227 616
Width: 735
GlyphClass: 1
Flags: W
LayerCount: 2
Fore
SplineSet
381 -173 m 0,0,1
 354 -173 354 -173 342.5 -158 c 128,-1,2
 331 -143 331 -143 335 -115 c 2,3,-1
 360 43 l 2,4,5
 365 72 365 72 383 87.5 c 128,-1,6
 401 103 401 103 429 103 c 2,7,-1
 527 103 l 1,8,-1
 460 45 l 1,9,-1
 496 275 l 1,10,11
 467 262 467 262 426.5 254 c 128,-1,12
 386 246 386 246 344 246 c 0,13,14
 257 246 257 246 197.5 281.5 c 128,-1,15
 138 317 138 317 113 384 c 128,-1,16
 88 451 88 451 103 547 c 2,17,-1
 119 649 l 2,18,19
 124 681 124 681 143 697 c 128,-1,20
 162 713 162 713 191 713 c 0,21,22
 223 713 223 713 236.5 693 c 128,-1,23
 250 673 250 673 245 638 c 2,24,-1
 231 548 l 2,25,26
 215 448 215 448 248.5 402 c 128,-1,27
 282 356 282 356 367 356 c 0,28,29
 403 356 403 356 442 363.5 c 128,-1,30
 481 371 481 371 514 387 c 1,31,-1
 556 649 l 2,32,33
 561 681 561 681 580 697 c 128,-1,34
 599 713 599 713 628 713 c 0,35,36
 661 713 661 713 674 693 c 128,-1,37
 687 673 687 673 682 638 c 2,38,-1
 591 66 l 2,39,40
 586 35 586 35 567 17.5 c 128,-1,41
 548 0 548 0 517 0 c 2,42,-1
 467 0 l 1,43,-1
 449 -115 l 2,44,45
 445 -143 445 -143 427 -158 c 128,-1,46
 409 -173 409 -173 381 -173 c 0,0,1
EndSplineSet
EndChar

StartChar: uni04CD
Encoding: 1229 1229 617
Width: 909
GlyphClass: 1
Flags: W
LayerCount: 2
Fore
SplineSet
765 -140 m 2,0,1
 755 -159 755 -159 740 -167 c 128,-1,2
 725 -175 725 -175 709.5 -173.5 c 128,-1,3
 694 -172 694 -172 682.5 -162.5 c 128,-1,4
 671 -153 671 -153 668 -137 c 128,-1,5
 665 -121 665 -121 675 -101 c 2,6,-1
 743 35 l 1,7,-1
 743 0 l 1,8,-1
 699 0 l 2,9,10
 666 0 666 0 652 16 c 128,-1,11
 638 32 638 32 644 68 c 2,12,-1
 716 519 l 1,13,-1
 739 519 l 1,14,-1
 466 128 l 2,15,16
 455 112 455 112 443.5 105.5 c 128,-1,17
 432 99 432 99 415 99 c 0,18,19
 396 99 396 99 384.5 108 c 128,-1,20
 373 117 373 117 365 136 c 2,21,-1
 216 515 l 1,22,-1
 238 515 l 1,23,-1
 164 50 l 2,24,25
 160 23 160 23 144.5 9 c 128,-1,26
 129 -5 129 -5 102 -5 c 0,27,28
 71 -5 71 -5 58.5 12 c 128,-1,29
 46 29 46 29 50 59 c 2,30,-1
 145 658 l 2,31,32
 150 686 150 686 165.5 699.5 c 128,-1,33
 181 713 181 713 208 713 c 0,34,35
 232 713 232 713 245.5 702.5 c 128,-1,36
 259 692 259 692 269 666 c 2,37,-1
 439 214 l 1,38,-1
 410 214 l 1,39,-1
 732 676 l 2,40,41
 746 696 746 696 762 704.5 c 128,-1,42
 778 713 778 713 802 713 c 0,43,44
 831 713 831 713 844.5 696 c 128,-1,45
 858 679 858 679 853 649 c 2,46,-1
 760 65 l 1,47,-1
 754 103 l 1,48,-1
 802 103 l 2,49,50
 838 103 838 103 852 83 c 128,-1,51
 866 63 866 63 849 28 c 2,52,-1
 765 -140 l 2,0,1
EndSplineSet
EndChar

StartChar: uni04E0
Encoding: 1248 1248 626
Width: 635
GlyphClass: 1
Flags: W
LayerCount: 2
Fore
SplineSet
297 -10 m 0,0,1
 229 -10 229 -10 165.5 6 c 128,-1,2
 102 22 102 22 49 56 c 0,3,4
 33 66 33 66 27 82.5 c 128,-1,5
 21 99 21 99 24 115.5 c 128,-1,6
 27 132 27 132 37.5 143.5 c 128,-1,7
 48 155 48 155 64.5 157.5 c 128,-1,8
 81 160 81 160 101 147 c 0,9,10
 145 119 145 119 195 108.5 c 128,-1,11
 245 98 245 98 295 98 c 0,12,13
 336 98 336 98 371.5 109 c 128,-1,14
 407 120 407 120 429.5 146.5 c 128,-1,15
 452 173 452 173 452 217 c 0,16,17
 452 251 452 251 436 270.5 c 128,-1,18
 420 290 420 290 392.5 298.5 c 128,-1,19
 365 307 365 307 330 307 c 2,20,-1
 235 307 l 2,21,22
 215 307 215 307 203 315.5 c 128,-1,23
 191 324 191 324 187 337 c 128,-1,24
 183 350 183 350 187 364 c 128,-1,25
 191 378 191 378 203 389 c 2,26,-1
 480 630 l 1,27,-1
 483 599 l 1,28,-1
 152 599 l 2,29,30
 122 599 122 599 108 611 c 128,-1,31
 94 623 94 623 94 645 c 0,32,33
 94 674 94 674 113 689.5 c 128,-1,34
 132 705 132 705 159 705 c 2,35,-1
 572 705 l 2,36,37
 594 705 594 705 606.5 695 c 128,-1,38
 619 685 619 685 622 669 c 128,-1,39
 625 653 625 653 617.5 634.5 c 128,-1,40
 610 616 610 616 590 599 c 2,41,-1
 330 374 l 1,42,-1
 305 406 l 1,43,-1
 365 406 l 2,44,45
 436 406 436 406 483 382.5 c 128,-1,46
 530 359 530 359 553.5 317.5 c 128,-1,47
 577 276 577 276 577 222 c 0,48,49
 577 151 577 151 542 99 c 128,-1,50
 507 47 507 47 444 18.5 c 128,-1,51
 381 -10 381 -10 297 -10 c 0,0,1
EndSplineSet
EndChar

StartChar: uni04E8
Encoding: 1256 1256 630
Width: 786
GlyphClass: 2
Flags: W
AnchorPoint: "Anchor-5" 410 353 basechar 0
AnchorPoint: "Anchor-3" 428 0 basechar 0
AnchorPoint: "Anchor-2" 363 0 basechar 0
AnchorPoint: "Anchor-1" 509 705 basechar 0
AnchorPoint: "Anchor-0" 453 705 basechar 0
LayerCount: 2
Fore
SplineSet
139 310 m 1,0,-1
 154 406 l 1,1,-1
 685 406 l 1,2,-1
 669 310 l 1,3,-1
 139 310 l 1,0,-1
381 -10 m 0,4,5
 287 -10 287 -10 217 26 c 128,-1,6
 147 62 147 62 108.5 131.5 c 128,-1,7
 70 201 70 201 70 299 c 0,8,9
 70 389 70 389 95.5 465 c 128,-1,10
 121 541 121 541 169 597 c 128,-1,11
 217 653 217 653 285 684 c 128,-1,12
 353 715 353 715 439 715 c 0,13,14
 534 715 534 715 603.5 679 c 128,-1,15
 673 643 673 643 711.5 574 c 128,-1,16
 750 505 750 505 750 407 c 0,17,18
 750 316 750 316 724.5 240 c 128,-1,19
 699 164 699 164 651 108 c 128,-1,20
 603 52 603 52 535 21 c 128,-1,21
 467 -10 467 -10 381 -10 c 0,4,5
383 100 m 0,22,23
 458 100 458 100 510 139.5 c 128,-1,24
 562 179 562 179 589 248 c 128,-1,25
 616 317 616 317 616 405 c 0,26,27
 616 506 616 506 568 555.5 c 128,-1,28
 520 605 520 605 436 605 c 0,29,30
 362 605 362 605 310 566 c 128,-1,31
 258 527 258 527 231 458.5 c 128,-1,32
 204 390 204 390 204 301 c 0,33,34
 204 199 204 199 252 149.5 c 128,-1,35
 300 100 300 100 383 100 c 0,22,23
EndSplineSet
EndChar

StartChar: uni04FA
Encoding: 1274 1274 638
Width: 601
GlyphClass: 1
Flags: W
LayerCount: 2
Fore
SplineSet
72 -182 m 2,0,1
 51 -183 51 -183 37 -173 c 128,-1,2
 23 -163 23 -163 21 -142 c 256,3,4
 19 -121 19 -121 32.5 -108.5 c 128,-1,5
 46 -96 46 -96 67 -95 c 2,6,-1
 80 -94 l 2,7,8
 129 -90 129 -90 157.5 -66.5 c 128,-1,9
 186 -43 186 -43 192 0 c 1,10,-1
 143 0 l 2,11,12
 114 0 114 0 100 16.5 c 128,-1,13
 86 33 86 33 90 62 c 2,14,-1
 128 301 l 1,15,-1
 86 301 l 2,16,17
 62 301 62 301 48.5 311.5 c 128,-1,18
 35 322 35 322 35 340 c 0,19,20
 35 366 35 366 50 380 c 128,-1,21
 65 394 65 394 92 394 c 2,22,-1
 143 394 l 1,23,-1
 182 643 l 2,24,25
 187 674 187 674 205.5 689.5 c 128,-1,26
 224 705 224 705 255 705 c 2,27,-1
 604 705 l 2,28,29
 631 705 631 705 646 694 c 128,-1,30
 661 683 661 683 661 662 c 0,31,32
 661 632 661 632 644 615 c 128,-1,33
 627 598 627 598 597 598 c 2,34,-1
 303 598 l 1,35,-1
 270 394 l 1,36,-1
 399 394 l 2,37,38
 423 394 423 394 436.5 384 c 128,-1,39
 450 374 450 374 450 356 c 0,40,41
 450 331 450 331 434.5 316 c 128,-1,42
 419 301 419 301 393 301 c 2,43,-1
 256 301 l 1,44,-1
 220 72 l 1,45,-1
 195 103 l 1,46,-1
 263 103 l 2,47,48
 292 103 292 103 307 86.5 c 128,-1,49
 322 70 322 70 317 41 c 2,50,-1
 314 21 l 2,51,52
 304 -44 304 -44 279 -87 c 128,-1,53
 254 -130 254 -130 210.5 -152.5 c 128,-1,54
 167 -175 167 -175 102 -180 c 2,55,-1
 72 -182 l 2,0,1
EndSplineSet
EndChar

StartChar: uni04FC
Encoding: 1276 1276 639
Width: 672
GlyphClass: 1
Flags: W
LayerCount: 2
Fore
SplineSet
410 -182 m 0,0,1
 387 -186 387 -186 370 -176 c 128,-1,2
 353 -166 353 -166 347 -141 c 0,3,4
 341 -115 341 -115 353 -99.5 c 128,-1,5
 365 -84 365 -84 386 -79 c 0,6,7
 428 -68 428 -68 447.5 -46 c 128,-1,8
 467 -24 467 -24 467 13 c 0,9,10
 467 31 467 31 460 54.5 c 128,-1,11
 453 78 453 78 435 109 c 2,12,-1
 328 294 l 1,13,-1
 363 294 l 1,14,-1
 139 32 l 2,15,16
 120 10 120 10 105 1 c 128,-1,17
 90 -8 90 -8 68 -8 c 0,18,19
 43 -8 43 -8 28 6.5 c 128,-1,20
 13 21 13 21 12.5 42.5 c 128,-1,21
 12 64 12 64 30 85 c 2,22,-1
 298 386 l 1,23,-1
 298 332 l 1,24,-1
 126 623 l 2,25,26
 113 646 113 646 115.5 666.5 c 128,-1,27
 118 687 118 687 134 700 c 128,-1,28
 150 713 150 713 175 713 c 0,29,30
 198 713 198 713 211.5 702.5 c 128,-1,31
 225 692 225 692 240 665 c 2,32,-1
 377 424 l 1,33,-1
 347 424 l 1,34,-1
 559 673 l 2,35,36
 578 695 578 695 593.5 704 c 128,-1,37
 609 713 609 713 631 713 c 0,38,39
 656 713 656 713 671.5 699.5 c 128,-1,40
 687 686 687 686 688 665.5 c 128,-1,41
 689 645 689 645 671 624 c 2,42,-1
 410 329 l 1,43,-1
 410 388 l 1,44,-1
 546 158 l 2,45,46
 572 115 572 115 582 77.5 c 128,-1,47
 592 40 592 40 592 10 c 0,48,49
 592 -71 592 -71 548 -118 c 128,-1,50
 504 -165 504 -165 410 -182 c 0,0,1
EndSplineSet
EndChar

